<svg xmlns="http://www.w3.org/2000/svg" viewBox="0 0 500 500"><g id="freepik--background-complete--inject-15"><rect x="356.76" y="390.89" width="93.14" height="0.25" style="fill:#ebebeb"></rect><rect x="277.21" y="395.11" width="42.23" height="0.25" style="fill:#ebebeb"></rect><path d="M237,337.8H43.91a5.71,5.71,0,0,1-5.7-5.71V60.66A5.71,5.71,0,0,1,43.91,55H237a5.71,5.71,0,0,1,5.71,5.71h0V332.09A5.71,5.71,0,0,1,237,337.8ZM43.91,55.2a5.46,5.46,0,0,0-5.45,5.46V332.09a5.46,5.46,0,0,0,5.45,5.46H237a5.48,5.48,0,0,0,5.46-5.46V60.66A5.48,5.48,0,0,0,237,55.2Z" style="fill:#ebebeb"></path><path d="M453.31,337.8H260.21a5.73,5.73,0,0,1-5.71-5.71V60.66A5.72,5.72,0,0,1,260.21,55h193.1A5.71,5.71,0,0,1,459,60.66V332.09A5.7,5.7,0,0,1,453.31,337.8ZM260.21,55.2a5.48,5.48,0,0,0-5.46,5.46V332.09a5.48,5.48,0,0,0,5.46,5.46h193.1a5.48,5.48,0,0,0,5.46-5.46V60.66a5.48,5.48,0,0,0-5.46-5.46Z" style="fill:#ebebeb"></path><rect y="382.4" width="500" height="0.25" style="fill:#ebebeb"></rect><rect x="104.54" y="389.21" width="33.12" height="0.25" style="fill:#ebebeb"></rect><rect x="171.14" y="398.37" width="40.75" height="0.25" style="fill:#ebebeb"></rect><rect x="52.46" y="395.24" width="51.08" height="0.25" style="fill:#ebebeb"></rect><rect x="356.76" y="390.89" width="93.14" height="0.25" style="fill:#ebebeb"></rect><rect x="277.21" y="395.11" width="42.23" height="0.25" style="fill:#ebebeb"></rect><path d="M237,337.8H43.91a5.71,5.71,0,0,1-5.7-5.71V60.66A5.71,5.71,0,0,1,43.91,55H237a5.71,5.71,0,0,1,5.71,5.71h0V332.09A5.71,5.71,0,0,1,237,337.8ZM43.91,55.2a5.46,5.46,0,0,0-5.45,5.46V332.09a5.46,5.46,0,0,0,5.45,5.46H237a5.48,5.48,0,0,0,5.46-5.46V60.66A5.48,5.48,0,0,0,237,55.2Z" style="fill:#ebebeb"></path><path d="M453.31,337.8H260.21a5.73,5.73,0,0,1-5.71-5.71V60.66A5.72,5.72,0,0,1,260.21,55h193.1A5.71,5.71,0,0,1,459,60.66V332.09A5.7,5.7,0,0,1,453.31,337.8ZM260.21,55.2a5.48,5.48,0,0,0-5.46,5.46V332.09a5.48,5.48,0,0,0,5.46,5.46h193.1a5.48,5.48,0,0,0,5.46-5.46V60.66a5.48,5.48,0,0,0-5.46-5.46Z" style="fill:#ebebeb"></path><rect x="296.15" y="69.85" width="149.44" height="108.94" style="fill:#e0e0e0"></rect><rect x="292.95" y="69.85" width="149.44" height="108.94" style="fill:#f0f0f0"></rect><rect x="300.55" y="77.06" width="135.42" height="94.19" style="fill:#fafafa"></rect><rect x="300.54" y="77.06" width="1.94" height="94.19" style="fill:#e0e0e0"></rect><polygon points="434.72 77.06 376.32 171.25 352.3 171.25 409.18 77.06 434.72 77.06" style="fill:#fff"></polygon><polygon points="401.7 77.06 343.3 171.25 319.28 171.25 376.16 77.06 401.7 77.06" style="fill:#fff"></polygon><rect x="274.22" y="302.47" width="187.61" height="79.93" style="fill:#e0e0e0"></rect><rect x="262.95" y="302.47" width="187.61" height="79.93" style="fill:#f0f0f0"></rect><rect x="271.4" y="308.81" width="172.49" height="29.02" style="fill:#fafafa"></rect><rect x="271.4" y="345.92" width="172.49" height="29.02" style="fill:#fafafa"></rect><rect x="260.28" y="296.07" width="204.31" height="6.4" style="fill:#e0e0e0"></rect><rect x="450.55" y="296.07" width="14.04" height="6.4" style="opacity:0.05"></rect><polygon points="407.06 260.09 439.65 260.09 435.34 295.81 402.45 295.81 407.06 260.09" style="fill:#ebebeb"></polygon><polygon points="411.06 265.2 434.32 265.2 431.25 290.7 407.77 290.7 411.06 265.2" style="fill:#f5f5f5"></polygon><polygon points="438.26 271.55 439.65 295.81 435.34 295.81 438.26 271.55" style="fill:#e0e0e0"></polygon><polygon points="412.35 265.2 409.06 290.7 407.77 290.7 411.06 265.2 412.35 265.2" style="fill:#e0e0e0"></polygon><rect x="56.15" y="161.85" width="59.23" height="73.23" style="fill:#e0e0e0"></rect><rect x="51.59" y="161.85" width="59.23" height="73.23" style="fill:#f0f0f0"></rect><rect x="57.63" y="169.31" width="47.17" height="58.32" style="fill:#fafafa"></rect><rect x="57.63" y="169.31" width="1.92" height="58.32" style="fill:#e0e0e0"></rect><circle cx="81.21" cy="197.14" r="11.29" transform="translate(-115.61 115.17) rotate(-45)" style="fill:#e0e0e0"></circle><g id="freepik--Character--inject-374--inject-15"><path d="M52.54,298l-.63,84.75,67.09.5a3.49,3.49,0,0,0,3.41-3.53l.2-27.05a110.3,110.3,0,0,1,3.39-27.5,22.11,22.11,0,0,0,.7-6.87c-.56-10.47-8.62-19-18.66-19.84-.48,0-1-.05-1.42-.05h0Z" style="fill:#e0e0e0;isolation:isolate"></path><path d="M32.77,324.46a100.38,100.38,0,0,1,3,25.78l-.21,28.64a3.47,3.47,0,0,0,3.35,3.58l26,.19a3.48,3.48,0,0,0,3.41-3.52l.2-27.06a110.42,110.42,0,0,1,3.39-27.5,22.11,22.11,0,0,0,.7-6.87c-.56-10.47-8.62-19-18.66-19.83-11.84-.94-21.77,8.76-21.86,20.91A22.24,22.24,0,0,0,32.77,324.46Z" style="fill:#f5f5f5"></path><rect x="97.07" y="314.95" width="51.43" height="85.54" transform="translate(-235.84 477.82) rotate(-89.57)" style="fill:#ebebeb;isolation:isolate"></rect><path d="M227.47,286.45,227,344l-17.3-.13-108.47-.82.43-57.56a15.66,15.66,0,0,1,13.77-15.43,16.69,16.69,0,0,1,2-.12l94.45.71h0A15.67,15.67,0,0,1,227.47,286.45Z" style="fill:#e0e0e0;isolation:isolate"></path><path d="M210.16,286.45l-.43,57.44-108.47-.82.43-57.56a15.66,15.66,0,0,1,13.77-15.43l79.15.59h0A15.66,15.66,0,0,1,210.16,286.45Z" style="fill:#ebebeb;isolation:isolate"></path><path d="M160.94,329.73a1.38,1.38,0,0,1,1.33,1.42L162.13,350h0a1.38,1.38,0,0,1-1.39,1.37l-79.54-.6a4.61,4.61,0,0,1-4.58-4.65l.09-12.37a4.61,4.61,0,0,1,4.65-4.58l79.54.6Z" style="fill:#f0f0f0;isolation:isolate"></path><path d="M160.8,298.4l-.64,84.74,82.36.62a3.49,3.49,0,0,0,3.41-3.53l.2-27.06a110.42,110.42,0,0,1,3.39-27.5,21.78,21.78,0,0,0,.7-6.87c-.55-10.47-8.62-19-18.66-19.83a13.57,13.57,0,0,0-1.42-.05h0Z" style="fill:#e0e0e0;isolation:isolate"></path><path d="M145.29,325.3a100.43,100.43,0,0,1,2.94,25.78L148,379.73a3.48,3.48,0,0,0,3.36,3.57l26,.2a3.48,3.48,0,0,0,3.41-3.53l.2-27.05a110.3,110.3,0,0,1,3.39-27.5,21.81,21.81,0,0,0,.7-6.87c-.55-10.48-8.62-19-18.66-19.84-11.84-.93-21.77,8.76-21.86,20.91A21.34,21.34,0,0,0,145.29,325.3Z" style="fill:#f5f5f5"></path></g><rect x="52.46" y="120.2" width="163.7" height="5.68" style="fill:#e0e0e0"></rect><rect x="52.46" y="120.2" width="151.18" height="5.68" style="fill:#f0f0f0"></rect><polygon points="52.46 125.88 64.97 138.16 68.37 138.16 64.97 125.88 52.46 125.88" style="fill:#ebebeb"></polygon><polygon points="55.85 125.88 68.37 138.16 68.37 125.88 55.85 125.88" style="fill:#e0e0e0"></polygon><circle cx="90.17" cy="107.9" r="12.3" transform="translate(-34.85 43.54) rotate(-22.88)" style="fill:#ebebeb"></circle><polygon points="77.87 107.9 77.37 95.6 102.47 95.6 102.47 107.9 77.87 107.9" style="fill:#ebebeb"></polygon><rect x="111.79" y="68.61" width="7.44" height="51.59" style="fill:#f0f0f0"></rect><rect x="120.6" y="68.61" width="7.45" height="51.59" style="fill:#f0f0f0"></rect><rect x="129.7" y="68.61" width="7.45" height="51.59" style="fill:#f0f0f0"></rect><rect x="111.79" y="112.64" width="7.44" height="2.77" style="fill:#e0e0e0"></rect><rect x="120.6" y="112.64" width="7.45" height="2.77" style="fill:#e0e0e0"></rect><rect x="129.7" y="112.64" width="7.45" height="2.77" style="fill:#e0e0e0"></rect><rect x="111.79" y="74.18" width="7.44" height="2.77" style="fill:#e0e0e0"></rect><rect x="120.6" y="74.18" width="7.45" height="2.77" style="fill:#e0e0e0"></rect><rect x="129.7" y="74.18" width="7.45" height="2.77" style="fill:#e0e0e0"></rect><rect x="122.87" y="83.19" width="2.92" height="20.09" style="fill:#e0e0e0"></rect><rect x="114.05" y="83.19" width="2.92" height="20.09" style="fill:#e0e0e0"></rect><rect x="131.97" y="83.19" width="2.92" height="20.09" style="fill:#e0e0e0"></rect><rect x="138.42" y="68.61" width="7.44" height="51.59" style="fill:#f0f0f0"></rect><rect x="147.24" y="68.61" width="7.45" height="51.59" style="fill:#f0f0f0"></rect><rect x="156.34" y="68.61" width="7.45" height="51.59" style="fill:#f0f0f0"></rect><rect x="138.42" y="112.64" width="7.44" height="2.77" style="fill:#e0e0e0"></rect><rect x="147.24" y="112.64" width="7.45" height="2.77" style="fill:#e0e0e0"></rect><rect x="156.34" y="112.64" width="7.45" height="2.77" style="fill:#e0e0e0"></rect><rect x="138.42" y="74.18" width="7.44" height="2.77" style="fill:#e0e0e0"></rect><rect x="147.24" y="74.18" width="7.45" height="2.77" style="fill:#e0e0e0"></rect><rect x="156.34" y="74.18" width="7.45" height="2.77" style="fill:#e0e0e0"></rect><rect x="149.51" y="83.19" width="2.92" height="20.09" style="fill:#e0e0e0"></rect><rect x="140.69" y="83.19" width="2.92" height="20.09" style="fill:#e0e0e0"></rect><rect x="158.61" y="83.19" width="2.92" height="20.09" style="fill:#e0e0e0"></rect><polygon points="200.24 125.88 212.76 138.16 216.15 138.16 212.76 125.88 200.24 125.88" style="fill:#ebebeb"></polygon><polygon points="203.64 125.88 216.15 138.16 216.15 125.88 203.64 125.88" style="fill:#e0e0e0"></polygon></g><g id="freepik--Shadow--inject-15"><ellipse id="freepik--shape--inject-15" cx="250" cy="416.24" rx="193.89" ry="11.32" style="fill:#f5f5f5"></ellipse></g><g id="freepik--Music--inject-15"><path d="M281.87,250.58l-.9.45c-7-13.9-21.41-24.66-39.52-29.52-16.87-4.53-34.36-3.76-50.76-2.26-3.79.34-7.65.74-11.39,1.13-13,1.35-26.48,2.74-39.78,2.16-23.77-1-46.71-8.68-64.56-21.51A101.13,101.13,0,0,1,57.3,184.85l.55-.89a100.66,100.66,0,0,0,17.69,16.26c17.7,12.72,40.44,20.29,64,21.32,13.22.58,26.64-.81,39.63-2.16,3.74-.38,7.6-.78,11.4-1.13,16.49-1.51,34.09-2.27,51.1,2.29C260.09,225.48,274.73,236.43,281.87,250.58Z" style="fill:#FFC100"></path><path d="M283.76,241l-.9.45c-7-13.9-21.41-24.66-39.52-29.52-16.87-4.53-34.36-3.77-50.76-2.27-3.79.35-7.65.75-11.39,1.13-13,1.35-26.48,2.75-39.78,2.17-23.24-1-47.51-11-66.59-27.36a111.7,111.7,0,0,1-11.22-11l.45-.73c19.87,22.67,49.8,36.93,77.41,38.14,13.22.58,26.65-.81,39.63-2.16,3.74-.39,7.6-.79,11.4-1.14,16.49-1.5,34.09-2.27,51.1,2.3C262,215.94,276.62,226.88,283.76,241Z" style="fill:#FFC100"></path><path d="M283.76,231.64l-.9.45c-7-13.9-21.41-24.66-39.52-29.53C226.47,198,209,198.8,192.58,200.3c-4,.37-8.14.81-12.11,1.23-12.79,1.38-26,2.79-39.06,2.07-28.85-1.61-53.76-18-70.95-40.16l.54-.89c17,22.07,41.78,38.45,70.46,40,13,.72,26.16-.69,38.9-2.06,4-.43,8.09-.87,12.13-1.24,16.49-1.5,34.09-2.27,51.1,2.3C262,206.53,276.62,217.48,283.76,231.64Z" style="fill:#FFC100"></path><path d="M286,221.83l-.9.45c-7-13.9-21.41-24.67-39.52-29.53-16.87-4.53-34.37-3.76-50.76-2.26-4,.37-8.14.81-12.11,1.23-12.79,1.37-26,2.79-39.06,2.06-26-1.45-50.36-17.21-67.15-40.22l.55-.91c16.63,23,40.78,38.69,66.65,40.14,13,.72,26.15-.69,38.9-2.06,4-.43,8.09-.87,12.13-1.24,15.7-1.43,34-2.28,51.1,2.3C264.25,196.72,278.89,207.67,286,221.83Z" style="fill:#FFC100"></path><path d="M288.41,210.33l-.89.45c-7-13.9-21.42-24.66-39.53-29.52-16.87-4.53-34.36-3.77-50.75-2.27-4,.37-8.15.81-12.12,1.24-12.79,1.37-26,2.79-39.06,2.06-26.7-1.49-48.12-17.66-62.57-40.07l.58-.93c14.28,22.36,35.53,38.52,62.05,40,13,.72,26.15-.69,38.9-2.06,4-.42,8.08-.86,12.13-1.23,15.69-1.44,34-2.29,51.1,2.29C266.64,185.23,281.27,196.18,288.41,210.33Z" style="fill:#FFC100"></path><path d="M228.5,189.8c0,1.85-2.19,3.35-4.9,3.35s-4.9-1.5-4.9-3.35,2.19-3.35,4.9-3.35S228.5,188,228.5,189.8Z" style="fill:#263238"></path><polygon points="228.32 190.63 227.35 190.4 231.86 171.82 232.68 172.29 228.32 190.63" style="fill:#263238"></polygon><path d="M240.18,198.46c0,1.85-2.2,3.35-4.9,3.35s-4.9-1.5-4.9-3.35,2.19-3.34,4.9-3.34S240.18,196.61,240.18,198.46Z" style="fill:#263238"></path><polygon points="240 199.3 239.03 199.06 244.14 178.28 244.99 178.71 240 199.3" style="fill:#263238"></polygon><polygon points="242.54 186.45 230.38 179.82 230.94 177.45 243.11 184.05 242.54 186.45" style="fill:#263238"></polygon><polygon points="244.6 178.52 231.86 171.82 231.48 175.17 243.75 181.37 244.6 178.52" style="fill:#263238"></polygon><path d="M132.32,205c-.55,2-3.3,2.93-6.13,2.14s-4.68-3-4.13-5,3.29-2.92,6.12-2.13S132.86,203.05,132.32,205Z" style="fill:#263238"></path><path d="M124.74,180.31,123,203l-1-.08,1.3-16.51.4-5.09A3.64,3.64,0,0,0,124.74,180.31Z" style="fill:#263238"></path><path d="M124.74,180.31l-1,5.72a4.42,4.42,0,0,1-.47.39,9,9,0,0,1-4.18,1.62c-1,.16-2,.23-3,.47a8.84,8.84,0,0,0-5,3.22c.4-2.52.93-5.26,2.86-6.94,1.51-1.32,3.58-1.71,5.53-2.18a14.71,14.71,0,0,0,4.22-1.28A3.64,3.64,0,0,0,124.74,180.31Z" style="fill:#263238"></path></g><g id="freepik--Character--inject-15"><path d="M198,129.32c-1.61,4.11-4.52,7.63-5.94,11.81-2.91,8.57-4.36,15.74-11.86,21.69-14.75,11.72-30.62,14-45.88,1.79-4.48-3.57-8.56-7.8-11.1-12.93-4.24-8.53-3.3-21.05,6.09-25.78,5.66-2.85,12.72-1.75,18.3-4.77s8.23-9.11,12.55-13.57a24.4,24.4,0,0,1,15.1-6.88,25.17,25.17,0,0,1,5.95.13,21.56,21.56,0,0,1,7.63,2.58C197.05,108.13,201.65,119.84,198,129.32Z" style="fill:#263238"></path><path d="M204.55,149s21.85-15.32,24.91-18.58,8-30,8-34.72L234.77,90l2.66-8L244,83.29V90l-1.43,5.31s1.47,24.53-5.84,39.53a11.55,11.55,0,0,1-3.05,3.85c-5.38,4.42-21.79,17.75-28.06,21.14C198,163.94,204.55,149,204.55,149Z" style="fill:#ce7a63"></path><path d="M174.78,156s-13.87-13.13-27-27.9c0,0-7.17-20.54-8.07-33.29L142.75,88,140.9,77.06l-7.17,2-3.53,10,2.74,5.67s.66,24.51,7.72,41.5c0,0,16.2,21.48,30.6,31.23C171.26,167.5,179.74,168.65,174.78,156Z" style="fill:#ce7a63"></path><polygon points="186.93 387.41 183.12 411.55 174.72 409.38 176.89 384.89 186.93 387.41" style="fill:#ce7a63"></polygon><polygon points="105.89 273.43 94.42 260.08 98.22 254.2 112.86 264.51 105.89 273.43" style="fill:#ce7a63"></polygon><path d="M203.87,310.19c-2,16.82-9.35,60.87-11.25,72.08-.29,1.68-.44,2.62-.44,2.62l-18.45-2.25.31-2.7,8.68-76.05c-.62-5.33-1.14-12.66-1.55-19.83-.71-12.08-1.12-23.72-1.15-24.65a.06.06,0,0,0,0-.06s0,.09,0,.25c0,.67-.07,1.25-.1,1.71,0,.11,0,.23,0,.36s0,.11,0,.17c-.79,11.76-4.93,61.18-19.21,59.61-14-1.56-43.79-34.7-51.62-43.67-1.23-1.41-1.92-2.23-1.92-2.23l7.2-9.91c1,.64,2,1.3,3,2,16.05,11,33.88,28.61,33.88,28.61s1.8-30.15,2.7-50.85,13.46-38.15,13.46-38.15h37.82S206.13,290.84,203.87,310.19Z" style="fill:#263238"></path><polygon points="171.28 379.6 171.28 388.77 191.99 392.32 194.95 382.56 171.28 379.6" style="fill:#FFC100"></polygon><polygon points="107.13 280.13 119.51 264.99 113.17 260.08 100.84 275.39 107.13 280.13" style="fill:#FFC100"></polygon><path d="M174.49,405.93l9.13,1.76s.55,5.25,6.75,7.31,7.15,1.43,7,3.5-5.61,3-9.56,1.11-13.48-3.18-15.87-4.13S174.49,405.93,174.49,405.93Z" style="fill:#263238"></path><path d="M224.82,152.42l-12.33,8-3,1.94s-3.43,35.83-4.29,44.85H167.39L163.88,173l-1.26-12.39-9.36-8,9.19-15.27,13.88,10.09,17.82.21,21.13-10.3Z" style="fill:#FFC100"></path><path d="M197.48,131.44c-3.3,4.42-10,5.82-10,5.82-3.74.08-12.94-.51-13.46-16.25,0-.57,0-1.13,0-1.67.57-14.21,14.77-16,14.77-16a7,7,0,0,1,.79.48,21.49,21.49,0,0,1,7.32,8.45C200.72,119.6,200.78,127,197.48,131.44Z" style="fill:#ce7a63"></path><path d="M186.55,125.53a7,7,0,0,0,6,.59" style="fill:none;stroke:#263238;stroke-linecap:round;stroke-linejoin:round"></path><path d="M183.36,116s.52-2.21,3.47-2.28" style="fill:none;stroke:#263238;stroke-linecap:round;stroke-linejoin:round"></path><path d="M192.3,110.32A3.64,3.64,0,0,1,196,110" style="fill:none;stroke:#263238;stroke-linecap:round;stroke-linejoin:round"></path><path d="M187.43,117.73c.31.64.22,1.32-.21,1.53s-1-.15-1.32-.8-.22-1.32.21-1.52S187.12,117.09,187.43,117.73Z" style="fill:#263238"></path><path d="M195.57,114.67c.3.64.21,1.33-.21,1.53s-1-.15-1.33-.79-.21-1.32.21-1.53S195.26,114,195.57,114.67Z" style="fill:#263238"></path><path d="M186.11,116.94l1.35-1.28S187.79,117.15,186.11,116.94Z" style="fill:#263238"></path><path d="M194.11,114l1.35-1.28S195.79,114.25,194.11,114Z" style="fill:#263238"></path><path d="M192.3,117.48l1.64,4.81a3.67,3.67,0,0,0,2.49-1.32Z" style="fill:#ba4d3c"></path><path d="M188.59,136.25c-.21.3-1.23,5.92.51,8.37a8.39,8.39,0,0,0,5.05,3s3.61,9.08-1.85,10.92-14.33-3.67-16-11.13c0,0,3.3-1,2.31-13.53S188.59,136.25,188.59,136.25Z" style="fill:#ce7a63"></path><path d="M189.58,103.87c.21,13-14.93,15.38-15.56,15.47.57-14.21,13.47-16.58,13.47-16.58S189.08,103.53,189.58,103.87Z" style="fill:#263238"></path><path d="M176.53,122.43c-1.2-2.64-4.43-5.16-6.32-3.32-2.63,2.55.75,7,3.18,7.35,1.06.16,2.53.23,3.21-.77A3.38,3.38,0,0,0,176.53,122.43Z" style="fill:#ce7a63"></path><polygon points="166.76 156.12 163.88 172.97 162.62 160.57 166.76 156.12" style="opacity:0.2"></polygon><polygon points="212.49 160.46 209.51 162.4 208.76 156.12 212.49 160.46" style="opacity:0.2"></polygon><polygon points="205.55 203.81 205.22 207.25 167.39 207.25 167.04 203.81 205.55 203.81" style="fill:#fff;stroke:#fff;stroke-miterlimit:10"></polygon><polygon points="172.73 207.25 171.88 207.25 171.61 203.81 172.47 203.81 172.73 207.25" style="fill:#FFC100"></polygon><polygon points="179.54 207.25 178.68 207.25 178.59 203.81 179.44 203.81 179.54 207.25" style="fill:#FFC100"></polygon><polygon points="187.45 203.81 187.27 207.25 186.41 207.25 186.59 203.81 187.45 203.81" style="fill:#FFC100"></polygon><polygon points="195.28 203.81 194.97 207.25 194.12 207.25 194.43 203.81 195.28 203.81" style="fill:#FFC100"></polygon><polygon points="202.32 203.81 201.93 207.25 201.08 207.25 201.46 203.81 202.32 203.81" style="fill:#FFC100"></polygon><path d="M96.27,262.86l4.79-7.42S97,248,95.59,248.18s-15,13.4-16.13,17c-.85,2.58.31,3.54,1.81,3.5S90.14,262.19,96.27,262.86Z" style="fill:#263238"></path><path d="M181.16,100.81h0c-9.51,2.32-10.24,12.61-10.17,16.39,0,.21,0,.4,0,.57,0,.52.05.81.05.81l-2.84.75c-.08-.55-.14-1.08-.19-1.6-1-10.69,3.91-15.24,7.19-17.06A25.17,25.17,0,0,1,181.16,100.81Z" style="fill:#FFC100"></path><path d="M173.35,129.69a3.92,3.92,0,0,1-1,.23h0c-2.38.22-4.92-1.66-6-4.62s-.37-6.26,1.72-7.57a3.85,3.85,0,0,1,.73-.37,4.25,4.25,0,0,1,1.45-.25,3.55,3.55,0,0,1,.79.09,6.87,6.87,0,0,1,4.82,4.55C177.08,125.16,176,128.72,173.35,129.69Z" style="fill:#FFC100"></path><path d="M171,117.21a6.87,6.87,0,0,1,4.82,4.55c1.27,3.4.17,7-2.46,7.93a3.92,3.92,0,0,1-1,.23c.37-.17,3.49-1.72,2.84-6.8a7,7,0,0,0-4.19-5.34,8.53,8.53,0,0,0-.81-.3s0-.13,0-.36c.07-2.38,1-15.55,11-16.31h0C171.65,103.14,170.92,113.43,171,117.21Z" style="fill:#fff"></path><path d="M181.17,284.06c-.71-12.08-1.12-23.72-1.15-24.65a.06.06,0,0,0,0-.06l1.14-17.11S183.81,269.57,181.17,284.06Z" style="opacity:0.2"></path></g><g id="freepik--Mobile--inject-15"><path d="M304.34,137.56l106.81,0a14.06,14.06,0,0,1,14,15l-17,252.64a14.06,14.06,0,0,1-14,13.11l-105.91,0a14.06,14.06,0,0,1-14-14.95L290.3,150.72A14.06,14.06,0,0,1,304.34,137.56Z" style="fill:#FFC100"></path><path d="M304.34,137.56l106.81,0a14.06,14.06,0,0,1,14,15l-17,252.64a14.06,14.06,0,0,1-14,13.11l-105.91,0a14.06,14.06,0,0,1-14-14.95L290.3,150.72A14.06,14.06,0,0,1,304.34,137.56Z" style="opacity:0.2"></path><path d="M301.7,137.56l103.8,0A15.54,15.54,0,0,1,421,154.18L404.25,403.83a15.55,15.55,0,0,1-15.52,14.51l-102.91,0a15.55,15.55,0,0,1-15.51-16.53l15.87-249.66A15.54,15.54,0,0,1,301.7,137.56Z" style="fill:#FFC100"></path><path d="M374.94,153.39H344.8a2.81,2.81,0,0,1-2.8-2.8h0a2.82,2.82,0,0,1,2.81-2.81H375a2.82,2.82,0,0,1,2.8,2.81h0A2.81,2.81,0,0,1,374.94,153.39Z" style="opacity:0.2"></path><path d="M329.46,150.57a3.93,3.93,0,1,1-3.93-3.93A3.93,3.93,0,0,1,329.46,150.57Z" style="opacity:0.2"></path><circle cx="332.69" cy="400.75" r="9.06" transform="translate(-185.93 352.62) rotate(-45)" style="opacity:0.2"></circle><polygon points="284.54 385.97 392.02 386 409.06 162.54 298.3 162.5 284.54 385.97" style="fill:#fff"></polygon><polygon points="284.54 385.97 281.58 385.97 295.09 162.5 298.3 162.5 284.54 385.97" style="opacity:0.2"></polygon><path d="M379.78,287.46H311.56a7.33,7.33,0,0,1-7.31-7.31h0a7.33,7.33,0,0,1,7.31-7.31h68.22a7.33,7.33,0,0,1,7.31,7.31h0A7.33,7.33,0,0,1,379.78,287.46Z" style="fill:#FFC100"></path><path d="M387.25,187.91H319a7.32,7.32,0,0,1-7.31-7.3h0A7.33,7.33,0,0,1,319,173.3h68.22a7.33,7.33,0,0,1,7.31,7.31h0A7.32,7.32,0,0,1,387.25,187.91Z" style="fill:#FFC100"></path><rect x="298.17" y="369.82" width="83.17" height="2.62" rx="0.54" style="fill:#263238"></rect><circle cx="301.98" cy="371.13" r="3.82" style="fill:#FFC100"></circle><path d="M304.12,371.13A2.14,2.14,0,1,1,302,369,2.14,2.14,0,0,1,304.12,371.13Z" style="fill:#fff"></path><path d="M315.4,199.2l69.25.2a6.52,6.52,0,0,1,6.5,6.94l-3,47.77a6.53,6.53,0,0,1-6.52,6.12h-69.2a6.53,6.53,0,0,1-6.52-6.93l3-48A6.52,6.52,0,0,1,315.4,199.2Z" style="fill:#FFC100"></path><path d="M315.4,199.2l69.25.2a6.52,6.52,0,0,1,6.5,6.94l-3,47.77a6.53,6.53,0,0,1-6.52,6.12h-69.2a6.53,6.53,0,0,1-6.52-6.93l3-48A6.52,6.52,0,0,1,315.4,199.2Z" style="opacity:0.2"></path><path d="M349.66,206.74c-11.52-.66-21.43,8.81-22.14,21.16s8.05,22.89,19.57,23.56,21.43-8.81,22.14-21.16S361.18,207.4,349.66,206.74Zm-1.58,27.46a5.12,5.12,0,1,1,5.05-4.83A5,5,0,0,1,348.08,234.2Z" style="fill:#fff"></path><path d="M384.72,318.54H328a1.35,1.35,0,0,1,0-2.69h56.75a1.35,1.35,0,0,1,0,2.69Z" style="fill:#FFC100"></path><path d="M384.72,318.54H328a1.35,1.35,0,0,1,0-2.69h56.75a1.35,1.35,0,0,1,0,2.69Z" style="fill:#fff;opacity:0.5"></path><path d="M382.94,346.16h-57a1.35,1.35,0,1,1,0-2.69h57a1.35,1.35,0,1,1,0,2.69Z" style="fill:#FFC100"></path><path d="M382.94,346.16h-57a1.35,1.35,0,1,1,0-2.69h57a1.35,1.35,0,1,1,0,2.69Z" style="fill:#fff;opacity:0.5"></path><circle cx="310.36" cy="317.19" r="8.38" transform="translate(-87.99 121.6) rotate(-19.47)" style="fill:#FFC100"></circle><circle cx="308.22" cy="344.82" r="8.38" transform="translate(-103.79 554.93) rotate(-75.23)" style="fill:#FFC100"></circle><polygon points="306.86 340.35 306.86 348.62 311.89 344.49 306.86 340.35" style="fill:#fff"></polygon><polygon points="308.84 313.06 308.84 321.33 313.87 317.19 308.84 313.06" style="fill:#fff"></polygon></g></svg>