<svg xmlns="http://www.w3.org/2000/svg" viewBox="0 0 500 500"><g id="freepik--background-simple--inject-16"><path d="M241.27,70s-65.36,3.31-107.56,58.66-43.36,131-45.93,192.23,33.34,107.61,85.94,113.72,66.79-40.91,125.81-67.38,78.7-24.57,114-78.92,10.61-137.89-53.4-180.74S241.27,70,241.27,70Z" style="fill:#FFC100"></path><path d="M241.27,70s-65.36,3.31-107.56,58.66-43.36,131-45.93,192.23,33.34,107.61,85.94,113.72,66.79-40.91,125.81-67.38,78.7-24.57,114-78.92,10.61-137.89-53.4-180.74S241.27,70,241.27,70Z" style="fill:#fff;opacity:0.7000000000000001"></path></g><g id="freepik--Screen--inject-16"><rect x="187.65" y="98.2" width="158.77" height="282.52" rx="10.64" style="fill:#263238;stroke:#263238;stroke-linecap:round;stroke-linejoin:round"></rect><path d="M231.38,114.28H210.52a3.17,3.17,0,0,1-3.17-3.17h0a3.17,3.17,0,0,1,3.17-3.17h20.86a3.17,3.17,0,0,1,3.16,3.17h0A3.17,3.17,0,0,1,231.38,114.28Z" style="fill:none;stroke:#fff;stroke-linecap:round;stroke-miterlimit:10"></path><path d="M262.1,114.28H241.25a3.17,3.17,0,0,1-3.17-3.17h0a3.17,3.17,0,0,1,3.17-3.17H262.1a3.17,3.17,0,0,1,3.17,3.17h0A3.17,3.17,0,0,1,262.1,114.28Z" style="fill:none;stroke:#fff;stroke-linecap:round;stroke-miterlimit:10"></path><path d="M292.83,114.28H272a3.16,3.16,0,0,1-3.16-3.17h0a3.16,3.16,0,0,1,3.16-3.17h20.86a3.16,3.16,0,0,1,3.16,3.17h0A3.16,3.16,0,0,1,292.83,114.28Z" style="fill:none;stroke:#fff;stroke-linecap:round;stroke-miterlimit:10"></path><path d="M323.55,114.28H302.7a3.17,3.17,0,0,1-3.17-3.17h0a3.17,3.17,0,0,1,3.17-3.17h20.85a3.17,3.17,0,0,1,3.17,3.17h0A3.17,3.17,0,0,1,323.55,114.28Z" style="fill:none;stroke:#fff;stroke-linecap:round;stroke-miterlimit:10"></path><polygon points="245.81 246.91 245.81 237.65 237.78 242.28 245.81 246.91" style="fill:#fff"></polygon><rect x="235.11" y="237.42" width="1.46" height="9.47" style="fill:#fff"></rect><polygon points="288.27 246.91 296.29 242.28 288.27 237.65 288.27 246.91" style="fill:#fff"></polygon><rect x="297.5" y="237.42" width="1.46" height="9.47" style="fill:#fff"></rect><path d="M267.51,228.82a12.34,12.34,0,1,0,12.34,12.34A12.33,12.33,0,0,0,267.51,228.82Zm-1.75,18.84h-3.67v-13h3.67Zm7.17,0h-3.67v-13h3.67Z" style="fill:#fff"></path><circle cx="267.04" cy="162.22" r="31.23" transform="translate(-29.15 62.75) rotate(-12.71)" style="fill:#FFC100"></circle><path d="M280.76,141.13a2,2,0,0,0-.81-1.62,2,2,0,0,0-1.79-.32l-21.26,6.3a2,2,0,0,0-1.45,1.94v24.34a6.25,6.25,0,1,0,4,6.37h.09V159.57l17.21-5.1v10.75a6.15,6.15,0,0,0-2.2-.42,6.26,6.26,0,1,0,6.26,6.26s0-.07,0-.1Zm-4.05,9.12-17.21,5.1v-6.41l17.21-5.1Z" style="fill:#263238"></path><line x1="252.2" y1="206.65" x2="280.54" y2="206.65" style="fill:none;stroke:#fff;stroke-linecap:round;stroke-miterlimit:10;stroke-width:2px"></line><line x1="244.87" y1="212.32" x2="287.87" y2="212.32" style="fill:none;stroke:#fff;stroke-linecap:round;stroke-miterlimit:10;stroke-width:2px"></line><circle cx="321.11" cy="281.54" r="6.7" style="fill:#fff"></circle><polygon points="318.24 286.28 326.26 281.64 318.24 277.01 318.24 286.28" style="fill:#263238"></polygon><line x1="206.27" y1="281.99" x2="235.27" y2="281.99" style="fill:none;stroke:#fff;stroke-linecap:round;stroke-miterlimit:10;stroke-width:2px"></line><line x1="206.27" y1="276.49" x2="226.27" y2="276.49" style="fill:none;stroke:#fff;stroke-linecap:round;stroke-miterlimit:10;stroke-width:2px"></line><line x1="243.77" y1="282.81" x2="308.77" y2="282.81" style="fill:none;stroke:#fff;stroke-linecap:round;stroke-miterlimit:10"></line><circle cx="321.11" cy="301.54" r="6.7" style="fill:#fff"></circle><polygon points="318.24 306.28 326.26 301.64 318.24 297.01 318.24 306.28" style="fill:#263238"></polygon><line x1="206.27" y1="301.99" x2="235.27" y2="301.99" style="fill:none;stroke:#fff;stroke-linecap:round;stroke-miterlimit:10;stroke-width:2px"></line><line x1="206.27" y1="296.49" x2="226.27" y2="296.49" style="fill:none;stroke:#fff;stroke-linecap:round;stroke-miterlimit:10;stroke-width:2px"></line><line x1="243.77" y1="302.81" x2="308.77" y2="302.81" style="fill:none;stroke:#fff;stroke-linecap:round;stroke-miterlimit:10"></line><circle cx="321.11" cy="321.54" r="6.7" style="fill:#fff"></circle><polygon points="318.24 326.28 326.26 321.64 318.24 317.01 318.24 326.28" style="fill:#263238"></polygon><line x1="206.27" y1="321.99" x2="235.27" y2="321.99" style="fill:none;stroke:#fff;stroke-linecap:round;stroke-miterlimit:10;stroke-width:2px"></line><line x1="206.27" y1="316.49" x2="226.27" y2="316.49" style="fill:none;stroke:#fff;stroke-linecap:round;stroke-miterlimit:10;stroke-width:2px"></line><line x1="243.77" y1="322.81" x2="308.77" y2="322.81" style="fill:none;stroke:#fff;stroke-linecap:round;stroke-miterlimit:10"></line><circle cx="321.11" cy="341.54" r="6.7" style="fill:#fff"></circle><polygon points="318.24 346.28 326.26 341.64 318.24 337.01 318.24 346.28" style="fill:#263238"></polygon><line x1="206.27" y1="341.99" x2="235.27" y2="341.99" style="fill:none;stroke:#fff;stroke-linecap:round;stroke-miterlimit:10;stroke-width:2px"></line><line x1="206.27" y1="336.49" x2="226.27" y2="336.49" style="fill:none;stroke:#fff;stroke-linecap:round;stroke-miterlimit:10;stroke-width:2px"></line><line x1="243.77" y1="342.81" x2="308.77" y2="342.81" style="fill:none;stroke:#fff;stroke-linecap:round;stroke-miterlimit:10"></line><circle cx="321.11" cy="361.54" r="6.7" style="fill:#fff"></circle><polygon points="318.24 366.28 326.26 361.64 318.24 357.01 318.24 366.28" style="fill:#263238"></polygon><line x1="206.27" y1="361.99" x2="235.27" y2="361.99" style="fill:none;stroke:#fff;stroke-linecap:round;stroke-miterlimit:10;stroke-width:2px"></line><line x1="206.27" y1="356.49" x2="226.27" y2="356.49" style="fill:none;stroke:#fff;stroke-linecap:round;stroke-miterlimit:10;stroke-width:2px"></line><line x1="243.77" y1="362.81" x2="308.77" y2="362.81" style="fill:none;stroke:#fff;stroke-linecap:round;stroke-miterlimit:10"></line><rect x="219.84" y="123.41" width="94.39" height="99.87" style="fill:none;stroke:#FFC100;stroke-miterlimit:10"></rect><line x1="206.86" y1="265.94" x2="327.22" y2="265.94" style="fill:none;stroke:#FFC100;stroke-miterlimit:10"></line></g><g id="freepik--Plant--inject-16"><path d="M394.62,349.14a21.68,21.68,0,0,0-4.94,10.27L379.76,365V338.69l.19.26,15.8-11.56c2,.31,9.66,1.18,16.65-2.58,8.11-4.37,14-19.34,14-19.34s-19.34-2.18-25.89,5.93a22.53,22.53,0,0,0-5.37,15.12L379.76,337.8V318.39a21.43,21.43,0,0,0,11.74-14.17c2.81-10.92-12.17-32.44-12.17-32.44s-15.59,22.15-12.47,33.38c2.64,9.51,9.74,12.52,11.86,13.22v42.09l-11.13-9.26c.26-2.22.46-9.16-5.72-16.11-7.49-8.42-27.45-7.8-27.45-7.8s8.42,16.85,15.59,22.46c6.27,4.91,14.92,2.91,17,2.32l11.7,9.75v12.8H361.33L368.42,419H389.7l7.1-44.34h-17v-8.46l10.89-6.11c2.65.73,10.06,2.25,17.07-1.25,8.73-4.37,15.91-13.73,15.91-13.73S402.73,339.78,394.62,349.14Z" style="fill:#FFC100"></path><path d="M394.62,349.14a21.68,21.68,0,0,0-4.94,10.27L379.76,365V338.69l.19.26,15.8-11.56c2,.31,9.66,1.18,16.65-2.58,8.11-4.37,14-19.34,14-19.34s-19.34-2.18-25.89,5.93a22.53,22.53,0,0,0-5.37,15.12L379.76,337.8V318.39a21.43,21.43,0,0,0,11.74-14.17c2.81-10.92-12.17-32.44-12.17-32.44s-15.59,22.15-12.47,33.38c2.64,9.51,9.74,12.52,11.86,13.22v42.09l-11.13-9.26c.26-2.22.46-9.16-5.72-16.11-7.49-8.42-27.45-7.8-27.45-7.8s8.42,16.85,15.59,22.46c6.27,4.91,14.92,2.91,17,2.32l11.7,9.75v12.8H361.33L368.42,419H389.7l7.1-44.34h-17v-8.46l10.89-6.11c2.65.73,10.06,2.25,17.07-1.25,8.73-4.37,15.91-13.73,15.91-13.73S402.73,339.78,394.62,349.14Z" style="fill:#fff;opacity:0.4"></path></g><g id="freepik--Character--inject-16"><path d="M172.06,163.43c.63,3.27-.86,6.31-3.33,6.79s-5-1.79-5.63-5.06.85-6.31,3.33-6.79S171.42,160.16,172.06,163.43Z" style="fill:#263238;stroke:#263238;stroke-linecap:round;stroke-linejoin:round"></path><path d="M148.26,174.86s-.49,7.17-.65,10.27a22.91,22.91,0,0,1-.49,4.24l8.48,5L159,182.68Z" style="fill:none;stroke:#263238;stroke-linecap:round;stroke-linejoin:round"></path><path d="M159,146a19.1,19.1,0,0,0-10.85-.33c-5.71,1.3-8.81,6.68-9.3,13.36s5.06,14.51,6.69,16.31,7.17,6.84,12.06,9.13,8-1,10.11-4.73,1.79-9.46,1.79-15.16c0-5.33-1.55-11-5.21-15A13.19,13.19,0,0,0,159,146Z" style="fill:#fff;stroke:#263238;stroke-linecap:round;stroke-linejoin:round"></path><path d="M164.56,165.89s.82,7.66.82,8.31-2.94-.16-2.94-.16" style="fill:none;stroke:#263238;stroke-linecap:round;stroke-linejoin:round"></path><path d="M155.43,170.62a5.63,5.63,0,0,0,5.22-1.47" style="fill:none;stroke:#263238;stroke-linecap:round;stroke-linejoin:round"></path><path d="M165.38,167.36s2.93.65,3.58-2.12" style="fill:none;stroke:#263238;stroke-linecap:round;stroke-linejoin:round"></path><path d="M154.62,166.87a4.08,4.08,0,0,1,4.24-3.91" style="fill:none;stroke:#263238;stroke-linecap:round;stroke-linejoin:round"></path><path d="M164.4,162.47a3.4,3.4,0,0,1,3.91-.82" style="fill:none;stroke:#263238;stroke-linecap:round;stroke-linejoin:round"></path><path d="M157.55,176.16s1,2.45,5.55,1.14" style="fill:none;stroke:#263238;stroke-linecap:round;stroke-linejoin:round"></path><circle cx="136.11" cy="150.81" r="10.52" style="fill:#263238;stroke:#263238;stroke-linecap:round;stroke-linejoin:round"></circle><path d="M164.24,149.57A13.19,13.19,0,0,0,159,146a19.1,19.1,0,0,0-10.85-.33c-5.71,1.3-8.81,6.68-9.3,13.36-.36,5,2.67,10.68,4.89,14a10.32,10.32,0,0,0,1.31-4.82c.49-5.7,1.14-13,4.08-14.18s7.33.65,10.27,0,1.14-2.77,4.4-2.77a7.9,7.9,0,0,1,2,.28A16.6,16.6,0,0,0,164.24,149.57Z" style="fill:#263238;stroke:#263238;stroke-linecap:round;stroke-linejoin:round"></path><path d="M133.1,141s-7.5,0-11.09,9.62" style="fill:none;stroke:#263238;stroke-linecap:round;stroke-linejoin:round"></path><path d="M150.05,169c1.81,2.79,1.56,6.17-.55,7.54s-5.3.21-7.11-2.58-1.56-6.18.55-7.55S148.24,166.19,150.05,169Z" style="fill:#263238;stroke:#263238;stroke-linecap:round;stroke-linejoin:round"></path><path d="M148.29,170.32c1.67,2.58,1.44,5.7-.51,7s-4.89.2-6.56-2.38-1.44-5.7.51-7S146.62,167.74,148.29,170.32Z" style="fill:#fff;stroke:#263238;stroke-linecap:round;stroke-linejoin:round"></path><path d="M142.94,166.4s-3-10.62,2.06-16.81S157.56,145,157.56,145" style="fill:none;stroke:#fff;stroke-linecap:round;stroke-linejoin:round"></path><path d="M136.36,377.82s2,32.28,2,34.89-1,4.89,2.28,5.71,7.33-1.14,10.11-.17,7.33.82,10.1.33,4.89-3.1,3.26-3.26-9.29-3.42-12.39-5.38-3.91-3.26-3.91-3.26l1-28.69Z" style="fill:#fff;stroke:#263238;stroke-linecap:round;stroke-linejoin:round"></path><path d="M164.07,415.32c-1.63-.16-9.29-3.42-12.39-5.38s-3.91-3.26-3.91-3.26-2.12,1.14-2,2.61a18.67,18.67,0,0,0,.49,2.61,24.69,24.69,0,0,1-8.06-1.26c0,1,.08,1.76.08,2.07,0,2.61-1,4.89,2.28,5.71s7.33-1.14,10.11-.17,7.33.82,10.1.33S165.7,415.48,164.07,415.32Z" style="fill:#263238;stroke:#263238;stroke-linecap:round;stroke-linejoin:round"></path><path d="M164.55,415.53a18.08,18.08,0,0,1-8.79,1.91c-2.45-.16-7-1.63-11.41-.65a10.53,10.53,0,0,1-6.12-.6c.15,1,.71,1.81,2.37,2.23,3.26.81,7.33-1.14,10.11-.17s7.33.82,10.1.33C163.19,418.16,165.07,416.19,164.55,415.53Z" style="fill:#fff;stroke:#263238;stroke-linecap:round;stroke-linejoin:round"></path><path d="M161,269.9s-.66,30.16-1.47,40.27-2.77,36.68-4.57,47.11a164.42,164.42,0,0,1-4.56,19.24,73.09,73.09,0,0,1-10.27,1,27.67,27.67,0,0,1-6.36-.49s-.65-8.15.16-13.37,2.61-21.84,1.8-30.48-.17-36.2-4.24-44.67-3.91-11.9-.82-13.86S161,269.9,161,269.9Z" style="fill:#263238;stroke:#263238;stroke-linecap:round;stroke-linejoin:round"></path><path d="M126.25,375.7l-15.16,16s-3.59,4.24-5.22,12.23-.49,11.74-1.79,12.06-2.45.17-4.89-5.54-3.59-8.64-3.42-12.88-.17-11.25.16-12.06,8.64-1.47,8.64-1.47l14.51-17.28Z" style="fill:#fff;stroke:#263238;stroke-linecap:round;stroke-linejoin:round"></path><path d="M105.06,390.54l-.8-6.5c-1.48.13-8,.72-8.33,1.45s0,7.82-.16,12.06,1,7.17,3.42,12.88,3.59,5.87,4.89,5.54.16-4.07,1.79-12.06,5.22-12.23,5.22-12.23l.08-.08a9.33,9.33,0,0,0-2.36-.57Z" style="fill:#263238;stroke:#263238;stroke-linecap:round;stroke-linejoin:round"></path><path d="M103.6,416.06a46.62,46.62,0,0,1-5.23-15.25,105,105,0,0,1-.72-15.95c-1,.19-1.63.4-1.72.63-.33.81,0,7.82-.16,12.06s1,7.17,3.42,12.88C101.33,415.43,102.47,416.17,103.6,416.06Z" style="fill:#fff;stroke:#263238;stroke-linecap:round;stroke-linejoin:round"></path><path d="M111.09,272.67s-3.1,9.62,0,17.45,22.82,47.27,22.82,47.27l1,2.78-15.32,23.31a20.25,20.25,0,0,0,4.56,7.82,42.56,42.56,0,0,0,4.57,4.4s20.21-23,25.75-29,4.41-14.19,3.27-18.43-16.8-50-16.8-50S121.2,278.7,111.09,272.67Z" style="fill:#263238;stroke:#263238;stroke-linecap:round;stroke-linejoin:round"></path><line x1="145.24" y1="292.36" x2="156.57" y2="326.35" style="fill:none;stroke:#fff;stroke-linecap:round;stroke-linejoin:round"></line><line x1="143.07" y1="285.85" x2="144.16" y2="289.13" style="fill:none;stroke:#fff;stroke-linecap:round;stroke-linejoin:round"></line><line x1="154.45" y1="346.69" x2="136.11" y2="368.06" style="fill:none;stroke:#fff;stroke-linecap:round;stroke-linejoin:round"></line><path d="M111.25,267.46s-2.77,4.4-1.14,7,12.72,6,22,6,29.18-6.36,29.67-9.95.33-5.38,0-5.87-3.59,4.9-24,5.06S111.25,267.46,111.25,267.46Z" style="fill:#FFC100;stroke:#263238;stroke-linecap:round;stroke-linejoin:round"></path><path d="M143.37,181.7s10.76,9.62,19.24,11.25l.16,7.67s9.29,3.91,9.29,5.54S173.37,237,173.37,243s-3.1,15.65-5.55,15a16,16,0,0,1-4.89-2.61s1.8,10.27-.32,12.55-8,4.57-22.83,6.69-23-.82-26.57-3.59-2.93-4.4-1.79-7.82,6.35-30,6.35-34.73-4.72-30.48-2.44-32.77,8.31-2.44,11.74-2.44,15.16-1,15.16-1Z" style="fill:#FFC100;stroke:#263238;stroke-linecap:round;stroke-linejoin:round"></path><path d="M162.91,244.4s0-17.8,1.75-24.51" style="fill:none;stroke:#263238;stroke-linecap:round;stroke-linejoin:round"></path><path d="M187.55,229.47a18.11,18.11,0,0,0-1.79-3.26c-1.15-1.63-4.08-.49-4.57,1.47S185.59,230.12,187.55,229.47Z" style="fill:#fff;stroke:#263238;stroke-linecap:round;stroke-linejoin:round"></path><path d="M190.81,218.87a29.07,29.07,0,0,0-2.61,4.41,50.44,50.44,0,0,1-4.4,6.68l-5.38-2.28a25.1,25.1,0,0,0,2.12-4.24,4.38,4.38,0,0,0-.49-2.77,48.81,48.81,0,0,0,6.68-1.31C188.53,218.71,189.83,217.57,190.81,218.87Z" style="fill:#fff;stroke:#263238;stroke-linecap:round;stroke-linejoin:round"></path><polygon points="184.13 198.01 173.69 221.81 186.08 221.81 197 198.5 184.13 198.01" style="fill:#fff;stroke:#263238;stroke-linecap:round;stroke-linejoin:round"></polygon><path d="M180.3,221.12s2.32,2.93,3.9,3.54,5-.86,5.5-5S180.3,221.12,180.3,221.12Z" style="fill:#fff;stroke:#263238;stroke-linecap:round;stroke-linejoin:round"></path><path d="M192.21,213.91s3.52-4.51,2.39-5.77-9.28-1.41-9.84,0,.84,1.69,2.25,1.83,3.65.14,3.65.14a4.86,4.86,0,0,1-.56,2.53s-3.38,0-7.31,0c-7.49.06-6.47,1.83-5.07,2.25a37.45,37.45,0,0,0,6.61.61,16.58,16.58,0,0,1,3.1.52s-7.12-.19-9.94.09-1,.47-1,.89-.06,1.55,2.74,1.8a18.22,18.22,0,0,0,2.74,0s-4.19.13-4.32,1.07,1.23,1.6,3.34,1.6,7.17.85,8.58-.56,1.83-2.11,1.83-3.94A6,6,0,0,1,192.21,213.91Z" style="fill:#fff;stroke:#263238;stroke-linecap:round;stroke-linejoin:round"></path><path d="M181.94,218.83a19.86,19.86,0,0,0,5.77.14" style="fill:#fff;stroke:#263238;stroke-linecap:round;stroke-linejoin:round"></path><path d="M178.75,226.05l-2.29,2.77s-4.72-.33-7.17,1.14-4.4,10.6-5.71,13.2-1,14.19.17,16,6.52,2.77,10.92-.49,10.76-14,11.25-18.42-.49-7.5-.33-8a26.31,26.31,0,0,1,2-2.77S182.17,229,178.75,226.05Z" style="fill:#FFC100;stroke:#263238;stroke-linecap:round;stroke-linejoin:round"></path><path d="M115.49,364s4.89,11.9,11.25,15l4.24-2.45s-3.91-5-6.36-9-4.4-7.17-4.4-7.17S116.14,362.34,115.49,364Z" style="fill:#fff;stroke:#263238;stroke-linecap:round;stroke-linejoin:round"></path><path d="M132.77,374.73l-.16,3.91s7.34,2.44,11.25,2.12S152.5,378,152.5,378l-.33-3.92A30,30,0,0,1,132.77,374.73Z" style="fill:#fff;stroke:#263238;stroke-linecap:round;stroke-linejoin:round"></path><path d="M148.78,175.68a99.14,99.14,0,0,1-.35,24.81c-1.94,13-4.4,31.67-1.06,39.06a37.27,37.27,0,0,0,9.15,12.14" style="fill:none;stroke:#263238;stroke-linecap:round;stroke-linejoin:round"></path><path d="M165,183.24s-1.76,14.26-3,23.41-5.46,42.93-5.46,49.09,4.23,9,8.1,9.32,9.68-10,11.79-20.93,3.34-19,3.34-19l1.23-3" style="fill:none;stroke:#263238;stroke-linecap:round;stroke-linejoin:round"></path><path d="M145.33,225.4a10.85,10.85,0,0,0,3.58-3.59c1.31-2.28,3.43-9.13,4.24-10.44s2-1.46,4.57-2.11a21.67,21.67,0,0,1,5.38-.66c.65,0,9.12,4.73,8.31,5.55s-1.47,1.46-2.77.49a27.9,27.9,0,0,0-4.89-2.29s.81,3.92,1.95,5.55.33,2.6-.65,3.58-1.14,2.94-2.93,2.45.16-2.61.32-3.59-4.24-1.3-4.24-1.3-1.46,5.87-3.42,7.17A16,16,0,0,1,149.4,228l-4.89,2.45Z" style="fill:#fff;stroke:#263238;stroke-linecap:round;stroke-linejoin:round"></path><line x1="165.7" y1="217.9" x2="158.37" y2="215.94" style="fill:none;stroke:#263238;stroke-linecap:round;stroke-linejoin:round"></line><line x1="164.56" y1="215.78" x2="158.04" y2="213.33" style="fill:none;stroke:#263238;stroke-linecap:round;stroke-linejoin:round"></line><line x1="163.75" y1="212.35" x2="157.23" y2="211.05" style="fill:none;stroke:#263238;stroke-linecap:round;stroke-linejoin:round"></line><polygon points="145.98 221.97 148.42 234.03 138.97 237.46 137.34 224.91 145.98 221.97" style="fill:#FFC100;stroke:#263238;stroke-linecap:round;stroke-linejoin:round"></polygon><path d="M137.34,224.91s-4.73-3.1-5.71-2.94-11.74,6.69-11.74,6.69,2.29-12.88,1-19.4-4.24-14.19-5.54-13.54-7,7.34-9.62,17.77-4.08,17.28-4.08,23.32,1.15,15.81,3.59,15.48,26.9-6.68,31.14-10.1,2.61-4.73,2.61-4.73Z" style="fill:#FFC100;stroke:#263238;stroke-linecap:round;stroke-linejoin:round"></path><path d="M104.24,233.87s12.07-5.87,15.65-5.21c0,0-5.38,3.42-7.17,5.86" style="fill:#FFC100;stroke:#263238;stroke-linecap:round;stroke-linejoin:round"></path><path d="M119.89,228.66s-4.4-7.67-8-10.27" style="fill:#FFC100;stroke:#263238;stroke-linecap:round;stroke-linejoin:round"></path></g><g id="freepik--Floor--inject-16"><line x1="67.49" y1="418.97" x2="445.72" y2="418.97" style="fill:none;stroke:#263238;stroke-linecap:round;stroke-linejoin:round"></line></g></svg>