<svg xmlns="http://www.w3.org/2000/svg" viewBox="0 0 750 500"><g id="freepik--background-complete--inject-17"><path d="M140.46,411.34c15-13.6,15.95-35.4,12.83-54.47-.52-3.19-.6-6.6-2.48-9.22s-5.68-4.07-8.37-2.35c-2.23,1.42-2.91,4.32-3.95,6.78a18.74,18.74,0,0,1-6.58,8.12c-1.9,1.32-4.33,2.29-6.49,1.44-3-1.16-3.77-4.93-4.16-8.12q-1.08-8.89-2.17-17.8c-.39-3.18-.8-6.43-2.18-9.32s-3.93-5.42-7.06-5.87-6.65,1.76-6.89,5a29.71,29.71,0,0,0,.42,4c.08,1.33-.35,2.87-1.55,3.4s-2.62-.2-3.69-1c-3.69-2.79-6.45-6.64-9.06-10.48s-5.18-7.8-8.61-10.92-7.91-5.37-12.49-5-9.09,3.76-9.66,8.39,2.62,8.84,5.94,12.11A71.57,71.57,0,0,0,80.85,338.1a5.88,5.88,0,0,1,2.82,2.34c1,2-.78,4.39-2.78,5.36-2.27,1.09-4.87,1.18-7.32,1.79s-5,2.05-5.62,4.52c-.89,3.41,2.27,6.47,5.23,8.36a61.68,61.68,0,0,0,19.34,8.08c2.45.55,5,1,7.11,2.39s3.61,4.11,2.75,6.5-3.68,3.48-6.19,3.34-4.88-1.19-7.32-1.77c-4.59-1.08-10.19-.06-12.51,4.08a10.13,10.13,0,0,0,.08,9,23.29,23.29,0,0,0,5.83,7.24,61.59,61.59,0,0,0,28.48,15c10.59,2.22,20.11,2,29.71-3" style="fill:#ebebeb"></path><path d="M142.54,425.51A141,141,0,0,0,134,400a285.23,285.23,0,0,0-15.26-29.23l-4.4-7.46c-1.44-2.44-2.88-4.86-4.43-7.15a144.87,144.87,0,0,0-9.66-12.61c-3.27-3.87-6.51-7.41-9.57-10.71s-6-6.3-8.75-8.93a114.3,114.3,0,0,0-14-11.44c-1.75-1.21-3.14-2.11-4.09-2.71l-1.09-.67a1.69,1.69,0,0,0-.38-.21,2.14,2.14,0,0,0,.35.26l1,.72c.93.63,2.3,1.56,4,2.81a120,120,0,0,1,13.84,11.55c2.74,2.64,5.63,5.66,8.67,9s6.27,6.86,9.51,10.72a145.23,145.23,0,0,1,9.6,12.59c1.54,2.27,3,4.68,4.41,7.13L118.2,371a296.35,296.35,0,0,1,15.28,29.15,144.19,144.19,0,0,1,8.66,25.42" style="fill:#e0e0e0"></path><path d="M109.71,356.12a7,7,0,0,0,.13-1.4c.06-.9.09-2.2.11-3.82,0-3.22,0-7.68-.17-12.59s-.15-9.36-.06-12.57c0-1.61.09-2.91.13-3.81a6.29,6.29,0,0,0,0-1.4,6.2,6.2,0,0,0-.23,1.38c-.11.9-.22,2.2-.32,3.81-.2,3.22-.23,7.68-.11,12.6s.25,9.24.35,12.59c0,1.51,0,2.78.07,3.81A6.85,6.85,0,0,0,109.71,356.12Z" style="fill:#e0e0e0"></path><path d="M67.83,353.74a9.05,9.05,0,0,0,1.65,0c1.07,0,2.6-.11,4.5-.13,3.8-.08,9,0,14.84.34s11,.88,14.78,1.38c1.89.24,3.41.47,4.46.62a8.94,8.94,0,0,0,1.65.19,8.78,8.78,0,0,0-1.61-.42c-1-.22-2.56-.52-4.44-.81-3.77-.6-9-1.21-14.81-1.56A143.8,143.8,0,0,0,74,353.17c-1.91.08-3.44.21-4.5.32A8.58,8.58,0,0,0,67.83,353.74Z" style="fill:#e0e0e0"></path><path d="M133.37,399.27a2.05,2.05,0,0,0,.22-.53c.13-.43.3-.94.51-1.57.43-1.37,1-3.36,1.69-5.83,1.38-4.94,3.05-11.82,4.8-19.44s3.36-14.51,4.63-19.47c.62-2.41,1.13-4.39,1.52-5.87l.4-1.6a2.37,2.37,0,0,0,.1-.57,2.57,2.57,0,0,0-.22.54c-.13.42-.3.94-.5,1.57-.44,1.36-1,3.35-1.7,5.82-1.37,4.94-3,11.82-4.8,19.44s-3.36,14.51-4.63,19.47l-1.51,5.87c-.17.64-.3,1.17-.41,1.6A2.45,2.45,0,0,0,133.37,399.27Z" style="fill:#e0e0e0"></path><path d="M76.77,388.75a2.3,2.3,0,0,0,.57.15l1.65.33,6.06,1.14c5.12,1,12.17,2.37,20,3.93s14.87,2.92,20,3.77c2.57.43,4.66.76,6.1.95l1.66.22a2.19,2.19,0,0,0,.59,0,2.3,2.3,0,0,0-.57-.15l-1.64-.32-6.06-1.14c-5.12-1-12.18-2.37-20-3.94s-14.87-2.91-20-3.77c-2.57-.43-4.65-.75-6.1-.95l-1.66-.21A2,2,0,0,0,76.77,388.75Z" style="fill:#e0e0e0"></path><circle cx="203.93" cy="166.76" r="4.01" transform="translate(-38.75 269.26) rotate(-62.17)" style="fill:#ebebeb"></circle><path d="M206.77,164.42c-.14.21-3.66-2.14-7.38-5.73s-6.65-6.5-6.52-6.67,3.44,2.45,7.13,6S206.91,164.22,206.77,164.42Z" style="fill:#ebebeb"></path><path d="M198.52,145.51c.23,0,.07,2.25-1.62,4.33s-3.85,2.72-3.9,2.49,1.71-1.15,3.21-3.05S198.26,145.45,198.52,145.51Z" style="fill:#ebebeb"></path><path d="M201.35,148.55c.24,0,.18,2.23-1.62,4.14s-4,2.15-4,1.91,1.81-.81,3.37-2.51S201.1,148.5,201.35,148.55Z" style="fill:#ebebeb"></path><path d="M660,92.58A4,4,0,1,1,659,87,4,4,0,0,1,660,92.58Z" style="fill:#ebebeb"></path><path d="M660.29,91.16c-.25,0-.45-4.22.24-9.34s1.28-9.21,1.5-9.21.06,4.22-.63,9.31S660.53,91.15,660.29,91.16Z" style="fill:#ebebeb"></path><path d="M670.62,73.29c.14.19-1.77,1.4-4.45,1.27s-4.47-1.48-4.32-1.66,1.94.69,4.36.78S670.52,73.05,670.62,73.29Z" style="fill:#ebebeb"></path><path d="M669.85,77.38c.16.18-1.69,1.47-4.29,1.15s-4.12-2-3.92-2.09,1.73,1,4,1.21S669.74,77.15,669.85,77.38Z" style="fill:#ebebeb"></path><circle cx="152.58" cy="288.23" r="6.24" transform="translate(-166.13 357.36) rotate(-74.34)" style="fill:#f5f5f5"></circle><path d="M158.31,288.09c-.37.11-2.43-6.14-3.55-14.11s-1.92-14.34-1.59-14.42,1.86,6.29,3,14.22S158.67,288,158.31,288.09Z" style="fill:#f5f5f5"></path><path d="M166.34,257c.28.22-2.08,2.84-6.14,3.75s-7.32-.35-7.17-.67,3.2.22,6.86-.66S166.08,256.67,166.34,257Z" style="fill:#f5f5f5"></path><path d="M166.89,263.44c.32.2-1.92,2.9-5.95,3.52s-7-1.22-6.75-1.51,3,.75,6.53.15S166.63,263.14,166.89,263.44Z" style="fill:#f5f5f5"></path><path d="M231.72,116.44a7.32,7.32,0,1,1,1.85-10.18A7.32,7.32,0,0,1,231.72,116.44Z" style="fill:#e0e0e0"></path><path d="M233.12,114.18c-.67-.22,1.43-7.7,5.79-16.09s8.1-14.89,8.71-14.64-2.1,7.49-6.44,15.79S233.78,114.4,233.12,114.18Z" style="fill:#e0e0e0"></path><path d="M266.21,98.16c0,.59-6.13.52-12.32-3.55a17.19,17.19,0,0,1-6.27-6.89c-1-2.25-.78-3.87-.48-3.88s.77,1.28,2.05,3a23.17,23.17,0,0,0,6.11,5.66C260.83,96.17,266.38,97.38,266.21,98.16Z" style="fill:#e0e0e0"></path><path d="M250.31,131.15A7.32,7.32,0,1,1,252.17,121,7.32,7.32,0,0,1,250.31,131.15Z" style="fill:#e0e0e0"></path><path d="M251.71,128.89c-.67-.22,1.43-7.7,5.8-16.09s8.09-14.89,8.7-14.64-2.09,7.49-6.44,15.79S252.38,129.11,251.71,128.89Z" style="fill:#e0e0e0"></path><path d="M264.12,102.7c.05.66-5.79,1-11.73-2.64s-8.44-8.85-7.83-9.12,3.76,3.78,9.14,7S264.19,102,264.12,102.7Z" style="fill:#e0e0e0"></path><path d="M686.49,166.33a7.32,7.32,0,1,0-1.85-10.18A7.32,7.32,0,0,0,686.49,166.33Z" style="fill:#e0e0e0"></path><path d="M685.09,164.07c.67-.21-1.43-7.69-5.79-16.08s-8.1-14.9-8.7-14.65,2.09,7.5,6.43,15.8S684.43,164.3,685.09,164.07Z" style="fill:#e0e0e0"></path><path d="M652,148.05c0,.6,6.13.52,12.32-3.54a17.19,17.19,0,0,0,6.27-6.89c1-2.25.78-3.88.48-3.89s-.76,1.28-2,3a23.49,23.49,0,0,1-6.11,5.66C657.38,146.07,651.83,147.27,652,148.05Z" style="fill:#e0e0e0"></path><path d="M667.9,181A7.32,7.32,0,1,0,666,170.86,7.32,7.32,0,0,0,667.9,181Z" style="fill:#e0e0e0"></path><path d="M666.5,178.78c.67-.21-1.43-7.69-5.8-16.08s-8.09-14.9-8.7-14.65,2.09,7.5,6.44,15.8S665.83,179,666.5,178.78Z" style="fill:#e0e0e0"></path><path d="M654.09,152.59c-.05.66,5.8,1,11.73-2.63s8.44-8.86,7.83-9.12c-.62-.41-3.76,3.77-9.14,6.94S654,151.85,654.09,152.59Z" style="fill:#e0e0e0"></path><path d="M223.64,225a5.45,5.45,0,1,1-4.23-6.45A5.44,5.44,0,0,1,223.64,225Z" style="fill:#e0e0e0"></path><path d="M223.24,223.1c-.48.23-3.19-4.89-5.15-11.65s-3.29-12.2-2.83-12.37,2.72,5.11,4.64,11.82S223.71,222.88,223.24,223.1Z" style="fill:#e0e0e0"></path><path d="M232.85,197.45c.29.33-3,3.43-8.47,4.42a12.78,12.78,0,0,1-6.92-.49c-1.72-.68-2.42-1.69-2.26-1.85s1.07.3,2.65.57a17.33,17.33,0,0,0,6.2-.09C228.93,199.14,232.54,196.94,232.85,197.45Z" style="fill:#e0e0e0"></path><path d="M241.23,223.41A5.45,5.45,0,1,1,237,217,5.45,5.45,0,0,1,241.23,223.41Z" style="fill:#e0e0e0"></path><path d="M240.83,221.47c-.48.23-3.19-4.88-5.15-11.65s-3.29-12.19-2.83-12.37,2.72,5.12,4.64,11.83S241.3,221.25,240.83,221.47Z" style="fill:#e0e0e0"></path><path d="M234.05,201c.37.33-2.62,3.5-7.68,4.61s-9.1-.44-8.91-.89,4,.1,8.5-.95S233.71,200.54,234.05,201Z" style="fill:#e0e0e0"></path><path d="M250.22,173.55a2.7,2.7,0,1,1,.88-3.71A2.7,2.7,0,0,1,250.22,173.55Z" style="fill:#e0e0e0"></path><path d="M250.78,172.74c-.24-.09.67-2.8,2.44-5.81s3.26-5.32,3.48-5.22-.91,2.72-2.67,5.69S251,172.84,250.78,172.74Z" style="fill:#e0e0e0"></path><path d="M263.27,167.48c0,.22-2.27.07-4.47-1.54a6.29,6.29,0,0,1-2.18-2.66c-.34-.84-.21-1.44-.1-1.44s.26.49.7,1.15a8.53,8.53,0,0,0,2.14,2.2C261.32,166.64,263.34,167.19,263.27,167.48Z" style="fill:#e0e0e0"></path><path d="M256.79,179.32a2.7,2.7,0,1,1,.87-3.72A2.71,2.71,0,0,1,256.79,179.32Z" style="fill:#e0e0e0"></path><path d="M257.35,178.51c-.25-.09.67-2.8,2.43-5.81s3.27-5.33,3.49-5.22-.92,2.72-2.67,5.69S257.58,178.61,257.35,178.51Z" style="fill:#e0e0e0"></path><path d="M262.41,169.11c0,.24-2.15.25-4.27-1.19s-2.93-3.42-2.71-3.51,1.32,1.46,3.24,2.73S262.45,168.84,262.41,169.11Z" style="fill:#e0e0e0"></path><polygon points="165.94 225.92 70.03 225.92 71.38 90.36 164.9 89.76 165.94 225.92" style="fill:#e0e0e0"></polygon><rect x="63.52" y="90.36" width="93.53" height="135.56" style="fill:#fff"></rect><path d="M157.8,226.68h-95V89.6h95Zm-93.52-1.52h92v-134h-92Z" style="fill:#e0e0e0"></path><rect x="75.14" y="105.04" width="70.29" height="106.2" style="fill:#fff"></rect><path d="M145.43,211.24s0-.19,0-.53,0-.86,0-1.51c0-1.35,0-3.31,0-5.84,0-5.11-.06-12.53-.1-21.89,0-18.73-.1-45.23-.18-76.43l.37.36-70.28,0h0l.39-.4c0,40.06,0,77-.08,106.2l-.31-.32,51.12.17,14.15.08,3.72,0,1.3,0-1.23,0-3.66,0-14.08.08-51.32.16h-.32v-.32c0-29.21,0-66.14-.08-106.2v-.39h.41l70.28,0h.36V105c-.07,31.3-.14,57.88-.18,76.67,0,9.32-.08,16.72-.1,21.81,0,2.49,0,4.43,0,5.76,0,.63,0,1.12,0,1.47S145.43,211.25,145.43,211.24Z" style="fill:#e0e0e0"></path><path d="M157.31,90.36c.16.13-2.26,3.6-5.52,7.68s-6.21,7.14-6.36,7,2.5-3.42,5.75-7.49S157.13,90.22,157.31,90.36Z" style="fill:#e0e0e0"></path><path d="M157.05,225.92c-.18.14-2.92-3-6.12-7.09s-5.68-7.46-5.5-7.59,2.91,3,6.12,7.1S157.22,225.79,157.05,225.92Z" style="fill:#e0e0e0"></path><path d="M63.51,225.81,75.76,210.7" style="fill:#fff"></path><path d="M75.76,210.7c.17.14-2.44,3.63-5.82,7.81s-6.27,7.44-6.44,7.3,2.44-3.63,5.82-7.8S75.59,210.56,75.76,210.7Z" style="fill:#e0e0e0"></path><path d="M63.52,90.36c.17-.14,2.88,3,6,7s5.61,7.38,5.44,7.51-2.88-3-6.05-7S63.35,90.49,63.52,90.36Z" style="fill:#e0e0e0"></path><path d="M110.28,119.69a26,26,0,1,0,26,26A26,26,0,0,0,110.28,119.69Zm0,32.88a6.85,6.85,0,1,1,6.85-6.85A6.85,6.85,0,0,1,110.28,152.57Z" style="fill:#ebebeb"></path><rect x="97.24" y="183.72" width="26.08" height="4.39" style="fill:#ebebeb"></rect></g><g id="freepik--Floor--inject-17"><path d="M701.28,416.87c0,.14-149.07.26-332.91.26S35.43,417,35.43,416.87s149-.26,332.94-.26S701.28,416.73,701.28,416.87Z" style="fill:#263238"></path></g><g id="freepik--screen-2--inject-17"><path d="M592.82,97.07H571.31a5.34,5.34,0,0,0-5.23,5.46v3.9a5.34,5.34,0,0,1-5.23,5.46l-41.94,0a5.35,5.35,0,0,1-5.22-5.47v-3.9A5.35,5.35,0,0,0,508.46,97h-26.4a16.93,16.93,0,0,0-16.94,16.93l-.05,271.57A16.94,16.94,0,0,0,482,402.45l110.76.06a16.92,16.92,0,0,0,16.94-16.92L609.75,114A17,17,0,0,0,592.82,97.07Z" style="fill:#f5f5f5"></path><path d="M592.82,97.07l.58,0a13.33,13.33,0,0,1,1.72.13,15.93,15.93,0,0,1,6.35,2.19,17,17,0,0,1,7.1,8.19,17.58,17.58,0,0,1,1.26,6.88c0,2.5,0,5.16,0,8,0,22.56,0,55.2.06,95.53s0,88.35,0,141.68V385a18.18,18.18,0,0,1-.65,5.18,17,17,0,0,1-2.17,4.77,18,18,0,0,1-3.53,3.92,17.18,17.18,0,0,1-9.79,3.8c-3.55.11-7.07,0-10.64.05H561.6l-44.26,0H483.28a17.89,17.89,0,0,1-11-3,17.3,17.3,0,0,1-6.72-9.28,18.61,18.61,0,0,1-.71-5.74v-5.7q0-11.4,0-22.65,0-22.47,0-44.26c0-29,0-57,0-83.68s0-52,0-75.72q0-17.79,0-34.32V114.2c0-.68.06-1.37.1-2s.17-1.36.35-2a17.21,17.21,0,0,1,3.56-7.18,17.52,17.52,0,0,1,6.29-4.7,17.72,17.72,0,0,1,7.53-1.43l14.76,0h10.58a5.42,5.42,0,0,1,5.41,3.67,8.89,8.89,0,0,1,.35,3.34c0,1.1-.06,2.23,0,3.26a5.34,5.34,0,0,0,1.26,2.83,5,5,0,0,0,2.58,1.6,15,15,0,0,0,3.08.16h6.12l22.32,0,9.85,0c.77,0,1.56,0,2.3,0a5,5,0,0,0,2.07-.73,5.36,5.36,0,0,0,2.37-3.4,9.48,9.48,0,0,0,.13-2.06c0-.68,0-1.36,0-2a10.9,10.9,0,0,1,.08-2,6.25,6.25,0,0,1,.64-1.82,5.46,5.46,0,0,1,2.71-2.39,8.74,8.74,0,0,1,3.37-.36l11,0,6.75,0,2.3,0-2.3,0-6.75,0-11,0a8.32,8.32,0,0,0-3.31.36,5.2,5.2,0,0,0-2.61,2.32,5.42,5.42,0,0,0-.61,1.76,10.43,10.43,0,0,0-.08,2v2a9.38,9.38,0,0,1-.13,2.1,5.6,5.6,0,0,1-2.46,3.54,5.1,5.1,0,0,1-2.16.77c-.78.07-1.54,0-2.32,0H519.26a6.18,6.18,0,0,1-1.59-.16,5.33,5.33,0,0,1-2.74-1.69,5.64,5.64,0,0,1-1.34-3c-.12-1.13,0-2.19-.06-3.31a8.94,8.94,0,0,0-.33-3.23,5.31,5.31,0,0,0-2-2.57,5.1,5.1,0,0,0-3.15-.87H482.75a17.57,17.57,0,0,0-7.38,1.4,17.28,17.28,0,0,0-6.14,4.6,16.87,16.87,0,0,0-3.48,7c-.17.65-.22,1.32-.34,2s-.08,1.33-.09,2v4.11q0,16.51,0,34.32c0,23.71,0,49.05,0,75.72V312q0,21.77,0,44.26v28.35a18.14,18.14,0,0,0,.69,5.59,16.8,16.8,0,0,0,6.51,9,17.44,17.44,0,0,0,10.75,3h34.06l44.26,0h21.56c3.55,0,7.12.06,10.61,0a16.7,16.7,0,0,0,9.51-3.68,18,18,0,0,0,3.43-3.81,16.6,16.6,0,0,0,2.1-4.64,17.43,17.43,0,0,0,.64-5v-5.13q0-10.25,0-20.24c0-53.33.06-101.35.08-141.68s.08-73,.1-95.53c0-2.82,0-5.48,0-8a17.27,17.27,0,0,0-1.24-6.82,16.94,16.94,0,0,0-7-8.16,16.21,16.21,0,0,0-6.31-2.23,12.14,12.14,0,0,0-1.71-.15Z" style="fill:#263238"></path><rect x="583.19" y="261.72" width="11.46" height="10.43" rx="4.56" style="fill:#FFC100"></rect><path d="M566.75,264.24a1.38,1.38,0,0,1-2.74,0,1.39,1.39,0,0,0-1,1.55,2.34,2.34,0,0,0,1,1.48,5,5,0,0,1,1.37,1.19,4.73,4.73,0,0,1,1.37-1.19,2.38,2.38,0,0,0,1-1.48A1.4,1.4,0,0,0,566.75,264.24Z" style="fill:#FFC100"></path><path d="M574.24,266.34a.63.63,0,1,1-.63-.63A.63.63,0,0,1,574.24,266.34Z" style="fill:#263238"></path><path d="M576.27,266.34a.63.63,0,1,1-.63-.63A.63.63,0,0,1,576.27,266.34Z" style="fill:#263238"></path><path d="M578.31,266.34a.63.63,0,1,1-.63-.63A.63.63,0,0,1,578.31,266.34Z" style="fill:#263238"></path><path d="M545.28,270.66c0,.14-9,.26-20.19.26s-20.19-.12-20.19-.26,9-.26,20.19-.26S545.28,270.52,545.28,270.66Z" style="fill:#263238"></path><path d="M522.56,274a145.69,145.69,0,0,1-17.4,0,145.69,145.69,0,0,1,17.4,0Z" style="fill:#263238"></path><path d="M489.88,258.87a8.42,8.42,0,1,0,8.42,8.42A8.42,8.42,0,0,0,489.88,258.87Zm0,10.64a2.22,2.22,0,1,1,2.21-2.22A2.21,2.21,0,0,1,489.88,269.51Z" style="fill:#FFC100"></path><path d="M593.33,194.65c0,.14-25.05.26-55.93.26s-55.94-.12-55.94-.26,25-.26,55.94-.26S593.33,194.5,593.33,194.65Z" style="fill:#263238"></path><path d="M593.33,224.39c0,.14-25.05.26-55.93.26s-55.94-.12-55.94-.26,25-.26,55.94-.26S593.33,224.24,593.33,224.39Z" style="fill:#263238"></path><path d="M593.33,254.13c0,.14-25.05.26-55.93.26s-55.94-.12-55.94-.26,25-.27,55.94-.27S593.33,254,593.33,254.13Z" style="fill:#263238"></path><path d="M593.33,283.86c0,.15-25.05.26-55.93.26s-55.94-.11-55.94-.26,25-.26,55.94-.26S593.33,283.72,593.33,283.86Z" style="fill:#263238"></path><path d="M593.33,313.6c0,.15-25.05.26-55.93.26s-55.94-.11-55.94-.26,25-.26,55.94-.26S593.33,313.46,593.33,313.6Z" style="fill:#263238"></path><path d="M593.33,343.34c0,.14-25.05.26-55.93.26s-55.94-.12-55.94-.26,25-.26,55.94-.26S593.33,343.2,593.33,343.34Z" style="fill:#e0e0e0"></path><path d="M557.47,171.86c0,.14-9.1.26-20.32.26s-20.32-.12-20.32-.26,9.1-.26,20.32-.26S557.47,171.72,557.47,171.86Z" style="fill:#263238"></path><rect x="504.75" y="265.23" width="31.67" height="1.55" style="fill:#FFC100"></rect><rect x="583.19" y="204.39" width="11.46" height="10.43" rx="4.56" style="fill:#455a64"></rect><path d="M489.88,201.22a8.42,8.42,0,1,0,8.42,8.42A8.42,8.42,0,0,0,489.88,201.22Zm0,10.64a2.22,2.22,0,1,1,2.21-2.22A2.21,2.21,0,0,1,489.88,211.86Z" style="fill:#455a64"></path><path d="M566.75,206.91a1.38,1.38,0,0,1-2.74,0,1.39,1.39,0,0,0-1,1.56,2.35,2.35,0,0,0,1,1.47,5.18,5.18,0,0,1,1.37,1.19,4.88,4.88,0,0,1,1.37-1.19,2.38,2.38,0,0,0,1-1.47A1.4,1.4,0,0,0,566.75,206.91Z" style="fill:#455a64"></path><path d="M574.24,209a.63.63,0,1,1-1.26,0,.63.63,0,1,1,1.26,0Z" style="fill:#263238"></path><path d="M576.27,209a.63.63,0,1,1-.63-.63A.63.63,0,0,1,576.27,209Z" style="fill:#263238"></path><path d="M578.31,209a.63.63,0,1,1-1.26,0,.63.63,0,1,1,1.26,0Z" style="fill:#263238"></path><path d="M588,207.88c0,.84,0,2.08,0,2.92a.46.46,0,0,0,.74.36l1.95-1.45a.47.47,0,0,0,0-.74l-2-1.45A.45.45,0,0,0,588,207.88Z" style="fill:#fff"></path><rect x="504.75" y="206.35" width="31.67" height="1.55" style="fill:#455a64"></rect><path d="M545.28,213.33c0,.15-9,.26-20.19.26s-20.19-.11-20.19-.26,9-.26,20.19-.26S545.28,213.19,545.28,213.33Z" style="fill:#263238"></path><path d="M522.56,216.64a145.69,145.69,0,0,1-17.4,0,145.69,145.69,0,0,1,17.4,0Z" style="fill:#263238"></path><rect x="583.19" y="292.88" width="11.46" height="10.43" rx="4.56" style="fill:#455a64"></rect><path d="M489.88,289.71a8.42,8.42,0,1,0,8.42,8.42A8.42,8.42,0,0,0,489.88,289.71Zm0,10.64a2.22,2.22,0,1,1,2.21-2.22A2.21,2.21,0,0,1,489.88,300.35Z" style="fill:#455a64"></path><path d="M566.75,295.4a1.38,1.38,0,0,1-2.74,0,1.39,1.39,0,0,0-1,1.56,2.35,2.35,0,0,0,1,1.47,5.18,5.18,0,0,1,1.37,1.19,4.88,4.88,0,0,1,1.37-1.19,2.38,2.38,0,0,0,1-1.47A1.4,1.4,0,0,0,566.75,295.4Z" style="fill:#455a64"></path><path d="M574.24,297.5a.63.63,0,1,1-1.26,0,.63.63,0,1,1,1.26,0Z" style="fill:#263238"></path><path d="M576.27,297.5a.63.63,0,1,1-.63-.63A.63.63,0,0,1,576.27,297.5Z" style="fill:#263238"></path><path d="M578.31,297.5a.63.63,0,1,1-1.26,0,.63.63,0,1,1,1.26,0Z" style="fill:#263238"></path><path d="M588,296.37c0,.84,0,2.08,0,2.92a.46.46,0,0,0,.74.36l1.95-1.45a.46.46,0,0,0,0-.73l-2-1.46A.45.45,0,0,0,588,296.37Z" style="fill:#fff"></path><rect x="504.75" y="294.84" width="31.67" height="1.55" style="fill:#455a64"></rect><path d="M545.28,301.82c0,.15-9,.26-20.19.26s-20.19-.11-20.19-.26,9-.26,20.19-.26S545.28,301.68,545.28,301.82Z" style="fill:#263238"></path><path d="M522.56,305.13a145.69,145.69,0,0,1-17.4,0,145.69,145.69,0,0,1,17.4,0Z" style="fill:#263238"></path><rect x="583.19" y="323.42" width="11.46" height="10.43" rx="4.56" style="fill:#e0e0e0"></rect><path d="M489.88,320.26a8.42,8.42,0,1,0,8.42,8.42A8.42,8.42,0,0,0,489.88,320.26Zm0,10.63a2.21,2.21,0,1,1,2.21-2.21A2.21,2.21,0,0,1,489.88,330.89Z" style="fill:#e0e0e0"></path><path d="M566.75,325.94a1.38,1.38,0,0,1-2.74,0,1.4,1.4,0,0,0-1,1.56,2.29,2.29,0,0,0,1,1.47,5.37,5.37,0,0,1,1.37,1.19,5,5,0,0,1,1.37-1.19,2.33,2.33,0,0,0,1-1.47A1.41,1.41,0,0,0,566.75,325.94Z" style="fill:#e0e0e0"></path><path d="M574.24,328.05a.63.63,0,1,1-.63-.63A.63.63,0,0,1,574.24,328.05Z" style="fill:#e0e0e0"></path><path d="M576.27,328.05a.63.63,0,1,1-.63-.63A.63.63,0,0,1,576.27,328.05Z" style="fill:#e0e0e0"></path><path d="M578.31,328.05a.63.63,0,1,1-.63-.63A.63.63,0,0,1,578.31,328.05Z" style="fill:#e0e0e0"></path><path d="M588,326.92c0,.83,0,2.08,0,2.91a.47.47,0,0,0,.74.37l1.95-1.45a.47.47,0,0,0,0-.74l-2-1.46A.46.46,0,0,0,588,326.92Z" style="fill:#fff"></path><rect x="504.75" y="325.38" width="31.67" height="1.55" style="fill:#e0e0e0"></rect><path d="M545.28,332.37c0,.14-9,.26-20.19.26s-20.19-.12-20.19-.26,9-.26,20.19-.26S545.28,332.22,545.28,332.37Z" style="fill:#e0e0e0"></path><path d="M522.56,335.68a145.69,145.69,0,0,1-17.4,0,145.69,145.69,0,0,1,17.4,0Z" style="fill:#e0e0e0"></path><path d="M593.33,373.43c0,.14-25.05.26-55.93.26s-55.94-.12-55.94-.26,25-.26,55.94-.26S593.33,373.28,593.33,373.43Z" style="fill:#e0e0e0"></path><rect x="583.19" y="353.51" width="11.46" height="10.43" rx="4.56" style="fill:#e0e0e0"></rect><path d="M489.88,350.35a8.42,8.42,0,1,0,8.42,8.42A8.42,8.42,0,0,0,489.88,350.35Zm0,10.63a2.22,2.22,0,1,1,2.21-2.21A2.21,2.21,0,0,1,489.88,361Z" style="fill:#e0e0e0"></path><path d="M566.75,356a1.38,1.38,0,0,1-2.74,0,1.4,1.4,0,0,0-1,1.56,2.29,2.29,0,0,0,1,1.47,5.37,5.37,0,0,1,1.37,1.19,5,5,0,0,1,1.37-1.19,2.33,2.33,0,0,0,1-1.47A1.41,1.41,0,0,0,566.75,356Z" style="fill:#e0e0e0"></path><path d="M574.24,358.14a.63.63,0,0,1-1.26,0,.63.63,0,0,1,1.26,0Z" style="fill:#e0e0e0"></path><path d="M576.27,358.14a.63.63,0,1,1-1.25,0,.63.63,0,1,1,1.25,0Z" style="fill:#e0e0e0"></path><path d="M578.31,358.14a.63.63,0,0,1-1.26,0,.63.63,0,0,1,1.26,0Z" style="fill:#e0e0e0"></path><path d="M588,357c0,.84,0,2.08,0,2.92a.46.46,0,0,0,.74.36l1.95-1.44a.47.47,0,0,0,0-.74l-2-1.46A.46.46,0,0,0,588,357Z" style="fill:#fff"></path><rect x="504.75" y="355.47" width="31.67" height="1.55" style="fill:#e0e0e0"></rect><path d="M545.28,362.45c0,.15-9,.27-20.19.27s-20.19-.12-20.19-.27,9-.26,20.19-.26S545.28,362.31,545.28,362.45Z" style="fill:#e0e0e0"></path><path d="M522.56,365.76a145.69,145.69,0,0,1-17.4,0,145.69,145.69,0,0,1,17.4,0Z" style="fill:#e0e0e0"></path><rect x="583.19" y="233.22" width="11.46" height="10.43" rx="4.56" style="fill:#455a64"></rect><path d="M489.88,230.06a8.42,8.42,0,1,0,8.42,8.42A8.42,8.42,0,0,0,489.88,230.06Zm0,10.63a2.21,2.21,0,1,1,2.21-2.21A2.21,2.21,0,0,1,489.88,240.69Z" style="fill:#455a64"></path><path d="M566.75,235.74a.75.75,0,0,1,.42.13,1.5,1.5,0,0,1,.68,1,1.86,1.86,0,0,1-.68,1.68c-.51.49-1.26.81-1.71,1.48l-.08.13-.09-.13a6.09,6.09,0,0,0-1.51-1.29,2.31,2.31,0,0,1-.93-1.42,1.6,1.6,0,0,1,.63-1.45,1.15,1.15,0,0,1,1.38,0,1.52,1.52,0,0,1,.59,1h-.14a1.41,1.41,0,0,1,.9-1.17.82.82,0,0,1,.54,0,2.33,2.33,0,0,0-.52.11,1.35,1.35,0,0,0-.78,1.11h-.14a1.33,1.33,0,0,0-.55-.92,1,1,0,0,0-1.17,0,1.36,1.36,0,0,0-.53,1.26,2.08,2.08,0,0,0,.85,1.29,6.07,6.07,0,0,1,1.55,1.34h-.17a9.58,9.58,0,0,1,1.76-1.5,1.7,1.7,0,0,0,.67-1.53,1.4,1.4,0,0,0-.59-.95A2.56,2.56,0,0,0,566.75,235.74Z" style="fill:#263238"></path><path d="M574.24,237.85a.63.63,0,1,1-.63-.63A.63.63,0,0,1,574.24,237.85Z" style="fill:#263238"></path><path d="M576.27,237.85a.63.63,0,1,1-.63-.63A.63.63,0,0,1,576.27,237.85Z" style="fill:#263238"></path><path d="M578.31,237.85a.63.63,0,1,1-.63-.63A.63.63,0,0,1,578.31,237.85Z" style="fill:#263238"></path><path d="M588,236.72c0,.83,0,2.08,0,2.91a.47.47,0,0,0,.74.37l1.95-1.45a.47.47,0,0,0,0-.74l-2-1.46A.46.46,0,0,0,588,236.72Z" style="fill:#fff"></path><rect x="504.75" y="235.18" width="31.67" height="1.55" style="fill:#455a64"></rect><path d="M545.28,242.17c0,.14-9,.26-20.19.26s-20.19-.12-20.19-.26,9-.26,20.19-.26S545.28,242,545.28,242.17Z" style="fill:#263238"></path><path d="M522.56,245.48a145.69,145.69,0,0,1-17.4,0,145.69,145.69,0,0,1,17.4,0Z" style="fill:#263238"></path><rect x="587.63" y="264.48" width="1.02" height="4.97" style="fill:#fff"></rect><rect x="589.73" y="264.48" width="1.02" height="4.97" style="fill:#fff"></rect><rect x="510.74" y="158.14" width="53.09" height="3.75" style="fill:#FFC100"></rect><path d="M529.76,131.78V127.6l-2.07,3.46h-.52l-2.07-3.4v4.12H524v-6.3h1l2.5,4.17,2.46-4.17h1v6.3Z" style="fill:#263238"></path><path d="M537.12,127v4.81h-1.07v-.61a2,2,0,0,1-1.55.67,1.89,1.89,0,0,1-2.07-2.12V127h1.12v2.59c0,.88.42,1.29,1.13,1.29s1.31-.48,1.31-1.45V127Z" style="fill:#263238"></path><path d="M538,131.3l.44-.85a3.21,3.21,0,0,0,1.67.47c.71,0,1-.19,1-.53,0-.92-3,0-3-2,0-.91.82-1.5,2.11-1.5a3.83,3.83,0,0,1,1.8.41l-.43.86a2.64,2.64,0,0,0-1.38-.36c-.68,0-1,.22-1,.54,0,1,3,.1,3,2,0,.9-.83,1.48-2.18,1.48A3.83,3.83,0,0,1,538,131.3Z" style="fill:#263238"></path><path d="M543.08,125.5a.68.68,0,0,1,.72-.67.67.67,0,0,1,.72.65.69.69,0,0,1-.72.7A.68.68,0,0,1,543.08,125.5Zm.15,1.47h1.13v4.81h-1.13Z" style="fill:#263238"></path><path d="M545.44,129.38a2.43,2.43,0,0,1,2.6-2.46,2.18,2.18,0,0,1,2.05,1.11l-.86.51a1.37,1.37,0,0,0-1.2-.67,1.51,1.51,0,0,0,0,3,1.37,1.37,0,0,0,1.2-.67l.86.51a2.19,2.19,0,0,1-2.05,1.12A2.43,2.43,0,0,1,545.44,129.38Z" style="fill:#263238"></path><path d="M521.2,137v4.51h-.27l-3.08-3.92v3.92h-.33V137h.28l3.07,3.92V137Z" style="fill:#263238"></path><path d="M522.31,139.81a1.68,1.68,0,1,1,1.68,1.71A1.64,1.64,0,0,1,522.31,139.81Zm3,0a1.36,1.36,0,1,0-1.36,1.42A1.34,1.34,0,0,0,525.35,139.81Z" style="fill:#263238"></path><path d="M531.4,138.12l-1.28,3.37h-.31l-1.13-2.92-1.14,2.92h-.3L526,138.12h.31l1.12,3,1.15-3h.28l1.14,3,1.14-3Z" style="fill:#263238"></path><path d="M537.16,139.81a1.63,1.63,0,0,1-1.66,1.71,1.51,1.51,0,0,1-1.37-.79v2h-.32v-4.63h.3v.8a1.52,1.52,0,0,1,1.39-.82A1.63,1.63,0,0,1,537.16,139.81Zm-.32,0a1.36,1.36,0,1,0-1.36,1.42A1.34,1.34,0,0,0,536.84,139.81Z" style="fill:#263238"></path><path d="M538.16,136.7h.33v4.79h-.33Z" style="fill:#263238"></path><path d="M542.28,139.36v2.13H542v-.6a1.28,1.28,0,0,1-1.21.63c-.76,0-1.21-.39-1.21-1s.32-.94,1.25-.94H542v-.28a.88.88,0,0,0-1-1,1.73,1.73,0,0,0-1.16.43l-.16-.23a2,2,0,0,1,1.34-.48A1.14,1.14,0,0,1,542.28,139.36ZM542,140.5v-.63h-1.15c-.7,0-.94.29-.94.68s.34.71.93.71A1.16,1.16,0,0,0,542,140.5Z" style="fill:#263238"></path><path d="M546.25,138.12,544.52,142c-.27.62-.6.82-1,.82a1.07,1.07,0,0,1-.78-.3l.16-.25a.85.85,0,0,0,.63.27c.31,0,.53-.14.74-.6l.18-.41-1.52-3.36h.35l1.34,3,1.35-3Z" style="fill:#263238"></path><path d="M546.86,137.05a.26.26,0,1,1,.26.26A.26.26,0,0,1,546.86,137.05Zm.1,1.07h.32v3.37H547Z" style="fill:#263238"></path><path d="M551.66,139.53v2h-.32v-1.94a1,1,0,0,0-1.1-1.16A1.2,1.2,0,0,0,549,139.7v1.79h-.33v-3.37H549v.73a1.4,1.4,0,0,1,1.34-.75A1.28,1.28,0,0,1,551.66,139.53Z" style="fill:#263238"></path><path d="M556,138.12v3a1.43,1.43,0,0,1-1.63,1.64,2.24,2.24,0,0,1-1.55-.53L553,142a2,2,0,0,0,1.36.49c.9,0,1.32-.41,1.32-1.31v-.57a1.57,1.57,0,0,1-1.4.77,1.64,1.64,0,1,1,0-3.27,1.53,1.53,0,0,1,1.41.79v-.77Zm-.32,1.61a1.38,1.38,0,1,0-1.38,1.35A1.31,1.31,0,0,0,555.71,139.73Z" style="fill:#263238"></path><path d="M488.08,133.67a44.85,44.85,0,0,1-5.45-4.07v-.4h0l0,0,.07,0,.13-.11.27-.22.53-.42,1-.79,1.71-1.31a7.75,7.75,0,0,1,1.67-1.11,7.85,7.85,0,0,1-1.43,1.4l-1.65,1.4-1,.81-.52.42-.27.22-.14.11-.06.06,0,0v0h0v-.4A42.73,42.73,0,0,1,488.08,133.67Z" style="fill:#263238"></path><path d="M590.05,125.13a44.85,44.85,0,0,1,5.45,4.07v.4h0l0,0-.07.05-.13.11L595,130l-.53.42-1,.79-1.71,1.31a8.27,8.27,0,0,1-1.67,1.11,7.85,7.85,0,0,1,1.43-1.4l1.65-1.4,1-.81.52-.43.27-.21.14-.11.06-.06,0,0h0v.4A44.84,44.84,0,0,1,590.05,125.13Z" style="fill:#263238"></path></g><g id="freepik--screen-1--inject-17"><path d="M439,37.58H417.49A5.34,5.34,0,0,0,412.27,43v3.9A5.34,5.34,0,0,1,407,52.39l-41.94,0a5.34,5.34,0,0,1-5.23-5.46V43a5.35,5.35,0,0,0-5.22-5.47h-26.4a16.92,16.92,0,0,0-16.94,16.92L311.25,326A17,17,0,0,0,328.18,343l110.76.06a16.93,16.93,0,0,0,16.94-16.93l.05-271.58A16.93,16.93,0,0,0,439,37.58Z" style="fill:#f5f5f5"></path><path d="M439,37.58l.58,0a11.91,11.91,0,0,1,1.72.13,15.82,15.82,0,0,1,6.35,2.19,17.06,17.06,0,0,1,7.09,8.19A17.53,17.53,0,0,1,456,55c0,2.5,0,5.16,0,8,0,22.57,0,55.21.06,95.53s0,88.36,0,141.69v25.37a18.11,18.11,0,0,1-.65,5.17,16.89,16.89,0,0,1-2.16,4.78,18.53,18.53,0,0,1-3.53,3.92,17.2,17.2,0,0,1-9.79,3.8c-3.56.1-7.08,0-10.64,0H407.78l-44.25,0-22.64,0H329.46a18,18,0,0,1-11-3.05,17.43,17.43,0,0,1-6.72-9.28,18.68,18.68,0,0,1-.71-5.74c0-1.9,0-3.81,0-5.71V296.8q0-22.49,0-44.26c0-29,0-57,0-83.69s0-52,0-75.72c0-11.85,0-23.31,0-34.31V54.71c0-.68.06-1.37.09-2.06s.18-1.36.35-2a17.35,17.35,0,0,1,3.57-7.18,17.57,17.57,0,0,1,6.28-4.69,17.77,17.77,0,0,1,7.53-1.43l14.76,0h10.58a5.36,5.36,0,0,1,3.34.94A5.59,5.59,0,0,1,359.69,41a9.14,9.14,0,0,1,.34,3.35c0,1.09,0,2.22.05,3.26a5.35,5.35,0,0,0,1.27,2.83,5,5,0,0,0,2.58,1.6,14.31,14.31,0,0,0,3.08.15h6.11l22.33,0h9.84c.78,0,1.57,0,2.31,0a4.94,4.94,0,0,0,2.06-.73A5.32,5.32,0,0,0,412,48.11a9.35,9.35,0,0,0,.14-2V44a11.77,11.77,0,0,1,.09-2,5.72,5.72,0,0,1,.64-1.82,5.33,5.33,0,0,1,2.71-2.39,8.48,8.48,0,0,1,3.36-.36l11,0,6.76,0,2.3,0-2.3,0-6.76,0-11,0a8.27,8.27,0,0,0-3.3.35,5.18,5.18,0,0,0-2.61,2.33,5.59,5.59,0,0,0-.62,1.76,12.39,12.39,0,0,0-.08,1.94v2a9.38,9.38,0,0,1-.13,2.1,5.55,5.55,0,0,1-2.45,3.54,5.13,5.13,0,0,1-2.16.76c-.79.07-1.54,0-2.33,0H365.45a6.21,6.21,0,0,1-1.6-.16,5.28,5.28,0,0,1-2.74-1.7,5.57,5.57,0,0,1-1.34-3c-.11-1.12,0-2.19-.06-3.3a8.78,8.78,0,0,0-.33-3.24,5.31,5.31,0,0,0-1.95-2.56,5.08,5.08,0,0,0-3.16-.87H328.93a17.45,17.45,0,0,0-7.38,1.4,16.73,16.73,0,0,0-9.62,11.62c-.17.65-.22,1.32-.33,2s-.08,1.33-.09,2v4.11c0,11,0,22.46,0,34.31,0,23.72,0,49.06,0,75.73s0,54.66,0,83.68v66.9c0,1.9,0,3.81,0,5.71a18.44,18.44,0,0,0,.69,5.59,16.87,16.87,0,0,0,6.52,9,17.39,17.39,0,0,0,10.74,3h11.43l22.64,0,44.25,0h21.57c3.55,0,7.12.06,10.61,0a16.64,16.64,0,0,0,9.5-3.69,17.69,17.69,0,0,0,3.43-3.8,16.63,16.63,0,0,0,2.11-4.64,17.82,17.82,0,0,0,.63-5v-5.13q0-10.25,0-20.24c0-53.33.06-101.35.09-141.69s.07-73,.1-95.53c0-2.82,0-5.48,0-8a17.52,17.52,0,0,0-1.23-6.82,17.06,17.06,0,0,0-7-8.15,16.15,16.15,0,0,0-6.31-2.23,14.71,14.71,0,0,0-1.71-.16Z" style="fill:#263238"></path><path d="M376.63,71.17V67l-2.07,3.46H374L372,67v4.13h-1.12V64.86h1L374.31,69l2.45-4.18h1v6.31Z" style="fill:#263238"></path><path d="M384,66.36v4.81h-1.07v-.62a1.94,1.94,0,0,1-1.55.68,1.91,1.91,0,0,1-2.07-2.13V66.36h1.13V69c0,.88.41,1.29,1.12,1.29a1.27,1.27,0,0,0,1.32-1.45V66.36Z" style="fill:#263238"></path><path d="M384.91,70.69l.43-.86a3.25,3.25,0,0,0,1.68.48c.71,0,1-.2,1-.53,0-.92-3,0-3-2,0-.91.81-1.5,2.11-1.5a3.83,3.83,0,0,1,1.8.41l-.43.85a2.64,2.64,0,0,0-1.38-.36c-.68,0-1,.23-1,.54,0,1,3,.11,3,2,0,.9-.82,1.49-2.17,1.49A3.8,3.8,0,0,1,384.91,70.69Z" style="fill:#263238"></path><path d="M389.94,64.89a.68.68,0,0,1,.72-.67.67.67,0,0,1,.72.64.72.72,0,0,1-1.44,0Zm.16,1.47h1.12v4.81H390.1Z" style="fill:#263238"></path><path d="M392.3,68.76a2.43,2.43,0,0,1,2.6-2.45A2.17,2.17,0,0,1,397,67.42l-.87.51a1.36,1.36,0,0,0-1.19-.67,1.51,1.51,0,0,0,0,3,1.36,1.36,0,0,0,1.19-.67l.87.5a2.2,2.2,0,0,1-2.06,1.13A2.44,2.44,0,0,1,392.3,68.76Z" style="fill:#263238"></path><path d="M368.07,76.36v4.52h-.27L364.72,77v3.92h-.33V76.36h.28l3.07,3.93V76.36Z" style="fill:#263238"></path><path d="M369.17,79.2a1.69,1.69,0,1,1,1.69,1.71A1.64,1.64,0,0,1,369.17,79.2Zm3,0a1.36,1.36,0,1,0-1.35,1.42A1.33,1.33,0,0,0,372.21,79.2Z" style="fill:#263238"></path><path d="M378.26,77.51,377,80.88h-.31L375.55,78l-1.15,2.92h-.29l-1.28-3.37h.31l1.12,3,1.15-3h.28l1.14,3,1.14-3Z" style="fill:#263238"></path><path d="M384,79.2a1.63,1.63,0,0,1-1.67,1.71,1.49,1.49,0,0,1-1.36-.8v2h-.33V77.51H381v.8a1.51,1.51,0,0,1,1.38-.82A1.63,1.63,0,0,1,384,79.2Zm-.32,0a1.36,1.36,0,1,0-1.37,1.42A1.34,1.34,0,0,0,383.71,79.2Z" style="fill:#263238"></path><path d="M385,76.09h.33v4.79H385Z" style="fill:#263238"></path><path d="M389.15,78.74v2.14h-.31v-.6a1.29,1.29,0,0,1-1.21.63c-.76,0-1.22-.39-1.22-1s.33-1,1.26-1h1.16v-.27a.88.88,0,0,0-1-1,1.68,1.68,0,0,0-1.16.43L386.5,78a2.1,2.1,0,0,1,1.35-.47A1.14,1.14,0,0,1,389.15,78.74Zm-.32,1.15v-.64h-1.15c-.7,0-.94.3-.94.68s.34.71.93.71A1.17,1.17,0,0,0,388.83,79.89Z" style="fill:#263238"></path><path d="M393.12,77.51l-1.73,3.83c-.27.62-.61.82-1.05.82a1.07,1.07,0,0,1-.78-.3l.16-.25a.82.82,0,0,0,.63.27c.31,0,.53-.15.74-.61l.18-.4-1.52-3.36h.34l1.35,3,1.35-3Z" style="fill:#263238"></path><path d="M393.72,76.43a.27.27,0,0,1,.27-.26.26.26,0,0,1,.26.26.25.25,0,0,1-.26.26A.26.26,0,0,1,393.72,76.43Zm.11,1.08h.32v3.37h-.32Z" style="fill:#263238"></path><path d="M398.53,78.91v2h-.33V78.94a1,1,0,0,0-1.09-1.16,1.21,1.21,0,0,0-1.28,1.31v1.79h-.32V77.51h.31v.73a1.4,1.4,0,0,1,1.34-.75A1.28,1.28,0,0,1,398.53,78.91Z" style="fill:#263238"></path><path d="M402.9,77.51v3a1.44,1.44,0,0,1-1.64,1.64,2.19,2.19,0,0,1-1.54-.54l.18-.24a2,2,0,0,0,1.36.49,1.14,1.14,0,0,0,1.31-1.31V80a1.54,1.54,0,0,1-1.4.77,1.64,1.64,0,1,1,0-3.27,1.55,1.55,0,0,1,1.42.78v-.76Zm-.32,1.61a1.38,1.38,0,0,0-2.76,0,1.38,1.38,0,0,0,2.76,0Z" style="fill:#263238"></path><rect x="351.8" y="194.21" width="63.58" height="4.46" style="fill:#263238"></rect><path d="M437,254.32s.2,0,.58-.08a3.19,3.19,0,0,0,1.51-.78,3.57,3.57,0,0,0-.76-5.57,3,3,0,0,0-1-.28c-.36,0-.77,0-1.17,0h-2.54l-5.75,0-14,0-81.25.08a2.91,2.91,0,0,0-2.34,1.18,3.5,3.5,0,0,0-.55,2.62,3,3,0,0,0,1.46,2.14,2.86,2.86,0,0,0,1.28.36c.46,0,1,0,1.44,0h11.41l21.57,0,36.53,0,24.63.09,6.7.05,1.74,0,.59,0-.59,0-1.74,0-6.7,0-24.63.08-36.53.06h-33c-.49,0-1,0-1.47,0a3.46,3.46,0,0,1-1.5-.43,3.4,3.4,0,0,1-1.72-2.52,6.19,6.19,0,0,1,0-1.55,3.37,3.37,0,0,1,.63-1.45,3.41,3.41,0,0,1,2.76-1.39l81.25.07,14,0,5.75,0h2.54c.41,0,.79,0,1.19,0a3.66,3.66,0,0,1,1.11.32,3.32,3.32,0,0,1,1.83,3.25,3.23,3.23,0,0,1-1.09,2.57,3.08,3.08,0,0,1-1.57.76A2.19,2.19,0,0,1,437,254.32Z" style="fill:#263238"></path><rect x="330.67" y="248.41" width="53.4" height="4.99" rx="2.32" style="fill:#FFC100"></rect><circle cx="385.91" cy="285.6" r="13.25" transform="translate(63.98 641.77) rotate(-84.39)" style="fill:#FFC100"></circle><path d="M384.65,289.19l5.06-2.83a.68.68,0,0,0,0-1.18l-5.06-3.3a.71.71,0,0,0-1.1.6v6.08A.72.72,0,0,0,384.65,289.19Z" style="fill:#fafafa"></path><path d="M342.59,289.32c-.29,0-.52-1.76-.52-3.94s.23-3.94.52-3.94.52,1.76.52,3.94S342.88,289.32,342.59,289.32Z" style="fill:#FFC100"></path><path d="M351.41,281.9l-5.11,2.73a.69.69,0,0,0-.07,1.18l5,3.39a.71.71,0,0,0,1.11-.58l.12-6.08A.71.71,0,0,0,351.41,281.9Z" style="fill:#FFC100"></path><path d="M425.86,281.44c.29,0,.53,1.76.53,3.94s-.24,3.94-.53,3.94-.52-1.76-.52-3.94S425.58,281.44,425.86,281.44Z" style="fill:#FFC100"></path><path d="M417,288.86l5.12-2.73a.69.69,0,0,0,.06-1.18l-5-3.39a.71.71,0,0,0-1.11.58l-.11,6.08A.7.7,0,0,0,417,288.86Z" style="fill:#FFC100"></path><path d="M383.59,95.34a41.13,41.13,0,1,0,41.13,41.13A41.14,41.14,0,0,0,383.59,95.34Zm0,51.94a10.81,10.81,0,1,1,10.81-10.81A10.81,10.81,0,0,1,383.59,147.28Z" style="fill:#FFC100"></path><path d="M383.59,147.28a23.28,23.28,0,0,0,2.62-.43A10.82,10.82,0,0,0,392,142.9a10.49,10.49,0,0,0,2-4.47,10.71,10.71,0,0,0-.48-5.56,10,10,0,0,0-1.44-2.67,9.92,9.92,0,0,0-2.25-2.23,10.52,10.52,0,0,0-12.48,0,10.72,10.72,0,0,0-3.69,4.9,10.6,10.6,0,0,0-.47,5.56,10.44,10.44,0,0,0,2,4.47,10.79,10.79,0,0,0,5.83,3.95,23.78,23.78,0,0,0,2.61.43,8.12,8.12,0,0,1-2.66-.24,10.74,10.74,0,0,1-6.08-3.91,11,11,0,0,1-1.64-10.42,10.61,10.61,0,0,1,1.5-2.81,10.19,10.19,0,0,1,2.34-2.34,11,11,0,0,1,13.08,0,10.44,10.44,0,0,1,2.35,2.34,11.07,11.07,0,0,1,1.94,8.61,10.91,10.91,0,0,1-8.16,8.53A8.18,8.18,0,0,1,383.59,147.28Z" style="fill:#263238"></path><path d="M368,160.13a3.28,3.28,0,0,1-.64-.37,19.88,19.88,0,0,1-1.77-1.21A27.65,27.65,0,0,1,360,153a31.64,31.64,0,0,1-2.87-4.63,32.77,32.77,0,0,1-2.22-5.85,28.15,28.15,0,0,1,6.38-26.79,32.74,32.74,0,0,1,4.62-4.23,32.12,32.12,0,0,1,4.65-2.84,27.3,27.3,0,0,1,7.45-2.5,15.7,15.7,0,0,1,2.12-.28,3.73,3.73,0,0,1,.74,0c0,.06-1,.16-2.82.53a29.2,29.2,0,0,0-7.33,2.63,32.18,32.18,0,0,0-4.55,2.86,32.51,32.51,0,0,0-4.52,4.2,27.86,27.86,0,0,0-6.27,26.34,32.72,32.72,0,0,0,2.14,5.78,31.57,31.57,0,0,0,2.77,4.61,29.44,29.44,0,0,0,5.36,5.65C367.11,159.53,368,160.09,368,160.13Z" style="fill:#fafafa"></path><path d="M399.2,110.24c-.07.13-1-.29-2.12-.92s-1.93-1.25-1.86-1.37,1,.28,2.12.92S399.28,110.12,399.2,110.24Z" style="fill:#fafafa"></path><path d="M413,127.37a1.71,1.71,0,0,1,.15.48c.07.32.21.79.3,1.41a28.2,28.2,0,0,1,.46,5.29,30.83,30.83,0,0,1-18,28,28.76,28.76,0,0,1-5,1.8,14.3,14.3,0,0,1-1.41.3,1.47,1.47,0,0,1-.5.07s.66-.21,1.85-.57a33.07,33.07,0,0,0,4.89-1.93,31.88,31.88,0,0,0,17.48-33A19,19,0,0,1,413,127.37Z" style="fill:#fafafa"></path><path d="M435.9,211.69c0,.14-23.42.26-52.31.26s-52.3-.12-52.3-.26,23.41-.26,52.3-.26S435.9,211.55,435.9,211.69Z" style="fill:#263238"></path><path d="M420,219.64c0,.14-16.28.26-36.36.26s-36.36-.12-36.36-.26,16.28-.26,36.36-.26S420,219.5,420,219.64Z" style="fill:#263238"></path><path d="M334.94,73.05A45.76,45.76,0,0,1,329.5,69v-.41h0l0,0,.06-.06.14-.11.27-.21.53-.42,1-.79,1.71-1.31a7.66,7.66,0,0,1,1.66-1.11c.05.06-.5.58-1.43,1.39l-1.64,1.4-1,.81-.53.43-.26.22-.14.11-.07.05,0,0,0,0h0v-.41A45.31,45.31,0,0,1,334.94,73.05Z" style="fill:#263238"></path><path d="M436.92,64.52a45.36,45.36,0,0,1,5.45,4.06c0,.81,0,.23,0,.41h0l0,0,0,0-.07.06-.13.11-.27.21-.53.42-1,.79L438.58,72a7.27,7.27,0,0,1-1.66,1.1,8.47,8.47,0,0,1,1.43-1.39l1.65-1.4,1-.81.52-.43.27-.22.13-.11.07,0,0,0h0V69A44.92,44.92,0,0,1,436.92,64.52Z" style="fill:#263238"></path></g><g id="freepik--Character--inject-17"><path d="M324.56,324.49c11.54-3.41,28.37,3.19,36.7,11.88,9.55,10,13.66,23.78,13.66,34.38,18,3.5,29.66,9,44.33,20s25.35,27.87,23.08,46.08h-130Z" style="fill:#FFC100"></path><g style="opacity:0.2"><path d="M375.09,370.79a37.1,37.1,0,0,0-17.4,22,12.18,12.18,0,0,0-.31,7c.74,2.26,2.85,3.19,5.21,2.9,3-.36,5.74-4.9,6.34-7.9.92-4.62.66-7.53.55-11.93-.11-4.72,2.49-8.52,5.61-12"></path></g><path d="M375.06,371.39c0,.05-.48.34-1.24,1.05a11.12,11.12,0,0,0-2.47,3.6,18.21,18.21,0,0,0-1.4,6.33c-.18,2.46,0,5.19-.17,8.07a18.67,18.67,0,0,1-1.92,7.9,10,10,0,0,1-2.22,2.82,8.69,8.69,0,0,1-2.7,1.58,7.06,7.06,0,0,1-4.46.23,3.52,3.52,0,0,1-.66-.25,2.76,2.76,0,0,1-.46-.24,1.49,1.49,0,0,1-.35-.25,16.06,16.06,0,0,0,1.52.54,7.07,7.07,0,0,0,4.28-.37,8.52,8.52,0,0,0,2.54-1.56,9.67,9.67,0,0,0,2.08-2.73,18.61,18.61,0,0,0,1.83-7.69c.14-2.85,0-5.59.21-8.08a17.93,17.93,0,0,1,1.55-6.46,10.56,10.56,0,0,1,2.67-3.59,6.25,6.25,0,0,1,1-.71A1.49,1.49,0,0,1,375.06,371.39Z" style="fill:#263238"></path><path d="M383.26,398.51a19.92,19.92,0,0,1,1.69-4.32,21.17,21.17,0,0,1,2.17-4.1,42.2,42.2,0,0,1-3.86,8.42Z" style="fill:#fafafa"></path><path d="M377.26,422.07a29.66,29.66,0,0,1-3.67-4.06,28.9,28.9,0,0,1-3.27-4.38,57,57,0,0,1,6.94,8.44Z" style="fill:#fafafa"></path><path d="M400.82,408.64s.13.12.29.41l0,.09-.1,0c-1,.36-3.6,1.12-6.67,1.93-2,.53-3.8,1-5.11,1.27a9.09,9.09,0,0,1-2.15.38,9.27,9.27,0,0,1,2.06-.73c1.29-.39,3.08-.9,5.06-1.42,3.08-.81,5.73-1.44,6.76-1.61l-.06.13C400.83,408.82,400.79,408.65,400.82,408.64Z" style="fill:#fafafa"></path><path d="M406.88,398.44a22.06,22.06,0,0,1-1.21-6.63,11,11,0,0,1,.86,3.27A11.37,11.37,0,0,1,406.88,398.44Z" style="fill:#fafafa"></path><path d="M425.56,414.42a27.74,27.74,0,0,1-1.46-5.22,28.38,28.38,0,0,1-1-5.33,28.18,28.18,0,0,1,1.47,5.22A28.81,28.81,0,0,1,425.56,414.42Z" style="fill:#fafafa"></path><path d="M410.24,426.18a27.25,27.25,0,0,1,1.11-5.18,28,28,0,0,1,1.61-5.06,26.36,26.36,0,0,1-1.11,5.19A26.8,26.8,0,0,1,410.24,426.18Z" style="fill:#fafafa"></path><path d="M397.21,432.82a25.6,25.6,0,0,1-2.77-4.25,24.52,24.52,0,0,1-2.31-4.51,25.08,25.08,0,0,1,2.77,4.25A24.52,24.52,0,0,1,397.21,432.82Z" style="fill:#fafafa"></path><path d="M432.51,428c0,.15-2.4.19-5.3.6s-5.22,1-5.26.84A22.29,22.29,0,0,1,432.51,428Z" style="fill:#fafafa"></path><path d="M355.76,418.38a16.55,16.55,0,0,1,1.06-4,16.22,16.22,0,0,1,1.56-3.85,17,17,0,0,1-1.07,4A17.21,17.21,0,0,1,355.76,418.38Z" style="fill:#fafafa"></path><path d="M346.3,403.26a15.1,15.1,0,0,1-2.76-2.85,14.89,14.89,0,0,1-2.37-3.18,15.1,15.1,0,0,1,2.76,2.85A14.89,14.89,0,0,1,346.3,403.26Z" style="fill:#fafafa"></path><path d="M363.16,389.42a26.56,26.56,0,0,1-4.65-2.67,26.91,26.91,0,0,1-4.36-3.11,55.63,55.63,0,0,1,9,5.78Z" style="fill:#fafafa"></path><path d="M346,373.44a30.81,30.81,0,0,1-2,5.24,29.08,29.08,0,0,1-2.48,5,30.81,30.81,0,0,1,2-5.24A29.08,29.08,0,0,1,346,373.44Z" style="fill:#fafafa"></path><path d="M364.31,367.41a19.68,19.68,0,0,1-1.34-4.3,19.16,19.16,0,0,1-.84-4.43,19.68,19.68,0,0,1,1.34,4.3A19.16,19.16,0,0,1,364.31,367.41Z" style="fill:#fafafa"></path><path d="M346.92,360.35a36.86,36.86,0,0,1-6.11-1.17,37.81,37.81,0,0,1-6-1.66,73.81,73.81,0,0,1,12.1,2.83Z" style="fill:#fafafa"></path><path d="M346.17,348.83A63.94,63.94,0,0,1,353,339.4a32.73,32.73,0,0,1-3.19,4.87A32,32,0,0,1,346.17,348.83Z" style="fill:#fafafa"></path><path d="M342,346a51.28,51.28,0,0,1-2.82-6.84,54,54,0,0,1-2.33-7,51.28,51.28,0,0,1,2.82,6.84A54,54,0,0,1,342,346Z" style="fill:#fafafa"></path><path d="M116,415.14,97.89,436.48s-27.77-11.25-31.5-7.64l40.1,36.63,29.61-32.09Z" style="fill:#FFC100"></path><g style="opacity:0.30000000000000004"><path d="M116,415.14,97.89,436.48s-27.77-11.25-31.5-7.64l40.1,36.63,29.61-32.09Z"></path></g><path d="M111.88,446.07a2.22,2.22,0,0,1-.57,2.9,2.14,2.14,0,0,1-2.89-.54,2.35,2.35,0,0,1,.63-3.07,2.22,2.22,0,0,1,2.94.89" style="fill:#e0e0e0"></path><path d="M106.49,465.47l2.86-3.35L69.83,428.25s-2.5-.85-3.44.59Z" style="fill:#e0e0e0"></path><path d="M97.43,435.68c-.17.2.73,1.19,1.11,2.7s.15,2.8.4,2.89,1-1.31.49-3.13S97.55,435.46,97.43,435.68Z" style="fill:#263238"></path><path d="M91.63,433.58c-.21.15.33,1.26.24,2.69s-.7,2.49-.5,2.66,1.34-.82,1.42-2.61S91.81,433.4,91.63,433.58Z" style="fill:#263238"></path><path d="M84.65,436.43c.14.21,1.3-.52,1.78-2.05s-.05-2.8-.28-2.71-.19,1.18-.6,2.43S84.47,436.24,84.65,436.43Z" style="fill:#263238"></path><path d="M102.1,431.28c-.08.25,1.06.8,2.1,1.89s1.58,2.22,1.84,2.15.06-1.53-1.18-2.8S102.14,431,102.1,431.28Z" style="fill:#263238"></path><path d="M105.83,427c-.07.08.59.91,2,1.83a12.76,12.76,0,0,0,2.69,1.27,12.35,12.35,0,0,0,1.72.44,3.26,3.26,0,0,0,1,.08,1.14,1.14,0,0,0,1-1,1.45,1.45,0,0,0-.44-1.23,3.57,3.57,0,0,0-.85-.58,10.12,10.12,0,0,0-1.64-.72,9.74,9.74,0,0,0-3-.47,4.55,4.55,0,0,0-2.67.55c0,.15,1-.05,2.64.1a10.74,10.74,0,0,1,2.72.63,9.72,9.72,0,0,1,1.47.69c.53.28.9.61.83.9,0,.1,0,.14-.25.18a2.68,2.68,0,0,1-.76-.06,14.16,14.16,0,0,1-1.61-.36,16,16,0,0,1-2.63-1A18.13,18.13,0,0,0,105.83,427Z" style="fill:#263238"></path><path d="M105.83,427.56c0,.09,1.07-.26,2.3-1.46a8.91,8.91,0,0,0,1.74-2.45,9.34,9.34,0,0,0,.6-1.69,2.24,2.24,0,0,0-.36-2.18,1.27,1.27,0,0,0-1.35-.21,3.61,3.61,0,0,0-.87.55,5.8,5.8,0,0,0-1.24,1.35,6.38,6.38,0,0,0-1,2.86c-.16,1.76.44,2.74.52,2.68a21.42,21.42,0,0,1,.13-2.58,6.17,6.17,0,0,1,1.09-2.47,5.54,5.54,0,0,1,1.09-1.13c.45-.37.93-.56,1-.37a1.55,1.55,0,0,1,.1,1.3,8.41,8.41,0,0,1-.5,1.54,9.72,9.72,0,0,1-1.44,2.36C106.63,426.89,105.75,427.43,105.83,427.56Z" style="fill:#263238"></path><path d="M229.77,335.12h0l-22.24-19-12.17,2.94s12.55,26.34,22.46,36.78,15.25,11.91,19,12.08c5.14.22,7.49-6,7.49-6l.59-20.59Z" style="fill:#ffbe9d"></path><path d="M205.38,279.19H188.63c-2.53,0-4.79,2.93-3.88,5.33l16.84,32.8a3.81,3.81,0,0,0,3.39,2.07l20.42,0a2.92,2.92,0,0,0,2.22-4.32l-16.25-32.11A6.65,6.65,0,0,0,205.38,279.19Z" style="fill:#455a64"></path><path d="M204.25,281.16H187.5a2.8,2.8,0,0,0-2.5,4.08l16.44,32.08a3.81,3.81,0,0,0,3.39,2.07H225a1.65,1.65,0,0,0,1.47-2.39l-16.25-32.11A6.67,6.67,0,0,0,204.25,281.16Z" style="fill:#263238"></path><path d="M202.83,294.59l-10.19,4.08-2.19,8.21,4.91,12.22,18,2.62-5.27-5.39.67-4.69s5-1.58,5.15-2.35-.62-3.34-1.39-3.47-6,1.84-6,1.84,6.24-4.94,6.06-5.73-.84-2.82-2.09-3.05-11.31,4.52-11.31,4.52l-1.63,3.73-1.43-6S205,298.66,202.83,294.59Z" style="fill:#ffbe9d"></path><path d="M204.11,313.85c-.06,0-.25-.36-.35-1a5.56,5.56,0,0,1,1.75-4.72c.5-.44.89-.6.93-.55a11.53,11.53,0,0,0-1.88,2.88A11.34,11.34,0,0,0,204.11,313.85Z" style="fill:#eb996e"></path><path d="M199.27,312.07a22.7,22.7,0,0,0,.4-2.67,12,12,0,0,1,.51-3,4.54,4.54,0,0,1,.94-1.58,4.78,4.78,0,0,1,1.67-1.05c2.43-.88,4.63-1.59,6.23-2.11a14.35,14.35,0,0,1,2.64-.73,13.92,13.92,0,0,1-2.51,1.08c-1.57.6-3.78,1.39-6.17,2.25a4.22,4.22,0,0,0-1.49.92,4,4,0,0,0-.85,1.39,12.19,12.19,0,0,0-.6,2.83A5.54,5.54,0,0,1,199.27,312.07Z" style="fill:#eb996e"></path><path d="M196.93,310.23c-.15,0-.12-.93.06-2s.44-2,.59-1.93a4.09,4.09,0,0,1-.07,2C197.33,309.39,197.07,310.25,196.93,310.23Z" style="fill:#eb996e"></path><path d="M196.65,287.35a2.14,2.14,0,1,0,2.14-2.13A2.13,2.13,0,0,0,196.65,287.35Z" style="fill:#fafafa"></path><path d="M216.14,322.34l-16.57,5.49s22.51,41.07,33.55,40.87,14-2.84,14-2.84l0-30.16L219.8,322.58A4.89,4.89,0,0,0,216.14,322.34Z" style="fill:#FFC100"></path><path d="M264.54,267.76c1.21-.24-11.39,65-10.86,71.72s16.43,97.1,16.43,97.1H189.5c1-3.74,25.11-24.08,25.11-24.08l23.44-44.09L240,336l-13.51-8.13s13-39.32,18.51-46.23C254.29,270,261.14,268.44,264.54,267.76Z" style="fill:#FFC100"></path><g style="opacity:0.30000000000000004"><path d="M253.68,339.48c-.53-6.69,12.07-72,10.86-71.72-3.4.68-10.25,2.23-19.52,13.84-4.81,6-15.33,36.76-17.92,44.47l-7.3-3.49a4.89,4.89,0,0,0-3.66-.24l-16.57,5.49s22.51,41.07,33.55,40.87c1.87,0,3.49-.14,4.93-.29h0L214.61,412.5s-24.09,20.34-25.11,24.08h80.61S254.2,346.17,253.68,339.48Z"></path></g><path d="M214,403.37l15.76,16.82c7.24,8.88,14.63,16.22,25.83,16.68h0c13.2.54,35.57,0,35.57,0l-21.72-58.1L217,335.3a32.53,32.53,0,0,0-19.61-6.62h0a32.8,32.8,0,0,0-25,11.75L107.88,421l25.3,21.8,65.6-59.09Z" style="fill:#263238"></path><path d="M295.79,191.75c-2.88-4.73-.62-11.55,4.19-14.31s11.26-1.67,15.51,1.88,5.2,9.41,4.23,14.33c-.73,3.68-6.88,10.9-12.22,7.32" style="fill:#263238"></path><path d="M261.05,221.4c-11.05-24.3,15.23-36.52,29.58-32.46,13.48,3.8,19.23,10.51,21.45,19.53s2.11,18.79-1.43,27.38c-1.74,4.23-4.88,8.54-9.43,9.06" style="fill:#263238"></path><path d="M299.22,202.45a4.58,4.58,0,0,1,4.1,4.65h0L300.73,269c-.1,7.3-10.77,11.43-18.6,11.27h0c-7.9-.17-8.16-4-8.27-11-.19-11.62-.19-16-.19-15.91s-10-1.66-12.05-14.68c-1-6.48-.71-17.1-.16-25.78.49-7.81,5.67-17.4,13.45-16.57Z" style="fill:#ffbe9d"></path><path d="M264.49,221a1.67,1.67,0,0,0,1.61,1.68,1.59,1.59,0,0,0,1.72-1.5,1.68,1.68,0,0,0-1.61-1.69A1.6,1.6,0,0,0,264.49,221Z" style="fill:#263238"></path><path d="M263.76,218.41c.21.21,1.48-.72,3.27-.72s3.12.91,3.31.69-.11-.49-.69-.91a4.58,4.58,0,0,0-2.65-.82,4.43,4.43,0,0,0-2.6.84C263.85,217.91,263.66,218.31,263.76,218.41Z" style="fill:#263238"></path><path d="M281.41,221a1.66,1.66,0,0,0,1.61,1.68,1.6,1.6,0,0,0,1.72-1.5,1.68,1.68,0,0,0-1.61-1.69A1.6,1.6,0,0,0,281.41,221Z" style="fill:#263238"></path><path d="M281.43,218.74c.21.22,1.47-.72,3.27-.71s3.12.9,3.31.68-.11-.49-.69-.91a4.58,4.58,0,0,0-2.65-.81,4.29,4.29,0,0,0-2.6.84C281.52,218.25,281.33,218.64,281.43,218.74Z" style="fill:#263238"></path><path d="M274.91,232.07a12.43,12.43,0,0,0-2.92-.53c-.46,0-.9-.13-1-.45a2.34,2.34,0,0,1,.3-1.36c.44-1.11.89-2.27,1.36-3.49,1.89-5,3.25-9.07,3.05-9.14S273.84,221,272,226c-.45,1.23-.88,2.4-1.3,3.52a2.7,2.7,0,0,0-.24,1.8,1.17,1.17,0,0,0,.76.67,3.39,3.39,0,0,0,.78.11A11.59,11.59,0,0,0,274.91,232.07Z" style="fill:#263238"></path><path d="M273.67,253.34a33.08,33.08,0,0,0,17.44-4.65s-4.23,8.94-17.27,7.73Z" style="fill:#eb996e"></path><path d="M275.67,236.4a3.24,3.24,0,0,1,2.9-1.2,2.92,2.92,0,0,1,2,1.1,1.86,1.86,0,0,1,.15,2.14,2.17,2.17,0,0,1-2.36.59,6.61,6.61,0,0,1-2.3-1.37,2,2,0,0,1-.51-.53.6.6,0,0,1,0-.67" style="fill:#eb996e"></path><path d="M280.2,233.31c-.3,0-.3,1.94-2,3.32s-3.75,1.17-3.76,1.45c0,.12.46.38,1.34.4a4.85,4.85,0,0,0,3.14-1.1,4.17,4.17,0,0,0,1.52-2.78C280.55,233.79,280.33,233.3,280.2,233.31Z" style="fill:#263238"></path><path d="M280.62,215.6c.18.48,2,.25,4.08.51s3.82.83,4.1.39c.12-.21-.17-.67-.86-1.15a6.85,6.85,0,0,0-3-1.06,6.71,6.71,0,0,0-3.19.38C280.94,215,280.55,215.36,280.62,215.6Z" style="fill:#263238"></path><path d="M264.42,213.2c.32.41,1.56,0,3.05,0s2.75.27,3-.15c.12-.21-.07-.62-.63-1a4.38,4.38,0,0,0-4.9.16C264.46,212.59,264.28,213,264.42,213.2Z" style="fill:#263238"></path><path d="M274.07,264.41l-12.56,3.91c-5.81,4.57-8,13.79-7.76,21.18l-4.41,61.31L249,372s33.86,18.39,71.7-5.42l-6.3-16.71L325.82,310c.82-5.81,1.32-17.87-.19-23.59-3.9-14.67-12.84-20.11-24.63-22.74,0,0-11.05,9.72-21.48,7.83C279.52,271.5,274.72,270.58,274.07,264.41Z" style="fill:#FFC100"></path><g style="opacity:0.3"><path d="M274.07,264.41l-12.56,3.91c-5.81,4.57-8,13.79-7.76,21.18l-4.41,61.31L249,372s33.86,18.39,71.7-5.42l-6.3-16.71L325.82,310c.82-5.81,1.32-17.87-.19-23.59-3.9-14.67-12.84-20.11-24.63-22.74,0,0-11.05,9.72-21.48,7.83C279.52,271.5,274.72,270.58,274.07,264.41Z" style="fill:#fff"></path></g><path d="M136.55,415.14l-18.12,21.34s-27.78-11.25-31.51-7.64L127,465.47l29.6-32.09Z" style="fill:#FFC100"></path><path d="M132.41,446.07a2.2,2.2,0,0,1-.57,2.9,2.13,2.13,0,0,1-2.88-.54,2.33,2.33,0,0,1,.62-3.07,2.22,2.22,0,0,1,2.94.89" style="fill:#e0e0e0"></path><path d="M127,465.47l2.85-3.35L90.36,428.25s-2.49-.85-3.44.59Z" style="fill:#e0e0e0"></path><path d="M118,435.68c-.17.2.73,1.19,1.12,2.7s.15,2.8.4,2.89,1-1.31.49-3.13S118.08,435.46,118,435.68Z" style="fill:#263238"></path><path d="M112.17,433.58c-.22.15.32,1.26.23,2.69s-.7,2.49-.5,2.66,1.34-.82,1.42-2.61S112.34,433.4,112.17,433.58Z" style="fill:#263238"></path><path d="M105.18,436.43c.14.21,1.31-.52,1.78-2.05s0-2.8-.28-2.71-.19,1.18-.6,2.43S105,436.24,105.18,436.43Z" style="fill:#263238"></path><path d="M122.63,431.28c-.08.25,1.07.8,2.1,1.89s1.59,2.22,1.84,2.15.07-1.53-1.18-2.8S122.68,431,122.63,431.28Z" style="fill:#263238"></path><path d="M126.37,427c-.08.08.58.91,2,1.83a12.53,12.53,0,0,0,2.69,1.27,11.85,11.85,0,0,0,1.71.44,3.3,3.3,0,0,0,1,.08,1.15,1.15,0,0,0,1-1,1.49,1.49,0,0,0-.45-1.23,3.39,3.39,0,0,0-.85-.58,10.12,10.12,0,0,0-1.64-.72,9.68,9.68,0,0,0-3-.47c-1.72,0-2.71.45-2.67.55s1-.05,2.64.1a10.77,10.77,0,0,1,2.71.63,9.82,9.82,0,0,1,1.48.69c.52.28.89.61.82.9,0,.1,0,.14-.25.18a2.68,2.68,0,0,1-.76-.06,15.2,15.2,0,0,1-1.61-.36,15.91,15.91,0,0,1-2.62-1A18.93,18.93,0,0,0,126.37,427Z" style="fill:#263238"></path><path d="M126.37,427.56c0,.09,1.07-.26,2.3-1.46a8.89,8.89,0,0,0,1.73-2.45A8.64,8.64,0,0,0,131,422a2.23,2.23,0,0,0-.35-2.18,1.27,1.27,0,0,0-1.35-.21,3.69,3.69,0,0,0-.88.55,6.18,6.18,0,0,0-2.27,4.21c-.17,1.76.43,2.74.51,2.68a24.32,24.32,0,0,1,.13-2.58,6.17,6.17,0,0,1,1.09-2.47,5.34,5.34,0,0,1,1.1-1.13c.45-.37.92-.56,1-.37a1.55,1.55,0,0,1,.1,1.3,9.24,9.24,0,0,1-.49,1.54,10,10,0,0,1-1.44,2.36C127.17,426.89,126.29,427.43,126.37,427.56Z" style="fill:#263238"></path><path d="M229.9,383.73a1,1,0,0,1,.12-.3l.41-.84,1.6-3.16,5.81-11.13,0,.1c.18-4.48.45-9.69.79-15.21.56-9,1.22-17.11,1.81-23,.29-2.94.55-5.31.76-7,.11-.77.19-1.39.26-1.88a2.88,2.88,0,0,1,.12-.65,3,3,0,0,1,0,.66c0,.49-.09,1.12-.15,1.9-.15,1.7-.36,4.06-.61,6.95-.49,5.87-1.09,14-1.65,23-.34,5.52-.63,10.72-.85,15.2v.05l0,0-6,11c-.71,1.29-1.29,2.33-1.72,3.09l-.46.81A1.31,1.31,0,0,1,229.9,383.73Z" style="fill:#263238"></path><path d="M229.9,403.37l15.77,16.82c7.24,8.88,14,16.19,25.22,16.65h0c.27.46,32.21.39,32.21.39l-17.76-58.46L232.89,335.3a32.51,32.51,0,0,0-19.61-6.62h0a32.77,32.77,0,0,0-25,11.75L119,420l29.8,25.88,64.55-61.34Z" style="fill:#263238"></path><path d="M288.91,436.58l-.29,0-.86,0-3.29,0c-2.85,0-7,0-12.09-.32a62.4,62.4,0,0,1-8.31-1.06,22.43,22.43,0,0,1-4.48-1.4,25.74,25.74,0,0,1-4.2-2.66c-5.46-4.1-10.1-10-15.27-15.79l-26.89-30.83h.26l-8.15,7.94-2.22,2.13-.58.54a1.36,1.36,0,0,1-.21.17,1.36,1.36,0,0,1,.21-.17l.55-.57,2.15-2.2,8-8.06.13-.13.13.14,27,30.72c5.18,5.81,9.8,11.7,15.17,15.76a25.19,25.19,0,0,0,4.11,2.63,22.59,22.59,0,0,0,4.37,1.39A63.24,63.24,0,0,0,272.4,436c5.09.39,9.22.42,12.07.49l3.29.06.86,0A.94.94,0,0,1,288.91,436.58Z" style="fill:#455a64"></path><path d="M210,329.3l-.36,0c-.23,0-.58,0-1,.07a22.74,22.74,0,0,0-3.94.7A31.61,31.61,0,0,0,192,337.28c-4.73,4.09-9.21,10.07-14.47,16.43S166.4,367,160.16,374.24c-17.71,20.41-33.57,37.6-41.06,45.79v-.16l4.08,3.85,1,1a3.89,3.89,0,0,1,.34.36,2.45,2.45,0,0,1-.38-.31l-1.08-1L118.93,420l-.08-.08.08-.09c7.36-8.3,23.14-25.57,40.84-46,6.24-7.21,12.11-14.13,17.37-20.49s9.8-12.32,14.59-16.4a31.35,31.35,0,0,1,12.91-7.1,22.25,22.25,0,0,1,4-.61c.46,0,.82,0,1,0Z" style="fill:#455a64"></path><path d="M214.51,368.35a9.21,9.21,0,0,1,.74,2.33,21.41,21.41,0,0,1,.49,5.88,19.39,19.39,0,0,1-1.26,5.76,7.58,7.58,0,0,1-1.12,2.17,30.42,30.42,0,0,0,1.86-8C215.49,372,214.32,368.39,214.51,368.35Z" style="fill:#455a64"></path><path d="M223.64,371.05a7.71,7.71,0,0,1-.52,2.5,19,19,0,0,1-7.29,9.75,7.79,7.79,0,0,1-2.25,1.21,23.43,23.43,0,0,0,10.06-13.46Z" style="fill:#455a64"></path><path d="M232.49,335.89c-.15.07-1.12-2.26-2.56-5s-3-4.73-2.83-4.83a16.07,16.07,0,0,1,3.29,4.59A19.63,19.63,0,0,1,232.49,335.89Z" style="fill:#263238"></path><path d="M266,196.69A12.56,12.56,0,0,0,270.63,209a24.58,24.58,0,0,0,7.26,3.28l4.88,1.6c3.61,1.18,7.27,2.37,11.07,2.5-.41,4.23-1,7.07,1.06,10.77,1.89,3.32,4.76,5.73,8.66,5,2.05-10.14,2.36-15,2.71-25.31.08-2.19.12-4.51-1-6.4-1.8-3.14-5.9-3.92-9.48-4.39l-15.12-1.95a30.46,30.46,0,0,0-7.44-.35,10.29,10.29,0,0,0-6.59,3.14" style="fill:#263238"></path><path d="M314,217.46l-.14,0a1.88,1.88,0,0,1-.43,0,4,4,0,0,1-1.59-.45,6.94,6.94,0,0,1-2.05-1.62,32.62,32.62,0,0,1-2-2.76,12.53,12.53,0,0,0-2.84-2.9,16.54,16.54,0,0,0-4.14-2.17,36.21,36.21,0,0,0-10.64-1.7,49.53,49.53,0,0,1-10.84-1.3,15.54,15.54,0,0,1-7.63-4.56,11.69,11.69,0,0,1-1.92-2.87,9.32,9.32,0,0,1-.76-2.49,6.61,6.61,0,0,1,0-2.21c.07,0,0,.79.2,2.17a10,10,0,0,0,.82,2.41,12,12,0,0,0,1.93,2.74,15.48,15.48,0,0,0,7.48,4.35,50.77,50.77,0,0,0,10.75,1.24,35.53,35.53,0,0,1,10.78,1.77,16.71,16.71,0,0,1,4.23,2.27,13,13,0,0,1,2.88,3c.72,1,1.31,2,2,2.78a6.72,6.72,0,0,0,1.93,1.63A4.75,4.75,0,0,0,314,217.46Z" style="fill:#455a64"></path><path d="M312.29,209.39a3.77,3.77,0,0,0-.17-1.86,7.5,7.5,0,0,0-3.72-3.4,25.8,25.8,0,0,0-7.32-2.37,66.09,66.09,0,0,0-9.47-.42,44.32,44.32,0,0,1-9.53-.81,19,19,0,0,1-7.13-3.19,12.16,12.16,0,0,1-3.52-3.92,9,9,0,0,1-.59-1.31,1.57,1.57,0,0,1-.14-.48c.06,0,.27.64.9,1.69a12.9,12.9,0,0,0,3.56,3.72,19.22,19.22,0,0,0,7,3,45.11,45.11,0,0,0,9.43.76,62.15,62.15,0,0,1,9.55.47,25.16,25.16,0,0,1,7.4,2.51c2,1.06,3.36,2.42,3.74,3.66a2.84,2.84,0,0,1,.13,1.44A1.71,1.71,0,0,1,312.29,209.39Z" style="fill:#455a64"></path><path d="M319.23,184.76a1.85,1.85,0,0,1,.16.88,5.35,5.35,0,0,1-.54,2.38c-.85,1.92-3,3.95-5.71,5.49a11.89,11.89,0,0,1-7.8,1.32,15.06,15.06,0,0,1-2.35-.55,2.53,2.53,0,0,1-.82-.34c0-.09,1.23.3,3.22.53a13.29,13.29,0,0,0,3.49-.05,12.87,12.87,0,0,0,4-1.36c2.63-1.5,4.75-3.43,5.63-5.2A6.49,6.49,0,0,0,319.23,184.76Z" style="fill:#455a64"></path><path d="M314.82,178.8a2.51,2.51,0,0,1-.05.87,13.31,13.31,0,0,1-.56,2.31,15.52,15.52,0,0,1-11.16,10.19,13.59,13.59,0,0,1-2.35.35,2.48,2.48,0,0,1-.87,0c0-.09,1.23-.14,3.13-.68a16.28,16.28,0,0,0,10.9-10C314.57,180,314.73,178.78,314.82,178.8Z" style="fill:#455a64"></path><path d="M310.72,235.05a3.62,3.62,0,0,1,0-.69c0-.45,0-1.11.06-2a22.07,22.07,0,0,0-1-7.11,13.78,13.78,0,0,0-2.32-4.33,11.47,11.47,0,0,0-4.47-3.34c-3.7-1.62-8.24-1.61-12.88-2a40.13,40.13,0,0,1-12.84-3.12,21.88,21.88,0,0,1-8.46-6.64,16.43,16.43,0,0,1-3-6.59,11.85,11.85,0,0,1-.25-2,6,6,0,0,1,0-.69c.07,0,.06,1,.45,2.61a16.71,16.71,0,0,0,3.14,6.41A21.72,21.72,0,0,0,277.5,212a40.12,40.12,0,0,0,12.69,3c4.6.43,9.2.43,13,2.12a11.84,11.84,0,0,1,4.62,3.51,13.86,13.86,0,0,1,2.33,4.48,20.81,20.81,0,0,1,.83,7.23c0,.86-.1,1.52-.16,2A2.72,2.72,0,0,1,310.72,235.05Z" style="fill:#455a64"></path><path d="M309.43,201.42a26.43,26.43,0,0,1-1.76-2.08,31.05,31.05,0,0,0-4.72-4.5,31.71,31.71,0,0,0-5.57-3.41c-1.51-.72-2.49-1.08-2.47-1.16a9.7,9.7,0,0,1,2.62.82,25.89,25.89,0,0,1,10.43,8A9.89,9.89,0,0,1,309.43,201.42Z" style="fill:#FFC100"></path><path d="M249,277.7a22,22,0,0,0-.78,2.48,46,46,0,0,0-.72,7.06c-.42,6.06-1,14.33-1.62,23.46s-1.32,17.4-1.78,23.46c-.25,2.95-.45,5.36-.6,7.1-.07.79-.14,1.43-.19,1.93a2.6,2.6,0,0,1-.1.67,5.9,5.9,0,0,1,0-.68c0-.49,0-1.14.09-1.93.11-1.75.25-4.16.43-7.12.42-6.06,1-14.33,1.63-23.46s1.31-17.4,1.77-23.45a39.91,39.91,0,0,1,.9-7.09,10.4,10.4,0,0,1,.65-1.83A2.75,2.75,0,0,1,249,277.7Z" style="fill:#fafafa"></path><path d="M237.61,314.74a71.39,71.39,0,0,1-3.66,7.77,72.25,72.25,0,0,1-4.12,7.53,70.39,70.39,0,0,1,3.66-7.77A68.92,68.92,0,0,1,237.61,314.74Z" style="fill:#fafafa"></path><path d="M203.44,437.29a5.2,5.2,0,0,1,.69-1,20.89,20.89,0,0,1,2.34-2.5c1.05-1,2.39-2.07,3.86-3.27a38.22,38.22,0,0,0,4.49-4.18,32.67,32.67,0,0,0,5.84-9.43c1.05-2.66,1.4-4.41,1.49-4.39a5.1,5.1,0,0,1-.19,1.24,28.37,28.37,0,0,1-1,3.28,30.07,30.07,0,0,1-5.8,9.64,33.83,33.83,0,0,1-4.57,4.21c-1.49,1.19-2.84,2.23-3.92,3.17a26.59,26.59,0,0,0-2.42,2.36A6.91,6.91,0,0,1,203.44,437.29Z" style="fill:#fafafa"></path><path d="M301.09,224.16c.19-.09,7-3.09,7.05,4.71s-7.77,6.27-7.78,6S301.09,224.16,301.09,224.16Z" style="fill:#ffbe9d"></path><path d="M302.71,231.94s.14.09.37.19a1.33,1.33,0,0,0,1,0c.82-.31,1.5-1.62,1.53-3a4.64,4.64,0,0,0-.4-1.94,1.58,1.58,0,0,0-1-1,.69.69,0,0,0-.8.38c-.1.22-.05.37-.09.39s-.17-.13-.11-.45a.9.9,0,0,1,.3-.5,1,1,0,0,1,.75-.2,1.89,1.89,0,0,1,1.43,1.19,4.63,4.63,0,0,1,.49,2.17c0,1.57-.82,3-2,3.39a1.42,1.42,0,0,1-1.24-.2C302.73,232.12,302.68,232,302.71,231.94Z" style="fill:#eb996e"></path><path d="M303,228.75a2.1,2.1,0,0,1,2.19.56,3.46,3.46,0,0,1,.89,2.17,10.67,10.67,0,0,1-.19,2.39c-.08.47-.22,1-.68,1.16s-.9-.29-1-.74a4.76,4.76,0,0,1,0-1.41,1.48,1.48,0,0,0-.45-1.28,3.61,3.61,0,0,0-.56-.27,1.57,1.57,0,0,1-.84-1.45,1.17,1.17,0,0,1,1-1.22" style="fill:#FFC100"></path><path d="M282.39,292.71a2,2,0,0,1,0,.36c0,.27,0,.62,0,1.06,0,1-.06,2.32-.11,4.06-.14,3.56-.32,8.65-.56,14.92s-.57,13.81-1,22.13c-.23,4.17-.42,8.53-.85,13.07a20.14,20.14,0,0,1-1.73,6.75,11.72,11.72,0,0,1-2,3,9.3,9.3,0,0,1-3.08,2,10.81,10.81,0,0,1-3.58.71,13.48,13.48,0,0,1-1.8-.05l-.9-.08a7.64,7.64,0,0,1-.91-.24,31.45,31.45,0,0,1-5.88-3.74c-3.63-2.74-7-5.57-10.14-8.3-6.3-5.46-11.83-10.54-16.45-14.83s-8.3-7.83-10.84-10.28l-2.9-2.84-.75-.75a3.22,3.22,0,0,1-.24-.26s.1.07.28.23l.78.71,3,2.76,11,10.15c4.65,4.26,10.2,9.32,16.52,14.75,3.16,2.71,6.51,5.53,10.12,8.25a31.85,31.85,0,0,0,5.77,3.67,11.67,11.67,0,0,0,6.81-.34,8.92,8.92,0,0,0,2.9-1.89,11.24,11.24,0,0,0,2-2.83,19.71,19.71,0,0,0,1.68-6.58c.43-4.5.64-8.88.88-13,.43-8.32.81-15.82,1.12-22.12s.55-11.36.72-14.92c.1-1.74.17-3.1.22-4.05,0-.45.05-.79.07-1.06A1.26,1.26,0,0,1,282.39,292.71Z" style="fill:#FFC100"></path><path d="M292.3,328.16l-1.76,6.75-34.91-25.45L246.17,296a12.74,12.74,0,0,0-6.92-4.59h0c-2.59-.5-4.82.62-7.59,2.15l-8,4.95a2.81,2.81,0,0,0-1.34,2.83c.13.73.54,1.25,1.63.77,2.42-1.07,7.52-2.58,7.52-2.58l1.34,12.86,5.91,4.28,5.91,4.56L284,360.38a17.61,17.61,0,0,0,28.13-4.59L318,339.21Z" style="fill:#ffbe9d"></path><path d="M289.66,334a2.89,2.89,0,0,1,1.47.9,7.71,7.71,0,0,1,2,3.62,14.17,14.17,0,0,1,.38,4.11,5,5,0,0,1-.2,1.69,5.73,5.73,0,0,1-.17-1.69,19.4,19.4,0,0,0-.52-4,8.57,8.57,0,0,0-1.8-3.49C290.19,334.35,289.62,334,289.66,334Z" style="fill:#eb996e"></path><path d="M231.4,300.22c-.06,0,.11-.45.52-1.05a4.79,4.79,0,0,1,2.22-1.79,2.9,2.9,0,0,1,2.81.54c.57.55.55,1.1.5,1.09s-.2-.42-.73-.8a2.75,2.75,0,0,0-2.41-.33,5.4,5.4,0,0,0-2.1,1.53C231.74,299.92,231.46,300.26,231.4,300.22Z" style="fill:#eb996e"></path><path d="M237.65,303.65c-.06.05-.33-.19-.81-.45a4,4,0,0,0-2-.54,4.13,4.13,0,0,0-2,.55c-.48.27-.74.51-.8.46s.12-.38.59-.77a3.59,3.59,0,0,1,4.43,0C237.53,303.27,237.7,303.61,237.65,303.65Z" style="fill:#eb996e"></path><path d="M306.63,265.26c1.75-1,25.08,14.56,25.49,22.25s-10.93,92.36-10.93,92.36,13.35,4.73,13.35,7.16-2.83,10.52-2.83,10.52,6.07,23.87,9.71,24.67,34,9.91,28.79,14.36l-67.11.65c-6.06-2.43-1.73-6.6-7.16-21.8-4.69-13.12-16.42-55.91-16.42-66.43S296.92,270.92,306.63,265.26Z" style="fill:#FFC100"></path><path d="M267.69,320.71s.47-3,2.06-2.73,22.08,11.07,22.08,11.07,9.41-34.65,13.56-38.5,15.64-7.55,21-6.89,4.85,15.95,4.64,19.95c-.17,3.1-8.82,38.49-12.73,54.36a18.52,18.52,0,0,1-8.64,11.57h0a18.57,18.57,0,0,1-20-.79l-22-15.35Z" style="fill:#FFC100"></path><g style="opacity:0.30000000000000004"><path d="M341.42,422.22c-3.64-.8-9.71-24.67-9.71-24.67s2.83-8.09,2.83-10.52-13.35-7.16-13.35-7.16,5.95-44.51,9.08-71.92c.48-2.25.77-3.8.8-4.34.05-.89.11-2.35.12-4.08.64-6.12,1-10.53.93-12-.41-7.69-23.74-23.27-25.49-22.25-6.58,3.84-16.69,36.09-22.52,59.76-6-3.1-13.42-6.88-14.36-7-1.59-.28-2.06,2.73-2.06,2.73V353.4l14,9.76c3.61,17.1,10.83,42.66,14.26,52.27,5.43,15.2,1.1,19.37,7.16,21.8H370C375.3,432.78,345.06,423,341.42,422.22Z"></path></g><path d="M326.6,321.59a4.29,4.29,0,0,1-.09.84c-.07.55-.2,1.35-.37,2.38-.34,2.06-.9,5-1.66,8.7s-1.73,8-2.93,12.8c-.61,2.4-1.26,4.91-2,7.5a35.46,35.46,0,0,1-3.15,7.75,22.39,22.39,0,0,1-12.32,10.06,14.68,14.68,0,0,1-7,.43,22,22,0,0,1-5.73-2.24,65.07,65.07,0,0,1-7.38-4.91L282,363.45a4.59,4.59,0,0,1-.66-.53,5.59,5.59,0,0,1,.72.45l2,1.36a72.73,72.73,0,0,0,7.44,4.75,21.92,21.92,0,0,0,5.63,2.15,14.32,14.32,0,0,0,6.82-.47,22,22,0,0,0,12-9.87,35.08,35.08,0,0,0,3.11-7.63c.76-2.57,1.42-5.08,2-7.47,1.22-4.78,2.23-9.11,3-12.76s1.42-6.61,1.82-8.66c.2-1,.35-1.77.47-2.36A5.28,5.28,0,0,1,326.6,321.59Z" style="fill:#263238"></path><path d="M299.86,338.26c-.08.05-.72-1-1.9-2.47a35.88,35.88,0,0,0-5.18-5.37,36.32,36.32,0,0,0-6.19-4.16c-1.7-.9-2.8-1.35-2.77-1.43s.3,0,.81.22a20.61,20.61,0,0,1,2.12.88,30.23,30.23,0,0,1,6.37,4.09,30.59,30.59,0,0,1,5.14,5.55,19.14,19.14,0,0,1,1.23,1.93A2.84,2.84,0,0,1,299.86,338.26Z" style="fill:#263238"></path><path d="M304.9,333.94c-.07.05-.64-.62-1.7-1.52a16.29,16.29,0,0,0-9.93-3.87c-1.39-.06-2.26.05-2.27,0a6.49,6.49,0,0,1,2.28-.33,14.5,14.5,0,0,1,10.17,4A6.42,6.42,0,0,1,304.9,333.94Z" style="fill:#263238"></path><path d="M301,290.55a8.36,8.36,0,0,1-.15,1.55c-.14,1-.37,2.42-.71,4.17-.66,3.52-1.74,8.34-3.11,13.61s-2.8,10-3.95,13.4c-.57,1.69-1.08,3.05-1.44,4a9.27,9.27,0,0,1-.64,1.42,10.34,10.34,0,0,1,.44-1.49c.34-1,.77-2.39,1.29-4,1.06-3.41,2.41-8.15,3.79-13.42s2.51-10.06,3.26-13.55c.35-1.68.64-3.07.87-4.14A9.84,9.84,0,0,1,301,290.55Z" style="fill:#263238"></path><path d="M321.07,380.45s-.25.12-.72.23a15.1,15.1,0,0,1-2,.32,21.77,21.77,0,0,1-13-2.88,15.26,15.26,0,0,1-1.7-1.14c-.38-.3-.58-.48-.56-.51s.93.54,2.44,1.33a25,25,0,0,0,12.81,2.83C320,380.55,321.05,380.37,321.07,380.45Z" style="fill:#263238"></path><path d="M328.81,395.67s-.11.09-.33.21a10.52,10.52,0,0,1-1,.48,14.82,14.82,0,0,1-4,1,22.67,22.67,0,0,1-13.22-2.72,46,46,0,0,1-10.69-8.38c-1.22-1.23-2.18-2.26-2.83-3a7.46,7.46,0,0,1-1-1.16,9.85,9.85,0,0,1,1.12,1l2.94,2.86a49.76,49.76,0,0,0,10.68,8.18A23.21,23.21,0,0,0,323.42,397,21.39,21.39,0,0,0,328.81,395.67Z" style="fill:#263238"></path><path d="M278.11,326.19a4.57,4.57,0,0,1,.3,1.12,21.93,21.93,0,0,1,.46,3.12,29.78,29.78,0,0,1,.06,4.69,35.26,35.26,0,0,1-.86,5.69,36.06,36.06,0,0,1-1.85,5.44,31.66,31.66,0,0,1-2.22,4.14,24.06,24.06,0,0,1-1.85,2.56,5.09,5.09,0,0,1-.78.85c-.08-.06,1-1.33,2.32-3.61a36.6,36.6,0,0,0,2.09-4.13,39.45,39.45,0,0,0,1.78-5.38,37.75,37.75,0,0,0,.89-5.59,34.83,34.83,0,0,0,.06-4.63C278.36,327.82,278,326.2,278.11,326.19Z" style="fill:#263238"></path><path d="M323,280.07c0,.08-1.38,0-3.6,0a28.65,28.65,0,0,0-8.5,1.05,14.22,14.22,0,0,0-7,4.69,16.53,16.53,0,0,0-1.73,3.1,2.7,2.7,0,0,1,.22-.95,8.75,8.75,0,0,1,1.22-2.37,13.8,13.8,0,0,1,7.12-5,25.84,25.84,0,0,1,8.67-.93c1.11,0,2,.12,2.63.19A3.4,3.4,0,0,1,323,280.07Z" style="fill:#263238"></path><path d="M275.66,345.52a20.27,20.27,0,0,0-3.3-4.29,19.34,19.34,0,0,0-4.63-2.8,3.7,3.7,0,0,1,1.6.36,10.78,10.78,0,0,1,3.38,2.06,10.91,10.91,0,0,1,2.42,3.12A3.67,3.67,0,0,1,275.66,345.52Z" style="fill:#fafafa"></path><path d="M278.53,331.55a16.93,16.93,0,0,1-1.24-1.41,8.87,8.87,0,0,0-3.67-2.37,13.28,13.28,0,0,0-4.39-.57,10.2,10.2,0,0,1-1.88,0,5.34,5.34,0,0,1,1.86-.4,11.22,11.22,0,0,1,4.58.45,8.07,8.07,0,0,1,3.78,2.62A4.39,4.39,0,0,1,278.53,331.55Z" style="fill:#fafafa"></path><path d="M325.17,282.06s0,.08.09.26a3.81,3.81,0,0,1,.18.82,20.85,20.85,0,0,1,.14,3.19c0,2.78-.37,6.78-1,11.7-1.2,9.83-3.29,23.36-6.39,38.16-.4,1.85-.81,3.67-1.25,5.46a29.27,29.27,0,0,1-1.65,5.21,18.52,18.52,0,0,1-1.22,2.39c-.23.38-.51.73-.76,1.09a6.31,6.31,0,0,1-.86,1,8.83,8.83,0,0,1-4.35,2.62,9.15,9.15,0,0,1-4.85-.13,11.05,11.05,0,0,1-2.11-1l-2-1-7.15-3.8-10.34-5.53-2.8-1.53-.73-.41a1,1,0,0,1-.23-.15l.26.1.75.37,2.84,1.44,10.41,5.38,7.18,3.74,2,1a11.38,11.38,0,0,0,2,.94,8.84,8.84,0,0,0,4.6.11,8.46,8.46,0,0,0,4.11-2.5,5.85,5.85,0,0,0,.82-1c.24-.34.51-.67.73-1a17.55,17.55,0,0,0,1.18-2.33,28.25,28.25,0,0,0,1.61-5.14c.44-1.78.85-3.6,1.25-5.44,3.09-14.78,5.25-28.29,6.54-38.1.63-4.91,1-8.89,1.12-11.65a25.67,25.67,0,0,0,0-3.18C325.28,282.43,325.13,282.07,325.17,282.06Z" style="fill:#fafafa"></path><path d="M295.24,332.68a12.84,12.84,0,0,1-2.46-.59c-1.5-.42-3.58-1-5.89-1.53s-4.43-1-6-1.28a15.07,15.07,0,0,1-2.46-.57,10.54,10.54,0,0,1,2.53.21c1.55.21,3.68.58,6,1.13s4.4,1.18,5.88,1.68A11.67,11.67,0,0,1,295.24,332.68Z" style="fill:#fafafa"></path><path d="M302,331.79c0,.14-1.18.26-2.45.95a5.78,5.78,0,0,0-1.44,1.07c-.32.34-.48.59-.55.56s0-.35.26-.79a4,4,0,0,1,1.49-1.3A3.4,3.4,0,0,1,302,331.79Z" style="fill:#fafafa"></path><path d="M307.64,282.8a1.53,1.53,0,0,1-.05.47c-.06.37-.14.81-.24,1.34-.25,1.24-.58,2.89-1,4.9-.85,4.14-2.07,9.85-3.45,16.14s-2.65,12-3.6,16.11l-1.14,4.87c-.14.52-.25,1-.34,1.32a2,2,0,0,1-.15.45,1.58,1.58,0,0,1,.05-.48c.06-.36.14-.8.24-1.34.25-1.24.58-2.89,1-4.9.85-4.14,2.07-9.84,3.44-16.14s2.65-12,3.6-16.1l1.15-4.87c.13-.53.25-1,.34-1.32S307.62,282.79,307.64,282.8Z" style="fill:#fafafa"></path><path d="M304,370.79a8.55,8.55,0,0,1-1.38-.39c-.44-.13-1-.32-1.58-.56s-1.31-.49-2.06-.83a80.64,80.64,0,0,1-11.3-6.15c-4.24-2.72-7.9-5.41-10.53-7.39-1.32-1-2.37-1.8-3.09-2.37a7.61,7.61,0,0,1-1.09-.93,7.92,7.92,0,0,1,1.21.77l3.18,2.23c2.69,1.9,6.38,4.54,10.6,7.25a96.62,96.62,0,0,0,11.17,6.25c.74.36,1.42.64,2,.9s1.11.48,1.54.64A6.78,6.78,0,0,1,304,370.79Z" style="fill:#fafafa"></path><path d="M303.63,269.74s-.13,0-.37-.18l-.44-.28.52.14a17.41,17.41,0,0,1,6.36,3.81,18.84,18.84,0,0,1,3.49,4.32,6.71,6.71,0,0,1,.94,2.1,31.33,31.33,0,0,0-4.79-6,25.12,25.12,0,0,0-6.06-4l.08-.14C303.56,269.62,303.65,269.72,303.63,269.74Z" style="fill:#fafafa"></path><path d="M312.13,379.16a9.44,9.44,0,0,1,0-2.31,51.39,51.39,0,0,1,.61-5.52,49,49,0,0,1,1.22-5.42,9.55,9.55,0,0,1,.77-2.17,10.24,10.24,0,0,1-.42,2.26c-.3,1.38-.7,3.29-1,5.42s-.6,4.06-.76,5.47A10.88,10.88,0,0,1,312.13,379.16Z" style="fill:#fafafa"></path><path d="M321.49,397.27c-.08,0,.3-.93.58-2.45a13.81,13.81,0,0,0-2.81-11.33c-1-1.21-1.72-1.83-1.66-1.9a6.81,6.81,0,0,1,1.95,1.66,13.12,13.12,0,0,1,2.88,5.47,12.92,12.92,0,0,1,0,6.18A6.32,6.32,0,0,1,321.49,397.27Z" style="fill:#fafafa"></path><path d="M345.39,436.38a2.24,2.24,0,0,1-.62,0c-.41,0-1-.06-1.78-.14a49.28,49.28,0,0,1-6.49-1.1,34.82,34.82,0,0,1-9.1-3.53,25.88,25.88,0,0,1-8.73-8.12,37.49,37.49,0,0,1-4.93-10.88A64.72,64.72,0,0,1,311.9,403c-.34-2.75-.5-5-.62-6.54,0-.72-.08-1.31-.1-1.78a4.17,4.17,0,0,1,0-.62,2.38,2.38,0,0,1,.11.61c.05.46.12,1.05.21,1.78.17,1.54.39,3.77.78,6.51a68.61,68.61,0,0,0,1.93,9.49,37.85,37.85,0,0,0,4.9,10.73,25.71,25.71,0,0,0,8.54,8,35.4,35.4,0,0,0,8.95,3.59A58.4,58.4,0,0,0,343,436l1.77.24A2.9,2.9,0,0,1,345.39,436.38Z" style="fill:#fafafa"></path><path d="M312,437.8a8.18,8.18,0,0,1-2.62-1.3,16.87,16.87,0,0,1-5-6.21,44.34,44.34,0,0,1-2.16-5.08c-.7-1.85-1.39-3.84-2.1-6-1.38-4.23-2.72-8.93-3.94-13.92-2.43-10-4-19.15-5.07-25.78-.53-3.32-.94-6-1.21-7.87-.12-.89-.22-1.61-.3-2.15a5.94,5.94,0,0,1-.07-.75,3.88,3.88,0,0,1,.18.74q.15.8.39,2.13c.34,1.9.8,4.57,1.38,7.83,1.18,6.62,2.78,15.77,5.21,25.73,1.21,5,2.54,9.67,3.89,13.9.69,2.11,1.37,4.1,2,5.95a46.38,46.38,0,0,0,2.09,5.06,17.18,17.18,0,0,0,4.76,6.21A16.71,16.71,0,0,0,312,437.8Z" style="fill:#fafafa"></path><path d="M268.45,250.71a1.2,1.2,0,0,1,0,.31q0,.34,0,.9c0,.8,0,2-.13,3.48s-.3,3.35-.57,5.48-.59,4.55-.8,7.23a37.83,37.83,0,0,0,.24,8.76,19.76,19.76,0,0,0,3.73,9.18,17.44,17.44,0,0,0,9.09,5.94,16.66,16.66,0,0,0,5.77.55,14.82,14.82,0,0,0,5.61-2,18.2,18.2,0,0,0,7.57-8.85,36,36,0,0,0,1.48-5.47c.39-1.83.71-3.63,1-5.38,1.15-7,1.93-13.43,2.44-18.79s.63-9.74.84-12.76c.11-1.47.19-2.64.24-3.47,0-.37.06-.66.08-.9a1,1,0,0,1,0-.3,2.38,2.38,0,0,1,0,.31c0,.23,0,.53,0,.9,0,.83-.08,2-.14,3.47-.15,3-.26,7.39-.69,12.78S303.1,263.9,302,271c-.29,1.77-.61,3.57-1,5.41a37.19,37.19,0,0,1-1.5,5.55,18.57,18.57,0,0,1-7.77,9.11,15.21,15.21,0,0,1-5.83,2,17,17,0,0,1-6-.57,17.8,17.8,0,0,1-9.32-6.13,20.24,20.24,0,0,1-3.79-9.41,38.54,38.54,0,0,1-.18-8.86c.23-2.7.6-5.11.88-7.24s.52-3.95.66-5.45.19-2.67.22-3.47q0-.55,0-.9A1.77,1.77,0,0,1,268.45,250.71Z" style="fill:#FFC100"></path><path d="M217.68,319.39l1.67,1.85a2.6,2.6,0,0,0,1.93.85h0a.62.62,0,0,0,.46-1l-1.52-1.67Z" style="fill:#FFC100"></path></g><g id="freepik--Plant--inject-17"><path d="M654.06,396.76a3.67,3.67,0,0,0-.2-.52l-.64-1.49a36,36,0,0,1-1.84-5.95c-1.18-5.28-1.39-13.29.89-22.72a122.17,122.17,0,0,1,4.7-15.14c1.95-5.36,4.21-11,6.1-17.2a67.4,67.4,0,0,0,3.37-19.9c0-7.07-1.9-14.2-4-21.29s-4.23-14.06-4.73-21a31.79,31.79,0,0,1,4.43-19.11c3.22-5.52,7.21-10.2,10.23-15.08a53.37,53.37,0,0,0,6.33-14.6,55,55,0,0,0,1.09-22.9,42.91,42.91,0,0,0-2.13-8.17,3.57,3.57,0,0,0,.12.54c.11.39.26.91.44,1.57a58.1,58.1,0,0,1,1.29,6.1,55.71,55.71,0,0,1-1.31,22.72A53.09,53.09,0,0,1,671.88,237c-3,4.82-7,9.48-10.3,15.06A32.36,32.36,0,0,0,657,271.6c.49,7.06,2.67,14,4.74,21.15s3.92,14.14,4,21.1a66.69,66.69,0,0,1-3.3,19.69c-1.86,6.13-4.09,11.82-6,17.2A119.51,119.51,0,0,0,651.77,366c-2.24,9.51-1.94,17.6-.67,22.9a34.14,34.14,0,0,0,2,5.95c.3.61.54,1.1.71,1.46A3.26,3.26,0,0,0,654.06,396.76Z" style="fill:#263238"></path><path d="M668.34,242.14s6.41-18.44-3.69-29.67a.64.64,0,0,0-1.11.28C662.88,215.81,661.89,225.16,668.34,242.14Z" style="fill:#FFC100"></path><path d="M665.59,218.71a17.65,17.65,0,0,0,.28,3.45c.31,2.38.67,5.17,1.07,8.26s.75,5.87,1,8.25a18.3,18.3,0,0,0,.51,3.42,15.08,15.08,0,0,0,0-3.47c-.12-2.13-.41-5.07-.83-8.3s-.9-6.14-1.29-8.24A15.65,15.65,0,0,0,665.59,218.71Z" style="fill:#263238"></path><path d="M660.11,285.85s-3-19.3-17.14-24.5a.64.64,0,0,0-.85.77C643,265.13,646.46,273.86,660.11,285.85Z" style="fill:#FFC100"></path><path d="M646.72,266.43a17.78,17.78,0,0,0,1.86,2.91l4.81,6.8c1.79,2.54,3.4,4.85,4.78,6.81a18.18,18.18,0,0,0,2.05,2.78,14.63,14.63,0,0,0-1.61-3.06c-1.11-1.83-2.74-4.3-4.63-6.95s-3.66-5-5-6.69A15.69,15.69,0,0,0,646.72,266.43Z" style="fill:#263238"></path><path d="M662.46,334.11s2.78-19.33-9.28-28.43a.64.64,0,0,0-1,.49C652.08,309.3,652.88,318.66,662.46,334.11Z" style="fill:#FFC100"></path><path d="M655.29,311.63a17.65,17.65,0,0,0,.94,3.33c.75,2.28,1.64,5,2.62,7.9l2.6,7.9A18.87,18.87,0,0,0,662.6,334a14.74,14.74,0,0,0-.65-3.4c-.53-2.07-1.37-4.9-2.41-8s-2-5.86-2.83-7.84A15.58,15.58,0,0,0,655.29,311.63Z" style="fill:#263238"></path><path d="M650.13,382.18s2.09-19.41-10.29-28.08a.65.65,0,0,0-1,.53C638.87,357.76,640,367.09,650.13,382.18Z" style="fill:#FFC100"></path><path d="M642.16,360a17.76,17.76,0,0,0,1.06,3.3c.83,2.24,1.82,4.88,2.9,7.8l2.88,7.8a19.4,19.4,0,0,0,1.27,3.22,14.69,14.69,0,0,0-.78-3.38c-.6-2-1.54-4.85-2.69-7.9s-2.25-5.78-3.11-7.74A15.82,15.82,0,0,0,642.16,360Z" style="fill:#263238"></path><path d="M677.23,226.05s17.58-8.49,18.4-23.58a.65.65,0,0,0-1-.59C692,203.58,684.69,209.48,677.23,226.05Z" style="fill:#FFC100"></path><path d="M691.87,207.55a17,17,0,0,0-2.24,2.63l-5.09,6.59-5.1,6.57a17.76,17.76,0,0,0-2.06,2.78,14.44,14.44,0,0,0,2.45-2.45c1.42-1.59,3.31-3.87,5.29-6.45s3.72-5,4.93-6.73A16,16,0,0,0,691.87,207.55Z" style="fill:#263238"></path><path d="M657.39,265.46s18.07-7.41,19.8-22.42a.65.65,0,0,0-1-.65C673.51,243.93,665.85,249.37,657.39,265.46Z" style="fill:#FFC100"></path><path d="M673.13,247.88a16.83,16.83,0,0,0-2.4,2.49l-5.48,6.27-5.49,6.25a20,20,0,0,0-2.23,2.64,13.92,13.92,0,0,0,2.6-2.29c1.52-1.5,3.54-3.66,5.67-6.12s4-4.73,5.33-6.42A15.36,15.36,0,0,0,673.13,247.88Z" style="fill:#263238"></path><path d="M666.23,310.39s12.71-14.81,7.42-29a.65.65,0,0,0-1.15-.14C670.77,283.89,666.43,292.22,666.23,310.39Z" style="fill:#FFC100"></path><path d="M672.24,287.58a16.62,16.62,0,0,0-1,3.31c-.58,2.33-1.27,5.06-2,8.08s-1.46,5.74-2.05,8.06a18.81,18.81,0,0,0-.78,3.37,14,14,0,0,0,1.27-3.22c.67-2,1.48-4.87,2.26-8s1.42-6,1.82-8.14A15.35,15.35,0,0,0,672.24,287.58Z" style="fill:#263238"></path><path d="M652.45,362.51s17.94-7.7,19.42-22.74a.64.64,0,0,0-1-.63C668.21,340.72,660.64,346.29,652.45,362.51Z" style="fill:#FFC100"></path><path d="M667.9,344.67a17.26,17.26,0,0,0-2.36,2.54l-5.37,6.36-5.39,6.34a18,18,0,0,0-2.18,2.68,14.71,14.71,0,0,0,2.56-2.33c1.49-1.54,3.47-3.73,5.57-6.22s3.93-4.8,5.21-6.51A15.87,15.87,0,0,0,667.9,344.67Z" style="fill:#263238"></path><path d="M619.67,284.68a1.28,1.28,0,0,0,0,.43v1.25c0,1.17,0,2.76.06,4.73.09,4.17.23,10,.39,16.93v0c1,7.1,4.39,15,9,22.79,3.36,5.71,6.92,10.92,10,15.75a107.45,107.45,0,0,1,7.43,13.22,54.11,54.11,0,0,1,3.37,9.62c.28,1.18.48,2.1.59,2.72a5.87,5.87,0,0,0,.23.95,4.16,4.16,0,0,0-.08-1c-.07-.64-.23-1.57-.46-2.76a50.38,50.38,0,0,0-3.18-9.78,103.19,103.19,0,0,0-7.33-13.36c-3-4.86-6.56-10.08-9.91-15.76-4.57-7.71-7.9-15.53-9-22.52v0c-.27-6.95-.49-12.75-.65-16.92-.1-2-.17-3.56-.23-4.73,0-.5-.06-.91-.09-1.25A1.16,1.16,0,0,0,619.67,284.68Z" style="fill:#263238"></path><path d="M628.79,329.39s-6.91-18.26,2.88-29.76a.64.64,0,0,1,1.12.25C633.53,302.92,634.78,312.23,628.79,329.39Z" style="fill:#FFC100"></path><path d="M630.9,305.89a15.54,15.54,0,0,0-.7,3.39c-.33,2.11-.72,5-1.06,8.27s-.54,6.19-.6,8.33a13.67,13.67,0,0,0,.1,3.46,19.39,19.39,0,0,0,.41-3.43c.24-2.39.51-5.19.82-8.28s.6-5.9.84-8.28A17.23,17.23,0,0,0,630.9,305.89Z" style="fill:#263238"></path><g style="opacity:0.30000000000000004"><path d="M628.79,329.39s-6.91-18.26,2.88-29.76a.64.64,0,0,1,1.12.25C633.53,302.92,634.78,312.23,628.79,329.39Z"></path></g><path d="M650.61,373.55s-5.42-18.76,5.27-29.44a.65.65,0,0,1,1.1.35C657.47,347.55,658,356.93,650.61,373.55Z" style="fill:#FFC100"></path><path d="M654.61,350.3a15.37,15.37,0,0,0-1,3.32c-.5,2.07-1.13,5-1.72,8.16s-1,6.12-1.28,8.25a14.82,14.82,0,0,0-.19,3.46,18.37,18.37,0,0,0,.7-3.39c.43-2.36.93-5.13,1.48-8.19s1.08-5.83,1.51-8.18A16.35,16.35,0,0,0,654.61,350.3Z" style="fill:#263238"></path><g style="opacity:0.30000000000000004"><path d="M650.61,373.55s-5.42-18.76,5.27-29.44a.65.65,0,0,1,1.1.35C657.47,347.55,658,356.93,650.61,373.55Z"></path></g><path d="M620,307.07s-15.63-11.7-13.54-26.66a.65.65,0,0,1,1.09-.39C609.75,282.18,615.8,289.38,620,307.07Z" style="fill:#FFC100"></path><g style="opacity:0.30000000000000004"><path d="M620,307.07s-15.63-11.7-13.54-26.66a.65.65,0,0,1,1.09-.39C609.75,282.18,615.8,289.38,620,307.07Z"></path></g><path d="M609.12,286.1a15.79,15.79,0,0,0,1.23,3.24c.85,2,2.09,4.63,3.55,7.55s2.86,5.51,4,7.35a14.51,14.51,0,0,0,1.95,2.87,18.82,18.82,0,0,0-1.49-3.12c-1.09-2.14-2.36-4.65-3.76-7.43l-3.73-7.44A16.4,16.4,0,0,0,609.12,286.1Z" style="fill:#263238"></path><path d="M644.74,354.94s-19.18-3.62-23.9-18a.65.65,0,0,1,.8-.83C624.62,337.09,633.22,340.88,644.74,354.94Z" style="fill:#FFC100"></path><g style="opacity:0.30000000000000004"><path d="M644.74,354.94s-19.18-3.62-23.9-18a.65.65,0,0,1,.8-.83C624.62,337.09,633.22,340.88,644.74,354.94Z"></path></g><path d="M625.79,340.89a15.6,15.6,0,0,0,2.53,2.36c1.62,1.39,3.91,3.24,6.5,5.22s5,3.68,6.79,4.85a14.27,14.27,0,0,0,3,1.72,19.1,19.1,0,0,0-2.71-2.14l-6.64-5-6.63-5A17,17,0,0,0,625.79,340.89Z" style="fill:#263238"></path><polygon points="662.01 391 665.02 416.87 633.07 416.87 637.13 390.21 662.01 391" style="fill:#455a64"></polygon><path d="M635.36,401.9c0,.2,6.32.56,14.12.81s14.14.28,14.15.08-6.32-.56-14.13-.81S635.37,401.7,635.36,401.9Z" style="fill:#263238"></path><path d="M634.57,404.89c0,.2,6.52.57,14.58.83s14.61.29,14.61.09-6.52-.57-14.58-.82S634.58,404.69,634.57,404.89Z" style="fill:#263238"></path></g></svg>