<?xml version="1.0" encoding="iso-8859-1"?>
<!-- Generator: Adobe Illustrator 19.0.0, SVG Export Plug-In . SVG Version: 6.00 Build 0)  -->
<svg version="1.1" id="Layer_1" xmlns="http://www.w3.org/2000/svg" xmlns:xlink="http://www.w3.org/1999/xlink" x="0px" y="0px"
	 viewBox="0 0 509.887 509.887" style="enable-background:new 0 0 509.887 509.887;" xml:space="preserve">
<g>
	<g>
		<path d="M496.7,437.055L389.295,328.268l-6.034-6.112l-12.103,12.105l-62.382-62.382c20.892-28.319,33.249-63.32,33.249-101.213
			c0-0.16-0.006-0.318-0.006-0.478h0.028l-0.036-0.65c-0.534-82.394-59.446-150.919-137.452-166.3
			c-0.076-0.015-0.153-0.029-0.229-0.044c-1.243-0.243-2.489-0.475-3.741-0.691c-0.185-0.032-0.372-0.061-0.557-0.092
			c-1.153-0.195-2.309-0.383-3.47-0.555c-0.293-0.043-0.587-0.081-0.881-0.123c-1.064-0.152-2.129-0.3-3.2-0.432
			c-0.401-0.05-0.805-0.091-1.207-0.138c-0.973-0.113-1.946-0.226-2.924-0.323c-0.515-0.051-1.034-0.091-1.55-0.138
			c-0.876-0.079-1.751-0.16-2.631-0.225c-0.646-0.048-1.297-0.082-1.945-0.123c-0.76-0.048-1.518-0.102-2.28-0.139
			c-0.84-0.042-1.684-0.067-2.527-0.096c-0.582-0.02-1.161-0.049-1.744-0.064C174.239,0.019,172.8,0,171.358,0
			c-1.316,0-2.631,0.019-3.945,0.05c-0.766,0.017-1.529,0.048-2.293,0.075c-0.45,0.017-0.901,0.031-1.351,0.051
			C73.036,4.148,0.691,78.952,0.691,170.667c0,46.159,18.332,88.029,48.102,118.75c0.044,0.046,0.089,0.091,0.133,0.136
			c1.254,1.291,2.527,2.563,3.82,3.814c0.051,0.049,0.101,0.099,0.152,0.148c2.606,2.514,5.293,4.942,8.055,7.288
			c0.181,0.154,0.363,0.307,0.545,0.461c2.768,2.331,5.608,4.577,8.522,6.731c0.043,0.031,0.086,0.062,0.128,0.094
			c1.44,1.063,2.899,2.101,4.374,3.119c0.07,0.048,0.139,0.097,0.209,0.145c21.367,14.704,46.248,24.663,73.129,28.365
			c0.127,0.018,0.254,0.036,0.381,0.053c3.626,0.491,7.286,0.87,10.981,1.13c0.386,0.027,0.773,0.049,1.159,0.073
			c1.403,0.089,2.81,0.161,4.221,0.216c0.475,0.019,0.95,0.039,1.426,0.054c1.771,0.054,3.546,0.091,5.33,0.091
			c37.892,0,72.895-12.356,101.214-33.249l62.385,62.385l-12.027,12.029L436.32,497.357c16.7,16.7,43.718,16.7,60.38,0.039
			C513.362,480.735,513.362,453.717,496.7,437.055z M281.452,181.222c-10.289,15.964-34.006,8.009-47.688-12.685
			c-0.531-0.805-0.964-1.865-1.333-3.294c-0.292-1.128-0.392-1.665-0.894-4.625c-1.289-7.595-2.647-11.136-7.96-13.984
			c-5.618-3.012-12.179-1.855-21.643,2.462c-12.994,6.011-15.183,6.763-16.659,6.392c-1.101-0.277-2.912-1.388-6.883-4.439
			c-0.985-0.758-1.707-1.888-2.587-4.126c-0.236-0.6-0.44-1.156-0.928-2.507c-4.421-12.143-11.786-16.993-27.345-13.261
			c-1.616,0.386-3.101,0.726-4.459,1.023c4.765-9.035,6.783-17.331,4.829-26.028c1.794,0.776,3.961,1.745,6.603,2.947
			c0.475,0.216,0.475,0.216,0.953,0.433c14.417,6.541,19.929,8.356,26.42,6.034c16.065-5.748,20.438-29.003,8.866-41.389
			c-0.153-0.163-0.052-2.501,0.974-3.871c0.483-0.645,0.405-0.644,3.335,2.289c12.398,12.596,28.085,3.52,36.359-13.421
			c4.601-9.42,6.244-19.511,4.188-28.024c47.494,21.957,81.969,67.533,88.153,121.975h-4.744
			c-9.555-9.041-18.431-11.759-26.182-6.012c-5.549,4.114-7.901,10.686-9.617,21.144c-0.233,1.421-0.446,2.869-0.693,4.675
			c-0.058,0.42-0.453,3.361-0.562,4.144C281.566,179.845,281.17,181.659,281.452,181.222z M116.06,41.001
			c4.088-6.376,6.649-11.173,8.27-16.415c13.223-4.277,26.776-6.77,40.51-7.372c0.46-0.019,0.92-0.037,1.381-0.052
			c0.566-0.02,1.132-0.038,1.698-0.051c1.143-0.025,2.289-0.044,3.438-0.044c1.282,0,2.56,0.017,3.835,0.049
			c0.489,0.012,0.975,0.036,1.463,0.052c0.778,0.026,1.556,0.051,2.331,0.089c0.618,0.03,1.234,0.073,1.85,0.11
			c0.635,0.039,1.271,0.074,1.904,0.121c0.699,0.051,1.395,0.114,2.092,0.175c0.537,0.047,1.075,0.091,1.611,0.143
			c0.773,0.076,1.544,0.162,2.314,0.249c0.445,0.05,0.89,0.099,1.334,0.153c0.844,0.103,1.685,0.215,2.525,0.332
			c0.355,0.049,0.711,0.097,1.066,0.149c0.919,0.134,1.836,0.277,2.75,0.428c0.256,0.042,0.512,0.084,0.768,0.127
			c1.006,0.171,2.008,0.351,3.007,0.541c0.073,0.014,0.146,0.028,0.218,0.042c-1.053,0.449-2.245,0.959-3.613,1.546
			c-0.616,0.264-0.616,0.264-1.23,0.527c-8.361,3.571-13.111,5.198-15.025,5.187c-12.724-0.067-21.451,4.27-37.438,15.731
			c-0.528,0.378-0.528,0.378-1.052,0.755c-7.662,5.498-11.216,7.825-15.516,9.907C119.236,57.017,111.533,48.061,116.06,41.001z
			 M100.168,34.537c-10.224,20.857,11.8,44.954,33.818,34.303c5.477-2.652,9.575-5.335,18.031-11.403
			c0.525-0.377,0.525-0.377,1.047-0.751c13.139-9.42,19.492-12.577,27.397-12.535c5.308,0.032,10.801-1.85,21.826-6.559
			c0.629-0.269,0.629-0.269,1.255-0.537c7.337-3.148,9.269-3.946,11.924-4.844c0.673-0.228,1.268-0.411,1.775-0.55
			c3.049,3.781,2.879,11.741-1.164,20.021c-2.099,4.297-4.848,7.605-7.166,8.946c-1.102,0.637-1.058,0.641-1.741-0.053
			c-9.989-9.995-22.077-9.893-29.111-0.503c-5.623,7.505-6.114,18.977,0.212,25.753c3.5,3.746,1.906,12.222-2.141,13.671
			c-0.027,0.01-5.261-1.714-13.621-5.507c-0.468-0.212-0.468-0.212-0.937-0.426c-11.502-5.233-15.021-6.64-19.74-7.164
			c-12.42-1.379-16.504,8.808-11.512,20.628c2.298,5.486,1.157,10.964-3.072,18.531c-0.555,0.992-3.51,5.952-4.204,7.27
			c-2.503,4.743-3.38,8.193-0.813,12.614c4.271,7.355,10.112,6.884,29.272,2.313c6.431-1.542,5.687-2.032,7.338,2.502
			c0.482,1.336,0.762,2.099,1.081,2.912c1.909,4.858,4.195,8.432,8.069,11.413c5.795,4.452,9.014,6.428,13.126,7.461
			c7.235,1.818,9.97,0.878,27.942-7.435c2.232-1.018,4.064-1.718,5.479-2.128c0.054,0.296,0.112,0.627,0.175,0.997
			c0.599,3.528,0.732,4.243,1.196,6.039c0.806,3.12,1.932,5.875,3.613,8.426c19.391,29.327,57.263,42.03,76.276,12.532
			c1.683-2.609,2.237-5.151,3.06-11.032c0.117-0.838,0.517-3.813,0.569-4.192c0.229-1.67,0.421-2.98,0.626-4.229
			c0.751-4.576,1.689-7.8,2.373-9.299c1.634,0.87,3.971,2.765,6.866,5.814l2.523,2.657h13.139c0,0.16,0.006,0.318,0.006,0.478
			c0,35.091-11.775,67.426-31.578,93.289l-2.621,3.237c-6.806,8.406-14.463,16.066-22.873,22.881l-3.007,2.437
			c-12.688,9.754-26.942,17.568-42.321,23.004v-4.78l23.101-23.101c1.6-1.6,2.499-3.771,2.499-6.034V256
			c0-4.713-3.82-8.533-8.533-8.533h-34.133V230.4c0-3.673-2.35-6.934-5.835-8.095l-25.6-8.533c-0.87-0.29-1.781-0.438-2.698-0.438
			h-24.477l-20.897-5.597l-13.134-8.265c-1.969-1.239-4.359-1.62-6.615-1.056l-36.028,9.011l-1.743,0.644l-18.022,9.003
			c-0.822,0.411-1.572,0.951-2.222,1.601l-16.353,16.361c-9.05-19.58-14.109-41.382-14.109-64.37
			C17.758,111.528,51.184,60.206,100.168,34.537z M166.719,324.191c-0.43-0.013-0.857-0.033-1.286-0.049
			c-1.172-0.045-2.341-0.101-3.507-0.172c-0.405-0.025-0.81-0.049-1.214-0.077c-1.428-0.098-2.853-0.212-4.273-0.35
			c-0.085-0.008-0.171-0.014-0.257-0.023c-3.279-0.323-6.532-0.751-9.757-1.279c-0.059-0.01-0.117-0.019-0.176-0.029
			c-21.202-3.498-41.153-11.368-58.742-22.842c-0.027-0.018-0.054-0.036-0.082-0.054c-1.292-0.844-2.571-1.709-3.837-2.592
			c-0.073-0.051-0.147-0.101-0.22-0.152c-2.583-1.808-5.111-3.696-7.58-5.66c-0.115-0.092-0.229-0.185-0.344-0.277
			c-1.101-0.881-2.189-1.778-3.266-2.69c-0.148-0.125-0.296-0.249-0.444-0.375c-2.399-2.046-4.738-4.166-7.012-6.36
			c-0.023-0.022-0.046-0.045-0.069-0.068c-1.133-1.096-2.25-2.21-3.351-3.341c-0.033-0.034-0.066-0.067-0.099-0.101
			c-7.923-8.159-14.987-17.243-21.018-27.131l1.577-1.335l17.541-17.51l15.949-7.967l31.588-7.901l11.143,7.012
			c0.724,0.455,1.511,0.799,2.337,1.021l23.228,6.221c0.72,0.193,1.462,0.291,2.208,0.291h24.215l18.451,6.15V256
			c0,4.713,3.82,8.533,8.533,8.533h34.133v13.532l-23.101,23.101c-1.6,1.6-2.499,3.771-2.499,6.034v10.675
			c-1.067,0.314-2.072,0.61-2.563,0.753c-2.318,0.677-4.185,1.208-5.968,1.692c-9.922,2.696-17.472,3.947-25.602,3.947
			C169.807,324.267,168.262,324.237,166.719,324.191z M347.022,358.398l-61.171-61.171c4.22-3.82,8.248-7.848,12.069-12.069
			l61.171,61.171l-6.021,6.022L347.022,358.398z M484.632,485.328c-9.997,9.997-26.208,9.997-36.205,0l-101.44-102.753
			l18.125-18.128l18.077-18.071l101.404,102.709C494.629,459.12,494.629,475.332,484.632,485.328z"/>
	</g>
</g>
<g>
</g>
<g>
</g>
<g>
</g>
<g>
</g>
<g>
</g>
<g>
</g>
<g>
</g>
<g>
</g>
<g>
</g>
<g>
</g>
<g>
</g>
<g>
</g>
<g>
</g>
<g>
</g>
<g>
</g>
</svg>
