<?xml version="1.0" encoding="iso-8859-1"?>
<!-- Generator: Adobe Illustrator 16.0.0, SVG Export Plug-In . SVG Version: 6.00 Build 0)  -->
<!DOCTYPE svg PUBLIC "-//W3C//DTD SVG 1.1//EN" "http://www.w3.org/Graphics/SVG/1.1/DTD/svg11.dtd">
<svg version="1.1" id="Capa_1" xmlns="http://www.w3.org/2000/svg" xmlns:xlink="http://www.w3.org/1999/xlink" x="0px" y="0px"
	 width="47.001px" height="47.001px" viewBox="0 0 47.001 47.001" style="enable-background:new 0 0 47.001 47.001;"
	 xml:space="preserve">
<g>
	<g>
		<path d="M21.026,30.283c0.007,0.23-0.001,0.463-0.021,0.695H26c-0.046-0.462-0.043-0.943,0.029-1.439
			c0.037-0.268,0.119-0.533,0.189-0.797h-5.192L21.026,30.283z"/>
		<path d="M45.881,28.74H45.32V18.26h0.561c0.618,0,1.119-0.501,1.119-1.119c0-0.618-0.501-1.119-1.119-1.119H45.32v-6.51
			c0-4.319-3.514-7.833-7.832-7.833H9.512c-4.319,0-7.833,3.514-7.833,7.833v6.51h-0.56C0.501,16.022,0,16.523,0,17.142
			c0,0.618,0.501,1.119,1.119,1.119h0.56v10.48h-0.56C0.501,28.74,0,29.242,0,29.859c0,0.618,0.501,1.119,1.119,1.119h0.56v6.51
			c0,4.319,3.514,7.833,7.833,7.833h27.976c4.32,0,7.834-3.514,7.834-7.833v-6.51h0.56c0.618,0,1.119-0.501,1.119-1.119
			C47,29.242,46.499,28.74,45.881,28.74z M40.846,16.022h-2.242v2.238h2.242v10.48h-2.367c-0.152,0.76-0.444,1.516-0.86,2.238h3.228
			v6.51c0,1.852-1.507,3.357-3.357,3.357H9.512c-1.851,0-3.357-1.506-3.357-3.357v-6.51h2.73c0.297-0.773,0.733-1.527,1.309-2.238
			H6.155V18.26h9.768v-2.238H6.155v-6.51c0-1.851,1.506-3.357,3.357-3.357h27.976c1.852,0,3.357,1.506,3.357,3.357V16.022
			L40.846,16.022z"/>
		<path d="M35.814,9.914l-17.576,2.953c-0.692,0.118-1.198,0.716-1.198,1.417v12.523c-0.28-0.059-0.573-0.096-0.879-0.096
			c-1.561,0-3.223,0.765-4.556,2.096c-2.325,2.326-2.781,5.512-1.043,7.25c0.688,0.691,1.622,1.053,2.695,1.053
			c1.563,0,3.223-0.766,4.556-2.097c1.438-1.441,2.16-3.207,2.091-4.759c0.001-0.021,0.005-9.442,0.005-9.442l14.707-2.472v5.514
			c-0.281-0.061-0.573-0.096-0.879-0.096c-1.563,0-3.223,0.762-4.557,2.096c-2.324,2.324-2.783,5.512-1.041,7.25
			c0.688,0.688,1.618,1.053,2.694,1.053c1.562,0,3.222-0.764,4.556-2.099c1.439-1.44,2.162-3.211,2.09-4.763
			c0.002-0.021,0.006-15.965,0.006-15.965c0-0.422-0.187-0.822-0.508-1.094C36.654,9.96,36.229,9.844,35.814,9.914z"/>
	</g>
</g>
<g>
</g>
<g>
</g>
<g>
</g>
<g>
</g>
<g>
</g>
<g>
</g>
<g>
</g>
<g>
</g>
<g>
</g>
<g>
</g>
<g>
</g>
<g>
</g>
<g>
</g>
<g>
</g>
<g>
</g>
</svg>
