<?xml version="1.0" encoding="iso-8859-1"?>
<!-- Generator: Adobe Illustrator 19.0.0, SVG Export Plug-In . SVG Version: 6.00 Build 0)  -->
<svg version="1.1" id="Layer_1" xmlns="http://www.w3.org/2000/svg" xmlns:xlink="http://www.w3.org/1999/xlink" x="0px" y="0px"
	 viewBox="0 0 512 512" style="enable-background:new 0 0 512 512;" xml:space="preserve">
<g>
	<g>
		<path d="M451.418,5.078L206.549,57.55c-22.941,4.915-39.592,25.513-39.592,48.975c0,12.484,0,235.036,0,255.75
			c-18.362-13.67-41.926-21.179-66.783-21.179C45.992,341.096,0,377.228,0,424.574c0,47.374,46.024,83.478,100.174,83.478
			c54.2,0,100.174-36.145,100.174-83.478V193.201l278.261-59.628v161.918c-18.363-13.67-41.927-21.179-66.783-21.179
			c-54.184,0-100.174,36.135-100.174,83.478c0,47.373,46.024,83.478,100.174,83.478c54.2,0,100.174-36.144,100.174-83.478
			c0-11.216,0-291.462,0-303.738C512,22.131,482.567-1.595,451.418,5.078z M100.174,474.661c-36.824,0-66.783-22.469-66.783-50.087
			c0-27.618,29.959-50.087,66.783-50.087c36.824,0,66.783,22.469,66.783,50.087C166.957,452.192,136.998,474.661,100.174,474.661z
			 M411.826,407.878c-36.824,0-66.783-22.469-66.783-50.087c0-27.618,29.959-50.087,66.783-50.087s66.783,22.469,66.783,50.087
			C478.609,385.409,448.65,407.878,411.826,407.878z M478.609,99.425l-278.261,59.627v-52.527c0-7.82,5.551-14.685,13.197-16.325
			l244.868-52.472c10.406-2.229,20.195,5.707,20.195,16.325V99.425z"/>
	</g>
</g>
<g>
</g>
<g>
</g>
<g>
</g>
<g>
</g>
<g>
</g>
<g>
</g>
<g>
</g>
<g>
</g>
<g>
</g>
<g>
</g>
<g>
</g>
<g>
</g>
<g>
</g>
<g>
</g>
<g>
</g>
</svg>
