<svg xmlns="http://www.w3.org/2000/svg" width="337.578" height="337.579">
  <path d="M274.107 130.68c-14.646-26.151-43.487-41.154-74.424-36.215-12.147-25.487-37.536-41.673-66.098-41.673-40.421 0-73.318 32.897-73.318 73.334 0 1.666.066 3.386.216 5.17C25.593 139.254 0 170.75 0 207.025c0 42.88 34.879 77.756 77.753 77.756h75.835v-86.235l-10.863 10.863c-5.702 5.705-15.646 5.705-21.344 0-2.846-2.847-4.428-6.642-4.428-10.671 0-4.035 1.576-7.812 4.435-10.658l36.635-36.653c2.798-2.801 6.689-4.407 10.661-4.407l1.465.048c3.54.285 6.836 1.802 9.395 4.341l36.659 36.671c2.852 2.847 4.425 6.63 4.425 10.665 0 4.022-1.573 7.83-4.432 10.676-5.68 5.699-15.642 5.699-21.341 0l-11.085-11.103v86.469h76.057c42.875 0 77.751-34.882 77.751-77.756 0-37.314-27.063-69.56-63.471-76.351z"/>
</svg>