<?xml version="1.0" encoding="iso-8859-1"?>
<!-- Generator: Adobe Illustrator 19.0.0, SVG Export Plug-In . SVG Version: 6.00 Build 0)  -->
<svg version="1.1" id="Layer_1" xmlns="http://www.w3.org/2000/svg" xmlns:xlink="http://www.w3.org/1999/xlink" x="0px" y="0px"
	 viewBox="0 0 321.95 321.95" style="enable-background:new 0 0 321.95 321.95;" xml:space="preserve">
<g transform="translate(0 -562.36)">
	<g>
		<g>
			<path d="M97.675,674.238v98.1c0,10.5,11,17.3,20.5,12.6l97.7-48.8c10.5-5.2,10.5-19.9,0-25.2l-97.7-48.8c-2.1-1-4.7-1.5-6.8-1.5
				v0C103.475,660.638,97.675,666.938,97.675,674.238z M125.475,697.338l53.1,26.2l-53.1,26.2V697.338z"/>
			<path d="M14.175,639.138h293.6c18.9,0.5,18.9-28.3,0-27.8h-293.6C-4.725,610.838-4.725,639.638,14.175,639.138z"/>
			<path d="M307.775,807.038h-293.6c-18.9,0-18.9,28.3,0,28.3h293.6C326.675,835.338,326.675,807.038,307.775,807.038z"/>
			<path d="M14.175,688.438h48.9c18.9,0,18.9-28.3,0-28.3h-48.9C-4.725,660.138-4.725,688.438,14.175,688.438z"/>
			<path d="M14.175,737.238h48.9c18.9,0.5,18.9-28.3,0-27.8h-48.9C-4.725,708.938-4.725,737.738,14.175,737.238z"/>
			<path d="M14.175,786.038h48.9c18.9,0.5,18.9-28.3,0-27.8h-48.9C-4.725,757.738-4.725,786.538,14.175,786.038z"/>
			<path d="M307.775,660.138h-90.3c-18.9,0-18.9,28.3,0,28.3h90.3C326.675,688.438,326.675,660.138,307.775,660.138z"/>
			<path d="M307.775,709.438h-48.3c-18.9-0.5-18.9,28.3,0,27.8h48.3C326.675,737.738,326.675,708.938,307.775,709.438z"/>
			<path d="M307.775,758.238h-48.3c-18.9-0.5-18.9,28.3,0,27.8h48.3C326.675,786.538,326.675,757.738,307.775,758.238z"/>
		</g>
	</g>
</g>
<g>
</g>
<g>
</g>
<g>
</g>
<g>
</g>
<g>
</g>
<g>
</g>
<g>
</g>
<g>
</g>
<g>
</g>
<g>
</g>
<g>
</g>
<g>
</g>
<g>
</g>
<g>
</g>
<g>
</g>
</svg>
